<?xml version="1.0" encoding="UTF-8" standalone="no"?>
<!-- Created with Inkscape (http://www.inkscape.org/) -->

<svg
   xmlns:dc="http://purl.org/dc/elements/1.1/"
   xmlns:cc="http://creativecommons.org/ns#"
   xmlns:rdf="http://www.w3.org/1999/02/22-rdf-syntax-ns#"
   xmlns:svg="http://www.w3.org/2000/svg"
   xmlns="http://www.w3.org/2000/svg"
   xmlns:sodipodi="http://sodipodi.sourceforge.net/DTD/sodipodi-0.dtd"
   xmlns:inkscape="http://www.inkscape.org/namespaces/inkscape"
   width="256"
   height="128"
   viewBox="0 0 256 128"
   id="svg2"
   version="1.1"
   inkscape:version="0.91 r13725"
   sodipodi:docname="Group_Whispers.svg"
   inkscape:export-filename="C:\Users\Greene\Documents\Firaxis ModBuddy\XCOM\Game of Thrones\imageSource\UIGroup_Whispers.png"
   inkscape:export-xdpi="45"
   inkscape:export-ydpi="45">
  <defs
     id="defs4">
    <clipPath
       clipPathUnits="userSpaceOnUse"
       id="clipPath4175">
      <rect
         style="fill:#e2e500;fill-opacity:0.62337658;stroke:none;stroke-width:0.25;stroke-linecap:round;stroke-linejoin:round;stroke-miterlimit:4;stroke-dasharray:none;stroke-opacity:0.6168831"
         id="rect4177"
         width="431.42859"
         height="625.71429"
         x="-744.28577"
         y="229.505" />
    </clipPath>
  </defs>
  <sodipodi:namedview
     id="base"
     pagecolor="#ffffff"
     bordercolor="#666666"
     borderopacity="1.0"
     inkscape:pageopacity="0.0"
     inkscape:pageshadow="2"
     inkscape:zoom="3.959798"
     inkscape:cx="114.5928"
     inkscape:cy="68.249587"
     inkscape:document-units="px"
     inkscape:current-layer="layer1"
     showgrid="false"
     units="px"
     showborder="true"
     inkscape:window-width="1920"
     inkscape:window-height="1138"
     inkscape:window-x="-8"
     inkscape:window-y="-8"
     inkscape:window-maximized="1"
     inkscape:snap-nodes="false" />
  <metadata
     id="metadata7">
    <rdf:RDF>
      <cc:Work
         rdf:about="">
        <dc:format>image/svg+xml</dc:format>
        <dc:type
           rdf:resource="http://purl.org/dc/dcmitype/StillImage" />
        <dc:title></dc:title>
      </cc:Work>
    </rdf:RDF>
  </metadata>
  <g
     inkscape:label="Layer 1"
     inkscape:groupmode="layer"
     id="layer1"
     transform="translate(0,-924.36216)">
    <rect
       style="fill:#682b4a;fill-opacity:1;stroke:none;stroke-width:4;stroke-linecap:round;stroke-linejoin:round;stroke-miterlimit:4;stroke-dasharray:none;stroke-opacity:1"
       id="rect4182"
       width="256"
       height="128"
       x="0"
       y="924.36218"
       ry="0" />
    <path
       style="fill:#d8dbdd;fill-opacity:1"
       d="m 147.02474,928.36623 c -0.19204,-0.11869 -0.36266,2.25665 -0.38086,5.27929 -0.0182,3.02263 -0.10611,6.95789 -0.19531,8.74414 -0.0892,1.78626 -0.33184,3.45905 -0.53906,3.7168 -0.20721,0.25775 -0.60438,1.86308 -0.88086,3.56641 -0.27648,1.70334 -0.78006,4.30307 -1.11914,5.77929 -0.33909,1.47623 -0.70306,3.14902 -0.8086,3.7168 -0.10555,0.56778 -0.6831,2.42557 -1.28515,4.12891 -0.60206,1.70334 -1.57372,3.84156 -2.15821,4.75 -0.5845,0.90846 -1.65448,2.95123 -2.37695,4.54101 -0.72247,1.58979 -1.87606,4.34344 -2.56445,6.11914 -0.68838,1.77572 -1.51673,3.49525 -1.8418,3.82032 -0.32507,0.32508 -0.69835,0.59179 -0.82812,0.59179 -0.1298,0 -0.23633,-0.43071 -0.23633,-0.95508 0,-0.52437 -0.23375,-1.27447 -0.52149,-1.66796 l -0.52344,-0.71485 -0.84374,0.78516 -0.84376,0.78711 -0.94726,-0.76758 c -0.52088,-0.42179 -1.1149,-0.66285 -1.31836,-0.53711 -0.20346,0.12574 -0.36914,0.83645 -0.36914,1.58008 0,0.74364 -0.11143,1.46299 -0.24805,1.59961 -0.13663,0.13663 -1.98997,-3.2046 -4.11719,-7.42578 -2.12722,-4.22118 -4.20785,-8.06442 -4.625,-8.54102 -0.41713,-0.47661 -1.23639,-1.61745 -1.82031,-2.53516 -0.58393,-0.91772 -1.57066,-2.86897 -2.19336,-4.33593 -0.62269,-1.46695 -2.04856,-5.26965 -3.16797,-8.44922 l -2.03515,-5.78125 -0.59571,-5.16016 c -0.32784,-2.83889 -0.59956,-6.21923 -0.60156,-7.51172 -0.002,-1.29371 -0.21249,-2.4803 -0.46875,-2.63867 -0.34275,-0.21183 -0.39196,1.71399 -0.18554,7.30469 0.15419,4.17606 0.27834,8.24417 0.27734,9.03906 -0.001,0.7949 0.46091,3.15187 1.02734,5.23828 0.56642,2.08642 1.86939,5.92833 2.89453,8.53711 1.02513,2.60879 2.41085,5.49998 3.08008,6.42383 0.66923,0.92384 1.2168,1.84061 1.2168,2.03906 0,0.19845 0.35296,0.80851 0.7832,1.35547 0.43025,0.54696 1.9121,3.18789 3.29492,5.86719 1.38283,2.67933 2.8896,5.34736 3.34766,5.92969 0.45805,0.58232 0.83398,1.36981 0.83398,1.75 0,0.38019 0.27202,1.05133 0.60547,1.49218 0.33344,0.44085 0.61214,0.92595 0.61914,1.07618 0.007,0.15026 -0.21806,0.23636 -0.50195,0.19336 -0.28389,-0.0431 -0.79605,-0.25807 -1.13672,-0.47852 -0.34066,-0.22045 -1.6415,-0.92672 -2.89062,-1.57031 -1.24911,-0.64358 -3.29083,-1.55732 -4.53711,-2.0293 -1.24629,-0.47199 -3.0106,-1.5727 -3.92188,-2.44727 -0.91128,-0.87458 -1.93667,-1.89719 -2.27734,-2.27148 -0.34067,-0.3743 -1.19787,-1.34671 -1.90625,-2.16211 -0.70839,-0.81541 -1.96249,-2.5429 -2.78711,-3.83789 -0.82462,-1.29498 -1.5,-2.52503 -1.5,-2.73242 0,-0.20739 -0.3652,-0.84007 -0.81055,-1.40625 -0.44535,-0.56616 -1.17817,-2.03129 -1.6289,-3.25586 -0.45072,-1.22458 -1.317292,-3.99088 -1.925789,-6.14844 -0.608503,-2.15757 -1.341705,-4.85272 -1.628907,-5.98828 l -0.521484,-2.06445 -0.04492,1.25 c -0.02511,0.6873 0.144931,2.77655 0.378906,4.64258 0.233983,1.86603 0.805003,4.6489 1.269532,6.18359 0.464537,1.53469 1.320271,3.9955 1.90039,5.4707 0.580122,1.4752 1.619502,3.70689 2.310552,4.95703 0.69105,1.25014 1.91683,3.20038 2.72461,4.33594 0.80777,1.13556 1.70559,2.31122 1.99414,2.61133 0.28854,0.30011 0.52539,0.68909 0.52539,0.86523 0,0.17615 0.3252,0.6799 0.72266,1.11914 0.39743,0.43925 1.69776,1.48938 2.89062,2.33399 1.19287,0.84462 2.3576,1.53711 2.58789,1.53711 0.2303,0 2.1827,0.82294 4.33789,1.83008 2.15521,1.00712 4.18843,2.10249 4.51953,2.43359 l 0.60157,0.60156 -2.10352,0.90625 c -1.15763,0.49801 -2.3682,1.12218 -2.68945,1.38672 -0.32125,0.26455 -0.80708,0.71511 -1.08008,1.00195 -0.27301,0.28683 -1.93828,1.73238 -3.69922,3.21289 l -3.20117,2.6915 -3.61133,5.4707 c -1.98641,3.0085 -3.92924,6.0223 -4.31641,6.6972 -0.38717,0.6748 -1.37361,2.5004 -2.19336,4.0567 -0.819748,1.5564 -1.4027,2.9175 -1.294921,3.0254 0.107786,0.1077 0.985456,-0.9791 1.951171,-2.4161 0.96571,-1.437 2.69803,-3.8205 3.84766,-5.2968 1.14964,-1.4762 2.65077,-3.3102 3.33789,-4.0743 0.68712,-0.7641 2.15796,-2.2966 3.26758,-3.4062 1.10961,-1.1096 2.11113,-2.0176 2.22656,-2.0176 0.11544,0 0.7442,-0.8787 1.53209,-1.7303 l 1.11077,-1.03675 c 0.32174,-0.38992 1.12825,-1.02268 1.59738,-1.38895 0.26227,-0.23551 0.5841,-0.58822 1.1289,-0.97293 l 1.12305,-0.79297 -1.00195,1.10351 c -0.5506,0.60631 -0.98265,0.98438 -1.13477,1.10157 -0.38642,0.32856 -0.8831,0.73141 -1.42439,1.12137 l -0.87974,1.01415 c -0.5938,0.7949 -1.77029,2.6956 -2.54743,4.3098 -0.77716,1.6143 -1.63213,3.7506 -1.90039,4.7481 -0.26826,0.9975 -1.06887,3.4872 -1.77735,5.5312 l -1.28711,3.7149 0.0312,4.5429 c 0.0175,2.4982 0.4294,7.1447 0.91602,10.3243 0.48662,3.1795 1.17101,6.9885 1.51953,8.4648 0.34853,1.4762 0.93227,3.4742 1.29688,4.4395 0.36461,0.9652 0.75415,1.7539 0.86523,1.7539 0.11107,0 0.0728,-0.6037 -0.084,-1.3418 -0.15678,-0.7381 -0.3725,-1.7138 -0.47852,-2.168 -0.10601,-0.4542 -0.468,-3.5214 -0.80469,-6.8145 -0.3367,-3.2931 -0.71737,-7.8441 -0.84765,-10.1152 l -0.23829,-4.1309 2.10157,-7.2988 c 1.15561,-4.0146 2.10156,-7.5626 2.10156,-7.8847 0,-0.3222 0.39061,-0.9384 0.86914,-1.3711 0.47854,-0.4326 1.14923,-1.4843 1.49023,-2.336 0.34103,-0.8516 0.82624,-1.4154 0.94727,-1.5488 0.20247,-0.2232 0.50165,-0.6021 0.93276,-1.2829 l 0.96373,-1.1937 0,3.4903 0,3.4882 1.52343,2.2129 c 0.83844,1.2174 2.22263,2.6052 3.07617,3.0821 0.85354,0.4768 2.40131,0.9911 3.43946,1.1445 1.04073,0.1539 2.63373,0.079 3.55078,-0.168 0.91478,-0.2463 2.27963,-0.8674 3.03125,-1.3789 0.79246,-0.5393 1.87961,-1.9453 2.58789,-3.3476 0.90211,-1.786 1.23459,-3.0527 1.27539,-4.8477 0.0303,-1.3366 0.1634,-2.4336 0.29492,-2.4336 0.13152,0 0.68277,0.9428 1.22461,2.0996 0.54185,1.1569 1.27878,2.3175 1.63867,2.5801 0.35989,0.2625 1.14851,1.8708 1.75196,3.5742 0.60345,1.7033 1.82809,5.6994 2.72265,8.8789 0.89454,3.1796 1.95334,7.4541 2.35156,9.4981 0.49793,2.5557 0.7501,6.0711 0.8086,11.2597 0.0468,4.1496 0.19082,7.6519 0.32031,7.7813 0.12948,0.1295 0.38258,-0.6641 0.5625,-1.7637 0.17992,-1.0996 0.3338,-5.1586 0.3418,-9.0195 0.007,-3.8608 -0.0956,-8.9708 -0.22852,-11.3555 l -0.24219,-4.3359 -2.13281,-6.2422 c -1.17299,-3.4337 -2.13281,-6.5061 -2.13281,-6.8262 0,-0.3201 -0.62596,-1.8905 -1.39258,-3.4902 -0.83329,-1.7388 -2.569,-4.2244 -4.31445,-6.18169 -1.60578,-1.8006 -2.73781,-3.33781 -2.51563,-3.41601 0.22216,-0.0781 1.03938,0.34287 1.81641,0.93554 0.77702,0.59266 1.56131,1.03472 1.74219,0.98242 0.18088,-0.0523 1.92779,1.5271 3.88281,3.50984 1.95502,1.9827 4.65017,5.2271 5.98828,7.2109 1.3381,1.9839 3.00936,4.3514 3.71289,5.2598 0.70353,0.9085 1.90743,2.8129 2.67578,4.2324 0.76833,1.4194 1.53407,2.5801 1.70313,2.5801 0.16907,0 0.14558,-0.4275 -0.0527,-0.9492 -0.19833,-0.5216 -1.39179,-3.0766 -2.65234,-5.6778 -1.26055,-2.6011 -3.39442,-6.4013 -4.74219,-8.4453 -1.34776,-2.044 -2.90166,-4.1802 -3.45312,-4.748 -0.55144,-0.56787 -1.40199,-1.60704 -1.88867,-2.30867 -0.48669,-0.70164 -1.54187,-1.724 -2.34571,-2.27149 -0.80386,-0.54747 -1.47223,-1.18109 -1.48633,-1.4082 -0.0141,-0.22711 -0.52667,-0.79696 -1.13867,-1.26563 -0.61199,-0.46867 -1.71697,-1.07235 -2.45508,-1.34179 -0.73811,-0.26945 -1.88459,-0.69072 -2.54687,-0.9375 l -1.20313,-0.44922 0.67579,-0.78906 c 0.37208,-0.43456 0.81362,-0.79102 0.98046,-0.79102 0.16684,0 2.40199,-0.957 4.9668,-2.12695 2.92895,-1.33606 5.07856,-2.60261 5.78125,-3.40625 0.61533,-0.70371 1.12772,-1.4746 1.13672,-1.71289 0.009,-0.2383 0.99125,-1.9406 2.18359,-3.78321 1.19233,-1.84262 2.77165,-4.31837 3.50977,-5.5 0.73811,-1.18162 1.3418,-2.47628 1.3418,-2.8789 0,-0.40262 0.44373,-2.28648 0.98632,-4.18555 0.54257,-1.89908 1.2904,-4.84745 1.66016,-6.55078 0.36976,-1.70334 0.92411,-4.67502 1.23242,-6.60547 0.30831,-1.93045 0.49421,-3.58603 0.41211,-3.67773 -0.0821,-0.0916 -0.43888,0.52247 -0.79101,1.36523 -0.35213,0.84275 -1.1846,3.89076 -1.84961,6.77344 -0.665,2.88268 -1.68662,6.62857 -2.27149,8.32422 -0.58488,1.69565 -1.20971,3.18344 -1.38867,3.30468 -0.17896,0.12125 -0.86415,1.24308 -1.52148,2.49219 -0.65733,1.24912 -2.25906,3.84885 -3.56055,5.7793 -1.30147,1.93046 -2.69943,3.91185 -3.10742,4.40234 -0.408,0.49049 -1.57957,1.17565 -2.60156,1.52149 -1.02201,0.34583 -2.99405,1.18515 -4.38282,1.86523 -1.38878,0.68006 -2.63633,1.52749 -2.77344,1.88477 -0.1371,0.35728 -0.4546,0.65039 -0.70507,0.65039 -0.25045,0 -0.16353,-0.29155 0.19336,-0.64844 0.35689,-0.35689 0.64843,-0.91579 0.64843,-1.24023 0,-0.32445 0.17297,-0.58985 0.38477,-0.58985 0.21181,0 0.51425,-0.41673 0.67187,-0.92773 0.15761,-0.511 1.64288,-3.71637 3.29883,-7.12305 1.65594,-3.40668 3.37811,-7.49616 3.82813,-9.08594 0.45002,-1.58979 1.20612,-4.56146 1.67968,-6.60547 0.47357,-2.044 1.24466,-5.55465 1.7129,-7.80078 l 0.8496,-4.08398 -0.28906,-9.86719 c -0.15913,-5.42717 -0.44661,-9.9653 -0.63864,-10.08398 z"
       id="path4156"
       inkscape:connector-curvature="0"
       sodipodi:nodetypes="csccsscsssscsscccccsssscsscccccscssssssssccccssssssscsscccssssscscsscsccccscccccscsssccccccccccscccsccsccscccsccsccccccccscccccccsscsccccssscscscccsccsssccsccccssccssscsscssscssscccsssscssscccc" />
  </g>
</svg>
