<?xml version="1.0" encoding="UTF-8" standalone="no"?>
<!-- Created with Inkscape (http://www.inkscape.org/) -->

<svg
   xmlns:dc="http://purl.org/dc/elements/1.1/"
   xmlns:cc="http://creativecommons.org/ns#"
   xmlns:rdf="http://www.w3.org/1999/02/22-rdf-syntax-ns#"
   xmlns:svg="http://www.w3.org/2000/svg"
   xmlns="http://www.w3.org/2000/svg"
   xmlns:sodipodi="http://sodipodi.sourceforge.net/DTD/sodipodi-0.dtd"
   xmlns:inkscape="http://www.inkscape.org/namespaces/inkscape"
   width="256"
   height="128"
   viewBox="0 0 256 128"
   id="svg2"
   version="1.1"
   inkscape:version="0.91 r13725"
   sodipodi:docname="house_baratheon.svg"
   inkscape:export-filename="C:\Users\Greene\Documents\Firaxis ModBuddy\XCOM\Game of Thrones\imageSource\UIhouse_baratheon.png"
   inkscape:export-xdpi="45"
   inkscape:export-ydpi="45">
  <defs
     id="defs4" />
  <sodipodi:namedview
     id="base"
     pagecolor="#ffffff"
     bordercolor="#666666"
     borderopacity="1.0"
     inkscape:pageopacity="0.0"
     inkscape:pageshadow="2"
     inkscape:zoom="2.8"
     inkscape:cx="102.7477"
     inkscape:cy="97.76644"
     inkscape:document-units="px"
     inkscape:current-layer="layer1"
     showgrid="false"
     units="px"
     showborder="true"
     inkscape:window-width="1920"
     inkscape:window-height="1138"
     inkscape:window-x="-8"
     inkscape:window-y="-8"
     inkscape:window-maximized="1"
     inkscape:snap-nodes="false" />
  <metadata
     id="metadata7">
    <rdf:RDF>
      <cc:Work
         rdf:about="">
        <dc:format>image/svg+xml</dc:format>
        <dc:type
           rdf:resource="http://purl.org/dc/dcmitype/StillImage" />
        <dc:title />
      </cc:Work>
    </rdf:RDF>
  </metadata>
  <g
     inkscape:label="Layer 1"
     inkscape:groupmode="layer"
     id="layer1"
     transform="translate(0,-924.36216)">
    <rect
       style="fill:#d5b802;fill-opacity:1;stroke:none;stroke-width:4;stroke-linecap:round;stroke-linejoin:round;stroke-miterlimit:4;stroke-dasharray:none;stroke-opacity:1"
       id="rect4182"
       width="256"
       height="128"
       x="0"
       y="924.36218"
       ry="0" />
    <path
       style="fill:#000000"
       d="m 163.97628,927.01388 1.56239,2.30184 c 0.8591,1.26596 1.7257,2.95561 1.92625,3.75469 0.20078,0.79907 0.20239,1.87592 0.004,2.39314 -0.19847,0.51721 -0.87924,0.94029 -1.51283,0.94029 -0.6336,0 -1.69872,-0.41394 -2.36705,-0.91943 -0.66832,-0.5055 -1.57199,-0.92805 -2.00842,-0.93899 -0.43642,-0.0109 0.50122,1.22075 2.08275,2.73613 l 2.87437,2.75438 -0.20345,1.78409 -0.20344,1.78279 -1.27547,0.18259 -1.27548,0.18258 -1.49456,-1.59108 c -0.82209,-0.87507 -1.713,-1.59108 -1.97971,-1.59108 -0.26673,0 -0.0763,0.97744 0.42254,2.17144 0.49887,1.19397 0.9077,2.96208 0.9077,3.92944 0,0.96734 -0.43955,2.38434 -0.97552,3.14954 -0.53597,0.76521 -1.52191,1.39154 -2.19098,1.39154 l -1.21548,0 0.002,-2.03449 c 0.001,-1.11897 0.55932,-2.95 1.24157,-4.06898 l 1.24155,-2.03449 -0.86856,0 c -0.47758,0 -1.47773,0.91551 -2.22229,2.03449 l -1.35372,2.03449 0.41342,-1.46327 c 0.22713,-0.80496 0.40192,-2.86592 0.38863,-4.58021 l -0.0248,-3.11695 -1.28068,-2.64615 c -0.70441,-1.4551 -2.26546,-3.60011 -3.46908,-4.7667 -1.20363,-1.16661 -2.36737,-1.94158 -2.58614,-1.72281 -0.2188,0.2188 0.48147,1.59213 1.55585,3.05305 1.07438,1.46092 1.95364,3.17397 1.95364,3.80554 0,0.63158 -0.47021,1.32891 -1.04464,1.54934 l -1.04464,0.40039 -1.85712,-1.06681 c -1.02154,-0.58629 -2.01221,-0.91042 -2.20142,-0.7212 -0.18922,0.18921 0.72011,1.43473 2.02145,2.76743 l 2.36705,2.42313 -0.23996,1.16461 c -0.13187,0.6407 -0.65223,1.11956 -1.15549,1.06421 -0.50326,-0.0554 -1.82974,-0.30184 -2.94871,-0.54776 l -2.03449,-0.44732 0.0131,0.54775 c 0.007,0.30125 0.92297,0.97029 2.03447,1.48674 1.11153,0.51645 2.39128,1.71856 2.84308,2.67092 l 0.82163,1.73192 -0.39908,1.25592 -0.39907,1.25721 -1.4947,-0.19954 c -0.82191,-0.11002 -1.65611,-0.36107 -1.85323,-0.55818 -0.19711,-0.19711 -0.0957,-1.52406 0.22432,-2.94871 l 0.58166,-2.59137 -0.50732,-0.313 c -0.27885,-0.17233 -1.00379,1.02679 -1.61064,2.66441 -0.60685,1.63761 -1.15371,3.05406 -1.21548,3.14824 -0.0618,0.0941 -0.57541,-0.006 -1.14114,-0.22301 l -1.02768,-0.39516 0,-2.45704 c 0,-1.35142 -0.41481,-3.44973 -0.92203,-4.66368 -0.50723,-1.21397 -1.51511,-3.03898 -2.23925,-4.05594 -0.72416,-1.01697 -1.58249,-1.68582 -1.90669,-1.48544 l -0.58948,0.36386 1.18156,1.67846 c 0.64967,0.92264 1.38759,2.33949 1.63934,3.14954 0.25176,0.81005 0.45777,2.48428 0.45777,3.71948 l 0,2.24575 -1.06291,0.77599 c -0.58433,0.42724 -1.4326,0.63508 -1.88451,0.46167 -0.45191,-0.17341 -0.98359,-0.9287 -1.18287,-1.67846 -0.19928,-0.74977 -1.32578,-2.48964 -2.50269,-3.86684 -1.17691,-1.37719 -2.35274,-2.29452 -2.61223,-2.0384 -0.2595,0.25611 -0.0314,0.96035 0.50602,1.56499 0.53743,0.60463 1.43099,2.19943 1.98623,3.54341 0.55526,1.34397 0.9357,2.4756 0.8451,2.51573 -0.0906,0.0401 -1.15027,0.44427 -2.35532,0.89726 -1.20504,0.45297 -2.61354,0.94691 -3.12998,1.0981 -0.51645,0.1512 -1.87398,-0.30297 -3.01653,-1.00942 l -2.07753,-1.2846 -1.48544,-3.26953 -1.48675,-3.26954 -0.0365,1.76323 c -0.0199,0.96945 0.27951,2.37795 0.66513,3.12999 0.3856,0.75203 1.56876,2.28228 2.62788,3.40126 1.05913,1.11897 1.76394,2.03449 1.56629,2.03449 -0.19764,0 -1.45121,-0.44796 -2.78437,-0.99508 -1.33318,-0.54712 -3.47951,-2.01225 -4.77064,-3.25649 l -2.34748,-2.26272 0,0.85031 c 0,0.46776 0.66858,1.72866 1.48675,2.80134 0.81817,1.07267 2.91697,2.61966 4.66367,3.43777 1.7467,0.81811 3.32166,1.86872 3.50037,2.33445 l 0.32604,0.8464 -0.91943,0 c -0.50564,0 -0.91943,-0.27652 -0.91943,-0.61426 0,-0.33773 -0.77469,-0.80378 -1.72149,-1.03551 -0.94682,-0.23172 -1.91759,-0.72158 -2.1571,-1.08896 -0.23949,-0.3674 -0.65676,-0.44655 -0.92725,-0.17607 -0.27048,0.27047 -0.0227,1.30855 0.55036,2.30706 l 1.04203,1.81539 -3.5382,2.21317 c -1.94595,1.2172 -4.0202,2.21315 -4.60891,2.21315 -0.58869,0 -1.50155,0.43085 -2.02797,0.95727 -0.5264,0.5264 -0.79687,1.3715 -0.60252,1.87798 0.19436,0.50649 0.88586,0.92074 1.53761,0.92074 2.10891,0.72082 3.58188,1.17719 6.03697,0.68338 1.46325,-0.28306 2.66049,-0.29126 2.66049,-0.0183 0,0.273 -1.04965,1.36125 -2.33315,2.41922 -1.28349,1.05795 -2.62156,1.91325 -2.97349,1.90016 -1.90363,1.60516 -3.01579,2.06581 -3.58515,4.30635 l -1.84667,0.76554 -1.84671,0.76423 0.31822,0.82945 c 0.17506,0.45622 0.0293,1.00791 -0.32343,1.22591 -0.35272,0.218 -0.49975,0.76491 -0.32735,1.21418 0.1724,0.44927 -0.21206,1.29163 -0.85422,1.87277 -0.64216,0.58115 -1.01652,1.45258 -0.83076,1.93668 l 0.33778,0.88032 -0.849,-0.007 c -0.46722,-0.005 -1.49501,-1.00444 -2.28489,-2.2236 l -1.437191,-2.21708 -1.29764,0.41212 c -0.71425,0.22669 -2.85589,1.862 -4.75888,3.63339 -1.902997,1.77143 -4.686507,4.48206 -6.185641,6.02393 -1.499138,1.54185 -2.725699,3.02072 -2.725699,3.28649 0,0.26568 0.918258,0.48253 2.041013,0.48253 l 2.041013,0 1.558472,-2.02014 c 0.856967,-1.11137 2.819272,-3.22418 4.361112,-4.69498 1.54184,-1.47082 3.13194,-2.67484 3.53298,-2.67484 0.40104,0 0.88578,0.4088 1.07724,0.9077 l 0.3482,0.90639 -0.82684,-0.31691 c -0.45452,-0.17442 -1.27764,0.1352 -1.82974,0.68728 l -1.0042,1.00291 0.32082,2.6318 c 0.17669,1.44744 0.44713,5.02624 0.59992,7.9528 0.15278,2.9265 0.30067,5.809 0.32864,6.4047 0.028,0.5957 0.25334,1.2073 0.50081,1.3603 0.24746,0.1529 1.12598,-0.7086 1.95233,-1.9146 l 1.502391,-2.1923 -0.5934,-0.4199 c -0.32634,-0.2313 -0.680541,-2.7453 -0.787711,-5.58572 -0.10711,-2.84046 -0.0406,-5.16448 0.14868,-5.16448 0.18927,0 1.549241,0.6741 3.021741,1.49848 l 2.67745,1.4998 0.20083,2.09969 c 0.11062,1.15533 0.46275,2.36863 0.78249,2.69573 l 0.58167,0.5947 0.0222,-0.9077 0.0222,-0.9077 1.54021,1.87803 1.53891,1.87797 0.004,-0.8999 0.002,-0.8999 1.788,1.7124 c 0.98302,0.9418 2.03939,1.6297 2.3475,1.5285 0.3081,-0.1015 2.90782,1.0382 5.77743,2.5326 l 5.21665,2.7179 -0.49688,1.6628 c -0.27387,0.9143 -0.49692,2.6728 -0.49559,3.9086 l 0.002,2.2471 1.67193,3.3777 1.67194,3.3792 -0.63121,0.6311 c -0.34724,0.3472 -2.86297,0.733 -5.58964,0.8568 l -4.95712,0.2244 -0.72511,0.8737 c -0.39882,0.4807 -1.11287,0.8738 -1.58717,0.8738 -0.47429,0 -0.86336,0.4003 -0.86336,0.8895 l 0,0.8894 1.86365,0.4095 c 1.0245,0.2254 2.2065,0.1952 2.62789,-0.065 0.42138,-0.2605 1.34415,-0.5605 2.05014,-0.6677 0.70599,-0.1066 3.60494,-0.4284 6.44126,-0.7134 2.83631,-0.285 5.3383,-0.7007 5.56094,-0.9234 0.22264,-0.2226 0.053,-1.2536 -0.37691,-2.2914 -0.42985,-1.0377 -0.59596,-2.3705 -0.36907,-2.9617 l 0.41342,-1.0746 1.4424,3.0987 c 0.79391,1.704 2.49741,4.4715 3.78468,6.1503 l 2.33967,3.0531 -0.21258,6.1309 -0.21258,6.1322 -1.4085,1.4985 c -0.77466,0.8237 -1.40849,1.9718 -1.40849,2.5522 0,0.5798 0.40045,1.0542 0.88813,1.0551 0.48846,-3e-4 1.3325,-0.1707 1.87669,-0.3795 0.54461,-0.209 0.98986,-0.752 0.98986,-1.2064 0,-0.4543 0.43551,-0.9177 0.96768,-1.029 l 0.9677,-0.2021 0.23606,-4.5451 c 0.12994,-2.4997 0.70402,-5.9519 1.27545,-7.6724 l 1.03942,-3.1286 -1.61716,-1.9211 -1.61715,-1.9223 0,-3.5825 0,-3.5826 1.70584,-2.6292 c 0.93767,-1.446 1.92361,-2.6291 2.19099,-2.6291 0.26737,0 0.48514,0.5472 0.48514,1.2154 0,0.6684 0.28171,1.3888 0.626,1.6015 0.3443,0.2128 0.626,0.086 0.626,-0.2817 l 0,-0.6677 1.23634,0.7721 1.23635,0.7721 0.76685,-0.7669 0.76685,-0.7669 -0.96379,0 -0.96508,0 -0.78509,-3.5094 c -0.432,-1.9304 -1.19364,-4.4855 -1.6915,-5.677 -0.49788,-1.1916 -2.09005,-3.4513 -3.5382,-5.0224 -1.44813,-1.571 -5.38742,-4.81009 -8.75483,-7.19761 l -6.12304,-4.34026 -2.48573,-3.14564 c -1.36749,-1.73002 -2.48704,-3.52023 -2.48704,-3.97768 -0.30356,-3.29561 1.81509,-5.35299 3.07262,-7.03726 1.03342,-1.29111 2.44994,-3.64427 3.14824,-5.22969 0.69828,-1.58543 1.38616,-4.37413 1.52848,-6.19607 l 0.25821,-3.31257 2.09449,-0.88031 2.09318,-0.88031 -2.79351,-1.25069 c -1.53642,-0.68788 -2.99448,-1.57408 -3.23954,-1.97059 -0.24505,-0.3965 -0.2882,-0.97573 -0.0966,-1.2859 l 0.3482,-0.5634 7.31243,0.4395 7.31374,0.43951 2.62528,-0.78771 c 1.44455,-0.4328 2.62657,-1.03087 2.62657,-1.33025 l 0,-0.54515 3.91249,0.39126 3.91249,0.39125 3.68165,-1.38763 c 2.02475,-0.76359 4.81658,-2.41126 6.20389,-3.66079 1.38731,-1.24953 3.07357,-3.51321 3.74686,-5.03014 0.67328,-1.51693 1.20963,-3.80598 1.19201,-5.08754 -0.0177,-1.28156 -0.4635,-3.36088 -0.98987,-4.62065 -0.52635,-1.25975 -1.85954,-3.54831 -2.96305,-5.08492 -1.1035,-1.5366 -2.3732,-2.79351 -2.8209,-2.79351 z m -9.50082,22.04033 c 0.048,-0.01 0.0744,0.017 0.0744,0.0848 0,0.27139 -0.29177,1.03858 -0.64817,1.70453 l -0.64687,1.21026 -1.70063,-0.0848 -1.69931,-0.0848 1.40327,-0.27127 c 0.77166,-0.14881 1.82802,-0.8768 2.34749,-1.61846 0.38961,-0.55625 0.72598,-0.91182 0.86987,-0.9403 z m -19.29245,2.99957 1.38893,0.0365 c 0.76387,0.0199 2.48644,0.23113 3.82771,0.46949 1.34126,0.2384 2.46807,0.6864 2.50399,0.99639 0.0359,0.30999 -0.49819,0.60822 -1.18678,0.6625 -0.6886,0.0543 -2.28443,-0.002 -3.54603,-0.1278 l -2.2927,-0.22823 -0.34692,-0.90378 z m -2.35271,0.22431 c 0.14819,-0.007 0.25258,0.01 0.29996,0.0574 0.18948,0.18949 0.22692,0.45234 0.0835,0.58427 -0.14346,0.13194 -1.24678,0.41024 -2.45183,0.61818 l -2.19099,0.3782 2.10752,-0.96247 c 0.86927,-0.39701 1.7073,-0.65248 2.15187,-0.67556 z"
       id="path4150"
       inkscape:connector-curvature="0"
       sodipodi:nodetypes="ccccssscccccccsssssccccsscccccscsscccccccccccssccccccccscccssscccssccssssscssccccccssssccsssccsssssccssssccsscccccsssccccccssssccssccccccscccccssccccccccccccccccccccccccsscccccccccccccccscssccccccccccsscsccccccccsscccccsccccsccccccsccccsscssscsscccccssccsccccccscccccs" />
  </g>
</svg>
