<?xml version="1.0" encoding="UTF-8" standalone="no"?>
<!-- Created with Inkscape (http://www.inkscape.org/) -->

<svg
   xmlns:dc="http://purl.org/dc/elements/1.1/"
   xmlns:cc="http://creativecommons.org/ns#"
   xmlns:rdf="http://www.w3.org/1999/02/22-rdf-syntax-ns#"
   xmlns:svg="http://www.w3.org/2000/svg"
   xmlns="http://www.w3.org/2000/svg"
   xmlns:sodipodi="http://sodipodi.sourceforge.net/DTD/sodipodi-0.dtd"
   xmlns:inkscape="http://www.inkscape.org/namespaces/inkscape"
   width="256"
   height="128"
   viewBox="0 0 256 128"
   id="svg2"
   version="1.1"
   inkscape:version="0.91 r13725"
   sodipodi:docname="house_lannister.svg"
   inkscape:export-filename="C:\Users\Greene\Documents\Firaxis ModBuddy\XCOM\Game of Thrones\imageSource\house_lannister.png"
   inkscape:export-xdpi="90"
   inkscape:export-ydpi="90">
  <defs
     id="defs4" />
  <sodipodi:namedview
     id="base"
     pagecolor="#ffffff"
     bordercolor="#666666"
     borderopacity="1.0"
     inkscape:pageopacity="0.0"
     inkscape:pageshadow="2"
     inkscape:zoom="2.8"
     inkscape:cx="101.29855"
     inkscape:cy="103.362"
     inkscape:document-units="px"
     inkscape:current-layer="layer1"
     showgrid="false"
     units="px"
     showborder="true"
     inkscape:window-width="1920"
     inkscape:window-height="1138"
     inkscape:window-x="-8"
     inkscape:window-y="-8"
     inkscape:window-maximized="1"
     inkscape:snap-nodes="false" />
  <metadata
     id="metadata7">
    <rdf:RDF>
      <cc:Work
         rdf:about="">
        <dc:format>image/svg+xml</dc:format>
        <dc:type
           rdf:resource="http://purl.org/dc/dcmitype/StillImage" />
        <dc:title />
      </cc:Work>
    </rdf:RDF>
  </metadata>
  <g
     inkscape:label="Layer 1"
     inkscape:groupmode="layer"
     id="layer1"
     transform="translate(0,-924.36216)">
    <rect
       style="fill:#8b0800;fill-opacity:1;stroke:none;stroke-width:4;stroke-linecap:round;stroke-linejoin:round;stroke-miterlimit:4;stroke-dasharray:none;stroke-opacity:1"
       id="rect4182"
       width="256"
       height="128"
       x="0"
       y="924.36218"
       ry="0" />
    <path
       style="fill:#d2a202;fill-opacity:1"
       d="m 130.29575,1048.3616 c -0.25011,-0 -0.67202,-0.064 -0.93759,-0.1344 -0.28968,-0.077 -0.66651,-0.3317 -0.94198,-0.6366 -0.34117,-0.3777 -0.45915,-0.625 -0.45915,-0.9626 0,-0.2812 -0.0991,-0.5535 -0.25986,-0.7143 -0.17247,-0.1724 -0.4331,-0.2598 -0.775,-0.2598 l -0.51515,0 -0.14486,0.2707 c -0.10735,0.2005 -0.10474,0.4379 0.0101,0.9165 0.0852,0.3552 0.12183,0.6789 0.0814,0.7194 -0.0405,0.041 -0.2094,0.039 -0.37543,-0 -0.16604,-0.042 -0.5488,-0.2872 -0.85059,-0.5455 l -0.54872,-0.4697 -0.002,-1.3866 c -9.1e-4,-0.7626 -0.037,-1.5181 -0.0801,-1.6789 -0.0431,-0.1608 -0.15717,-0.2924 -0.25351,-0.2924 -0.0963,0 -0.24476,0.1301 -0.32983,0.289 -0.0851,0.159 -0.14613,0.5067 -0.13571,0.7727 0.0104,0.266 -0.0451,0.5232 -0.12327,0.5715 -0.0782,0.048 -0.29694,-0.067 -0.48603,-0.2562 l -0.3438,-0.3441 0.005,-0.8088 0.005,-0.8087 0.32461,-0.5198 c 0.17854,-0.2858 0.43634,-0.7828 0.57289,-1.1044 0.13655,-0.3215 0.41306,-0.8307 0.61448,-1.1315 0.24606,-0.3675 0.80231,-0.8328 1.69539,-1.4184 0.73105,-0.4793 1.91387,-1.252 2.62848,-1.7172 0.71461,-0.4651 1.7156,-1.265 2.22443,-1.7776 0.64659,-0.6514 1.06742,-1.2216 1.39764,-1.8937 0.32951,-0.6707 0.51736,-1.284 0.62081,-2.027 l 0.14834,-1.0652 -0.21419,-0.3269 c -0.11781,-0.1798 -0.2142,-0.4719 -0.2142,-0.6491 0,-0.1772 -0.14629,-0.4862 -0.32509,-0.6867 l -0.3251,-0.3645 -0.27042,0.3573 c -0.14873,0.1965 -0.32401,0.3573 -0.38951,0.3573 -0.0655,0 -0.11909,-0.172 -0.11909,-0.3822 0,-0.2101 0.0585,-0.4182 0.12992,-0.4624 0.0715,-0.044 0.12993,-0.1847 0.12993,-0.3123 0,-0.1277 -0.11458,-0.3358 -0.25462,-0.4625 -0.17325,-0.1568 -0.3601,-0.204 -0.58468,-0.1476 -0.22064,0.055 -0.33517,0.028 -0.34545,-0.082 -0.008,-0.091 -0.005,-0.2427 0.008,-0.3377 0.0129,-0.095 -0.0692,-0.3144 -0.1825,-0.4873 -0.11329,-0.1729 -0.28518,-0.3144 -0.38197,-0.3144 -0.0968,0 -0.24878,0.088 -0.33774,0.1949 -0.089,0.1072 -0.24893,0.1949 -0.35548,0.1949 l -0.19374,0 0.0853,-0.5686 0.0853,-0.5687 -0.21108,-0.081 c -0.11609,-0.045 -0.34981,-0.081 -0.51938,-0.081 l -0.30831,0 -0.081,-0.4872 c -0.0445,-0.268 -0.1022,-0.5561 -0.12815,-0.6403 -0.026,-0.084 -0.21141,-0.1719 -0.41214,-0.1949 l -0.36498,-0.042 -0.0722,-0.5197 c -0.0397,-0.2858 -0.15609,-0.6513 -0.25863,-0.812 -0.10254,-0.1608 -0.25296,-0.2924 -0.33428,-0.2924 -0.0813,0 -0.41135,0.307 -0.7334,0.6821 -0.32205,0.3752 -1.04747,1.0273 -1.61202,1.4492 -0.59985,0.4483 -1.25246,1.0807 -1.57019,1.5217 -0.29904,0.4151 -0.88165,1.02 -1.29469,1.3443 -0.41303,0.3242 -0.79482,0.5895 -0.84842,0.5896 -0.0536,0 -0.0975,-0.063 -0.0975,-0.1411 0,-0.078 0.35081,-0.5065 0.77958,-0.953 0.42877,-0.4465 0.77957,-0.8868 0.77957,-0.9784 0,-0.1107 -0.098,-0.1387 -0.29234,-0.083 -0.16078,0.046 -0.55544,0.1355 -0.87702,0.1995 -0.32157,0.064 -0.8321,0.071 -1.1345,0.015 -0.3024,-0.056 -0.64108,-0.1772 -0.7526,-0.2698 -0.11153,-0.093 -0.15645,-0.2136 -0.0998,-0.269 0.0566,-0.055 0.47419,-0.014 0.92792,0.091 l 0.82496,0.1917 0.41553,-0.3169 c 0.22854,-0.1743 0.68116,-0.7177 1.00582,-1.2074 0.32466,-0.4898 0.62909,-0.9982 0.6765,-1.1299 0.0622,-0.1728 0.0137,-0.2584 -0.17418,-0.3075 -0.14322,-0.038 -0.2604,-0.1364 -0.2604,-0.2199 0,-0.083 0.11694,-0.4844 0.25986,-0.8911 0.14292,-0.4066 0.25986,-0.9506 0.25986,-1.2089 l 0,-0.4695 -0.42227,0.3564 -0.42227,0.3564 -0.0388,-0.2592 c -0.0213,-0.1426 0.17703,-0.7501 0.44083,-1.3501 0.35486,-0.8071 0.47964,-1.2696 0.47964,-1.7778 0,-0.3778 -0.0367,-0.7237 -0.0817,-0.7687 -0.0449,-0.045 -0.2037,0.073 -0.35281,0.263 -0.14911,0.1896 -0.32534,0.3447 -0.39161,0.3447 -0.0663,0 -0.1205,-0.082 -0.1205,-0.1833 0,-0.1007 0.17411,-0.5513 0.3869,-1.0013 0.2128,-0.45 0.48401,-1.2546 0.6027,-1.7881 l 0.2158,-0.9699 -0.1515,-0.419 c -0.11076,-0.3063 -0.11455,-0.5839 -0.0141,-1.0321 0.0756,-0.3373 0.34333,-1.1473 0.595,-1.8 0.25168,-0.6527 0.77613,-1.7893 1.16544,-2.5257 0.38931,-0.7365 0.70784,-1.3955 0.70784,-1.4645 0,-0.069 -0.14186,-0.1902 -0.31524,-0.2692 -0.17338,-0.079 -0.46465,-0.1061 -0.64726,-0.06 -0.18262,0.046 -0.53773,0.264 -0.78916,0.4847 -0.2627,0.2307 -0.45518,0.52 -0.45253,0.6803 0.003,0.1533 0.0882,0.425 0.19029,0.6037 0.10213,0.1786 0.18776,0.3979 0.19029,0.4872 0.003,0.089 -0.0749,0.1624 -0.17201,0.1624 -0.0971,0 -0.43332,-0.2041 -0.74709,-0.4535 -0.31377,-0.2494 -0.60809,-0.454 -0.65405,-0.4547 -0.0459,-5e-4 -0.14609,0.3537 -0.22252,0.7876 -0.0764,0.4338 -0.26482,0.9925 -0.41866,1.2414 -0.15383,0.2489 -0.58726,0.6848 -0.96316,0.9686 l -0.68345,0.516 -0.21106,0.7522 c -0.11608,0.4137 -0.21106,0.8709 -0.21106,1.0159 0,0.145 0.10692,0.3605 0.23761,0.4787 0.13068,0.1183 0.38901,0.2151 0.57405,0.2151 0.18505,0 0.42893,0.036 0.54197,0.079 0.11304,0.043 0.20552,0.1253 0.20552,0.1821 0,0.057 -0.18413,0.1675 -0.40917,0.246 -0.22505,0.078 -0.67818,0.1423 -1.00696,0.1419 -0.32877,-4e-4 -0.81756,-0.062 -1.08619,-0.1364 -0.26863,-0.075 -0.86793,-0.3954 -1.33177,-0.713 -0.5424,-0.3713 -0.84336,-0.5117 -0.84336,-0.3933 0,0.1012 0.17337,0.3574 0.38527,0.5693 0.21189,0.2119 0.88334,0.6648 1.4921,1.0065 0.60876,0.3417 1.29223,0.8014 1.51882,1.0215 0.2266,0.2201 0.52529,0.6547 0.66376,0.9658 0.13848,0.3112 0.33253,1.0645 0.43123,1.6742 0.0987,0.6097 0.26869,1.2448 0.37776,1.4112 0.10906,0.1665 0.1983,0.3924 0.1983,0.5021 0,0.1097 -0.10853,0.1995 -0.24117,0.1995 -0.13265,0 -0.51581,-0.2097 -0.85147,-0.466 -0.33566,-0.2563 -0.68657,-0.4367 -0.77979,-0.4009 -0.0932,0.036 -0.20271,0.2308 -0.24332,0.4335 -0.0406,0.2026 -0.25039,0.612 -0.46618,0.9098 -0.21579,0.2977 -0.79018,0.8003 -1.27642,1.1169 -0.48623,0.3166 -1.04485,0.7387 -1.24137,0.9381 -0.22745,0.2307 -0.35731,0.5021 -0.35731,0.7465 0,0.2113 0.11694,0.5328 0.25986,0.7145 0.14292,0.1817 0.25986,0.3809 0.25986,0.4427 0,0.062 -0.11174,0.1124 -0.24831,0.1124 -0.13657,0 -0.39465,-0.1739 -0.57352,-0.3865 -0.17886,-0.2125 -0.39702,-0.6041 -0.4848,-0.87 -0.10964,-0.3323 -0.13497,-0.9434 -0.0809,-1.9523 l 0.0787,-1.4686 -0.25057,0 c -0.13782,0 -0.46149,0.1852 -0.71927,0.4115 -0.33159,0.2911 -0.73078,0.9558 -1.36473,2.2723 -0.57629,1.1967 -1.09455,2.0771 -1.45229,2.4669 -0.32686,0.3562 -0.84741,0.7356 -1.26233,0.92 -0.38834,0.1725 -1.01795,0.5207 -1.39913,0.7737 -0.38117,0.2531 -0.91122,0.5113 -1.17789,0.5738 -0.29795,0.07 -0.74393,0.062 -1.15698,-0.021 -0.36968,-0.074 -0.73828,-0.2148 -0.81911,-0.3122 l -0.14696,-0.1771 0.73992,-0.1536 c 0.49333,-0.1024 0.84319,-0.265 1.04985,-0.488 l 0.30994,-0.3344 -0.0856,-0.9444 -0.0856,-0.9444 0.2771,-0.4697 c 0.15241,-0.2583 0.2771,-0.4955 0.2771,-0.5272 0,-0.032 -0.10341,-0.058 -0.22981,-0.058 -0.1264,0 -0.8134,0.5908 -1.52667,1.3128 l -1.29685,1.3128 -1.10287,0.5387 -1.10287,0.5387 -0.12134,0.3496 -0.12135,0.3496 0.35693,0.5394 c 0.1963,0.2966 0.32019,0.5761 0.27529,0.6209 -0.0449,0.045 -0.34363,-0.057 -0.66385,-0.2272 -0.32023,-0.1699 -0.75478,-0.5054 -0.96567,-0.7456 -0.21089,-0.2402 -0.41031,-0.5672 -0.44317,-0.7266 -0.0329,-0.1595 -0.0954,-0.5652 -0.13893,-0.9016 -0.0436,-0.3363 -0.1783,-0.7328 -0.29944,-0.8809 -0.121138,-0.1482 -0.424889,-0.3002 -0.675003,-0.3378 l -0.454752,-0.068 -0.292342,0.4603 c -0.178176,0.2805 -0.292342,0.6639 -0.292342,0.9818 0,0.2868 -0.04828,0.5215 -0.10728,0.5215 -0.059,0 -0.231619,-0.1324 -0.383588,-0.2941 -0.151965,-0.1618 -0.373593,-0.5272 -0.492501,-0.8121 -0.118914,-0.2848 -0.441688,-0.8013 -0.717276,-1.1476 -0.275594,-0.3463 -0.539627,-0.8352 -0.586749,-1.0864 -0.05757,-0.3068 -0.0166,-0.6015 0.124902,-0.8983 0.115821,-0.2428 0.433843,-0.6894 0.706721,-0.9924 0.272879,-0.303 0.76915,-0.9395 1.102824,-1.4145 0.333675,-0.4749 0.909964,-1.105 1.280637,-1.4001 0.370673,-0.2952 1.088289,-0.7404 1.594689,-0.9894 0.51886,-0.2551 1.54438,-0.5928 2.34952,-0.7736 0.78583,-0.1765 1.86749,-0.3588 2.40369,-0.4051 0.6058,-0.052 1.22983,-0.2028 1.64819,-0.3975 0.3703,-0.1724 0.85266,-0.5178 1.07192,-0.7675 0.21925,-0.2497 0.39863,-0.5283 0.39863,-0.6191 0,-0.091 -0.1223,-0.5273 -0.27178,-0.97 -0.14949,-0.4426 -0.31936,-0.8048 -0.37749,-0.8048 -0.0581,0 -0.34465,0.1996 -0.63667,0.4436 -0.29203,0.244 -0.78698,0.5414 -1.0999,0.6609 -0.31291,0.1195 -0.7049,0.1976 -0.87108,0.1736 l -0.30214,-0.044 0.39622,-0.4548 c 0.21792,-0.2501 0.46597,-0.5875 0.55122,-0.7498 0.0853,-0.1622 0.11842,-0.3542 0.0737,-0.4265 -0.05,-0.081 -0.25498,-0.024 -0.53256,0.1474 -0.24822,0.1535 -0.48696,0.2433 -0.53054,0.1997 -0.0436,-0.044 -0.007,-0.2365 0.08,-0.4288 0.0876,-0.1922 0.33097,-0.5663 0.54083,-0.8313 0.20986,-0.2649 0.38156,-0.5464 0.38156,-0.6254 0,-0.079 -0.0376,-0.1437 -0.0834,-0.1437 -0.0459,0 -0.38901,0.261 -0.76249,0.5801 -0.37347,0.319 -0.71223,0.5469 -0.7528,0.5063 -0.0406,-0.041 -0.0246,-0.2032 0.0356,-0.3615 0.0602,-0.1582 0.38543,-0.6826 0.72281,-1.1652 0.33738,-0.4826 0.71481,-1.2095 0.83874,-1.6154 0.12392,-0.4058 0.26379,-0.8986 0.3108,-1.0951 0.0475,-0.1986 0.0308,-0.3573 -0.0376,-0.3573 -0.0677,0 -0.20039,0.077 -0.29482,0.1709 -0.0944,0.094 -0.54449,0.5033 -1.00014,0.9095 -0.45565,0.4062 -0.87954,0.7386 -0.94199,0.7386 -0.0624,0 -0.11354,-0.057 -0.11354,-0.1261 0,-0.069 0.36827,-0.5809 0.81838,-1.1368 0.4501,-0.556 0.91785,-1.1555 1.03943,-1.3321 0.12158,-0.1767 0.22106,-0.3564 0.22106,-0.3994 0,-0.043 -0.42389,0.072 -0.94199,0.2551 l -0.94198,0.3332 -1.42923,-0.013 c -0.78744,-0.01 -1.71644,-0.094 -2.06885,-0.1937 -0.35181,-0.1 -0.662,-0.2491 -0.68932,-0.3324 -0.0302,-0.092 0.24232,-0.2169 0.69659,-0.3185 0.41045,-0.092 1.01071,-0.3453 1.33392,-0.5632 0.32321,-0.2178 0.83841,-0.7052 1.14489,-1.0831 0.30649,-0.3778 0.55724,-0.7388 0.55724,-0.8021 0,-0.063 -0.41018,-0.3877 -0.91152,-0.721 -0.50134,-0.3333 -1.06989,-0.8202 -1.26344,-1.0819 -0.19354,-0.2618 -0.66037,-0.81545 -1.0374,-1.23042 l -0.68551,-0.7545 0.0041,-0.41487 0.0041,-0.41486 0.50658,0.58468 c 0.35811,0.41332 0.52314,0.52756 0.56307,0.38979 0.0311,-0.1072 0.10833,-0.3663 0.17167,-0.57579 0.0633,-0.20949 0.17365,-0.37317 0.24511,-0.36374 0.0715,0.009 0.2027,0.41105 0.29165,0.8925 0.0889,0.48146 0.23511,0.92197 0.32482,0.97892 0.0897,0.057 0.67703,0.10446 1.30516,0.10555 l 1.14206,0.002 0.4959,-0.25299 c 0.27274,-0.13914 1.03552,-0.80495 1.69507,-1.47957 0.78948,-0.80754 1.63738,-1.50901 2.48184,-2.05326 0.70547,-0.45466 1.28491,-0.8559 1.28765,-0.89163 0.003,-0.0357 -0.58511,-0.19347 -1.30632,-0.35054 -0.72121,-0.15706 -1.45185,-0.37767 -1.62364,-0.49023 -0.17178,-0.11256 -0.31233,-0.26177 -0.31233,-0.33159 0,-0.0698 0.1441,-0.12693 0.32022,-0.12693 0.17611,0 0.92158,0.11676 1.65659,0.25947 0.73501,0.1427 1.74566,0.25821 2.24589,0.25668 0.50023,-10e-4 1.17261,-0.0599 1.49418,-0.12972 0.32158,-0.0698 0.83317,-0.19293 1.13688,-0.27357 0.30371,-0.0806 0.5522,-0.19631 0.5522,-0.25704 0,-0.0607 -0.23672,-0.23116 -0.52604,-0.37877 -0.28933,-0.1476 -0.55966,-0.35595 -0.60074,-0.46299 -0.0411,-0.10705 -0.044,-0.22532 -0.007,-0.26283 0.0375,-0.0375 0.38093,0.0268 0.76315,0.14299 0.46317,0.14076 1.60495,0.2533 3.42346,0.33743 1.50068,0.0694 3.17285,0.21225 3.71594,0.31737 0.54309,0.10512 1.05468,0.19112 1.13688,0.19112 0.0822,0 0.14945,-0.0842 0.14945,-0.18722 0,-0.10298 0.0563,-0.22203 0.12515,-0.26458 0.0688,-0.0425 1.20703,0.67024 2.52933,1.58397 1.3223,0.91372 2.67004,1.83102 2.99498,2.03844 0.32493,0.20743 0.62764,0.34029 0.67267,0.29526 0.045,-0.045 -0.13915,-0.71172 -0.40929,-1.48153 -0.27015,-0.76981 -0.7399,-1.89664 -1.0439,-2.50405 -0.30399,-0.60743 -0.83112,-1.48445 -1.17141,-1.94894 -0.34028,-0.4645 -0.90679,-1.1794 -1.2589,-1.58867 -0.35211,-0.40927 -1.80611,-1.8045 -3.2311,-3.10051 -1.425,-1.29601 -2.97394,-2.83213 -3.4421,-3.41361 -0.46815,-0.58147 -1.53056,-2.08041 -2.3609,-3.33098 -0.83034,-1.25057 -1.53156,-2.30189 -1.55828,-2.33628 -0.0267,-0.0344 -0.22494,0.0387 -0.4405,0.16241 -0.21556,0.12371 -0.50067,0.22493 -0.63358,0.22493 -0.13292,0 -0.27544,-0.0547 -0.31673,-0.12145 -0.0413,-0.0668 0.0516,-0.38217 0.20642,-0.70082 0.15481,-0.31866 0.24544,-0.67328 0.2014,-0.78806 -0.044,-0.11477 -0.19088,-0.20868 -0.3263,-0.20868 -0.13542,0 -0.38986,0.14365 -0.56542,0.31921 -0.22517,0.22517 -0.38636,0.63168 -0.54713,1.37986 -0.15769,0.73379 -0.32322,1.15594 -0.53715,1.36987 -0.193,0.19301 -0.46097,0.30922 -0.71298,0.30922 l -0.40377,0 0.4141,-0.57662 c 0.22776,-0.31715 0.4141,-0.73751 0.4141,-0.93414 0,-0.21331 -0.11716,-0.45238 -0.29049,-0.59274 -0.15977,-0.12937 -0.42601,-0.23522 -0.59164,-0.23522 -0.16564,0 -0.38387,0.0827 -0.48498,0.18382 -0.1011,0.10111 -0.24407,0.3496 -0.3177,0.55221 -0.0736,0.2026 -0.23115,0.70204 -0.35004,1.10986 -0.1355,0.46476 -0.34051,0.8393 -0.54931,1.00354 -0.18322,0.14412 -0.53183,0.29931 -0.77469,0.34488 -0.24287,0.0456 -0.64204,0.0453 -0.88706,-9.1e-4 -0.24501,-0.046 -0.57436,-0.18793 -0.73188,-0.31549 l -0.28641,-0.23192 0.60195,-0.67777 c 0.43315,-0.48765 0.60196,-0.78764 0.60196,-1.06963 0,-0.21555 -0.0867,-0.55954 -0.19263,-0.76442 -0.11537,-0.2231 -0.36844,-0.43053 -0.63093,-0.51716 -0.29803,-0.0984 -0.54625,-0.10361 -0.77561,-0.0164 -0.18552,0.0705 -0.43351,0.31426 -0.55108,0.54161 -0.13763,0.26616 -0.18511,0.55657 -0.13332,0.81551 0.0442,0.22118 0.22532,0.62111 0.40242,0.88873 0.17711,0.26761 0.322,0.55303 0.322,0.63426 0,0.10372 -0.2224,0.1206 -0.74709,0.0567 -0.4109,-0.05 -1.00155,-0.2023 -1.31255,-0.33835 -0.311,-0.13605 -0.92739,-0.5318 -1.36975,-0.87944 -0.44237,-0.34764 -0.93559,-0.70234 -1.09605,-0.78821 -0.16047,-0.0859 -0.40712,-0.11953 -0.54812,-0.0748 -0.14101,0.0447 -0.34602,0.25471 -0.45557,0.46656 l -0.199192,0.38519 0.288352,0.51306 c 0.21011,0.37384 0.44033,0.57109 0.84842,0.72695 0.30804,0.11764 0.62085,0.28714 0.69515,0.37666 0.0961,0.11576 0.0844,0.18223 -0.0405,0.23014 -0.0966,0.0371 -0.56548,0.10913 -1.04204,0.16016 -0.47655,0.051 -1.185407,0.0529 -1.57523,0.004 -0.389822,-0.0487 -0.901741,-0.21818 -1.137594,-0.37661 -0.271364,-0.18227 -0.498922,-0.48926 -0.619713,-0.836 -0.104989,-0.30138 -0.226758,-0.54797 -0.270596,-0.54797 -0.04384,0 -0.262547,0.22752 -0.486016,0.5056 -0.22347,0.27808 -0.667235,0.63191 -0.986144,0.78629 -0.336044,0.16267 -0.966466,0.31311 -1.499409,0.35778 l -0.919576,0.0771 0,-0.17105 c 0,-0.0941 0.249713,-0.41031 0.554915,-0.70274 0.334298,-0.32032 0.618404,-0.74362 0.714611,-1.06472 0.08783,-0.29316 0.159696,-0.70651 0.159696,-0.91856 0,-0.21204 -0.03515,-0.42067 -0.07807,-0.46361 -0.04293,-0.0429 -0.483065,0.32293 -0.978054,0.81303 -0.494988,0.4901 -1.148904,1.0116 -1.453137,1.15888 -0.304234,0.14728 -0.864375,0.3268 -1.244757,0.39894 -0.380382,0.0721 -0.913528,0.0957 -1.184779,0.0523 -0.3196,-0.0511 -0.737662,0.003 -1.18783,0.15395 -0.38206,0.12805 -0.805248,0.22534 -0.940419,0.21619 -0.135175,-0.009 -0.418117,-0.18042 -0.628763,-0.38062 -0.21065,-0.2002 -0.465479,-0.52188 -0.566293,-0.71485 -0.10081,-0.19297 -0.183293,-0.49993 -0.183293,-0.68213 0,-0.1822 0.06757,-0.33127 0.150146,-0.33127 0.08258,0 0.341787,0.14617 0.576011,0.32482 0.234225,0.17865 0.57096,0.32482 0.74829,0.32482 0.236076,0 0.448295,-0.17146 0.792406,-0.64023 0.334834,-0.45614 0.590205,-0.66594 0.888085,-0.72962 0.229964,-0.0491 0.491196,-0.14825 0.580523,-0.22021 0.08933,-0.072 0.162415,-0.1782 0.162415,-0.2361 0,-0.0579 -0.11688,-0.14236 -0.259736,-0.1877 -0.142852,-0.0453 -0.725985,0.0384 -1.295848,0.18614 -0.569864,0.14771 -1.386307,0.26857 -1.814325,0.26857 -0.486612,0 -1.035602,0.10241 -1.465143,0.2733 l -0.686939,0.27329 -0.855407,-0.0773 -0.855411,-0.0773 -0.286076,0.30451 -0.28608,0.30452 0.08618,0.53892 0.08618,0.53892 -0.206244,0 c -0.113433,0 -0.34749,-0.15233 -0.520132,-0.33852 -0.172637,-0.18618 -0.445652,-0.60235 -0.606698,-0.92481 l -0.292815,-0.5863 0.215002,-0.40696 c 0.118249,-0.22383 0.387076,-0.67007 0.59739,-0.99164 0.249691,-0.38178 0.395066,-0.78758 0.418922,-1.16936 l 0.03656,-0.58468 -0.389791,0 -0.389786,0 -0.238076,0.48723 c -0.130941,0.26798 -0.31643,0.48723 -0.412192,0.48723 -0.09577,0 -0.242915,-0.20845 -0.326994,-0.46322 -0.08723,-0.2643 -0.11467,-0.66688 -0.0639,-0.93749 0.04894,-0.26085 0.169709,-0.6304 0.268381,-0.82122 0.09868,-0.19081 0.488327,-0.52244 0.865885,-0.73694 0.377562,-0.2145 0.824151,-0.53843 0.992428,-0.71985 0.168272,-0.18141 0.267144,-0.39264 0.219709,-0.46939 -0.04744,-0.0767 -0.214348,-0.13933 -0.370919,-0.13906 -0.156571,2.6e-4 -0.476107,0.1172 -0.710082,0.25986 -0.233979,0.14265 -0.482469,0.25937 -0.5522,0.25937 -0.06973,0 -0.12679,-0.14162 -0.12679,-0.31472 0,-0.1731 0.190023,-0.56246 0.422269,-0.86523 0.270464,-0.35261 0.609113,-0.61589 0.941987,-0.73235 0.325362,-0.11383 0.738368,-0.15202 1.104398,-0.1021 0.321578,0.0438 1.359154,0.11028 2.305729,0.14762 l 1.721046,0.0679 1.462219,0.7509 c 0.80422,0.413 1.685552,0.82363 1.958517,0.91251 0.27296,0.0889 1.208454,0.33453 2.078867,0.54587 0.870409,0.21134 1.933374,0.46735 2.362142,0.56891 0.428767,0.10155 1.293005,0.18587 1.920532,0.18735 l 1.140959,0.003 0.07542,-0.19655 c 0.04147,-0.1081 0.0054,-0.28094 -0.08023,-0.38409 -0.08561,-0.10316 -0.117936,-0.24858 -0.07183,-0.32317 0.0461,-0.0746 0.185607,-0.13562 0.310023,-0.13562 0.124411,0 0.3003,0.0731 0.390864,0.16241 l 0.164661,0.16241 0.161378,-0.21834 0.161378,-0.21833 0.544483,0.073 c 0.30201,0.0405 0.54449,0.0191 0.54449,-0.048 0,-0.0666 -0.0726,-0.19365 -0.16132,-0.28237 l -0.16133,-0.16133 0.1938,-0.12253 c 0.1066,-0.0674 0.62155,-0.12342 1.14434,-0.12452 0.52279,-9.1e-4 1.0674,-0.0645 1.21023,-0.14098 l 0.25971,-0.13899 -0.15423,-0.18583 c -0.0848,-0.1022 -0.22599,-0.18583 -0.31372,-0.18583 -0.0877,0 -0.40406,-0.17717 -0.70299,-0.39372 -0.29893,-0.21654 -0.6583,-0.58197 -0.79859,-0.81205 -0.14029,-0.23009 -0.25529,-0.64167 -0.25556,-0.91461 l -4.5e-4,-0.49627 0.28466,0.0415 c 0.20218,0.0295 0.31819,0.1733 0.40038,0.49628 0.0636,0.25011 0.2425,0.59185 0.39747,0.75943 0.15496,0.16758 0.45563,0.39511 0.66816,0.50563 0.21253,0.11051 0.68755,0.20529 1.0556,0.21061 l 0.66918,0.01 0.53288,-0.35265 c 0.29308,-0.19395 0.63337,-0.506 0.75619,-0.69346 l 0.22331,-0.34081 -0.24498,-0.17915 c -0.13475,-0.0985 -0.33839,-0.17914 -0.45255,-0.17914 -0.11415,0 -0.4232,0.10994 -0.68676,0.24431 l -0.47922,0.24432 -0.14986,-0.18057 -0.14986,-0.18058 0.31493,-0.61197 c 0.17321,-0.33658 0.49312,-0.71604 0.7109,-0.84323 0.22984,-0.13423 0.81063,-0.26631 1.38427,-0.3148 0.63675,-0.0538 1.0118,-0.14481 1.05439,-0.25579 0.0363,-0.0947 0.0169,-0.20264 -0.0433,-0.23981 -0.0601,-0.0371 -0.2933,-0.004 -0.51814,0.0749 -0.22542,0.0786 -0.65867,0.10504 -0.96578,0.059 -0.30633,-0.0459 -0.90431,-0.24779 -1.32886,-0.44857 -0.42453,-0.20077 -0.96138,-0.58086 -1.19298,-0.84464 -0.23159,-0.26378 -0.42109,-0.55773 -0.42109,-0.65323 0,-0.11067 0.23992,-0.20546 0.66162,-0.2614 0.45033,-0.0597 0.76459,-0.19074 0.98406,-0.41022 0.17735,-0.17734 0.299,-0.39387 0.27033,-0.48116 -0.0286,-0.0873 -0.26085,-0.17652 -0.51596,-0.19825 -0.31667,-0.027 -0.94568,0.15104 -1.98239,0.56106 l -1.51855,0.6006 -0.37725,-0.1315 c -0.20749,-0.0723 -0.633133,-0.30757 -0.945875,-0.52274 -0.312742,-0.21517 -0.670969,-0.60691 -0.796062,-0.87052 l -0.227444,-0.4793 0.142678,-0.46854 c 0.07847,-0.2577 0.322038,-0.65857 0.541264,-0.89081 0.219227,-0.23225 0.45804,-0.42227 0.530696,-0.42227 0.07265,0 0.101096,0.10232 0.06321,0.22737 -0.03788,0.12506 -0.122383,0.4717 -0.187763,0.77033 -0.0817,0.37321 -0.07187,0.63723 0.03147,0.84454 0.08268,0.16587 0.32111,0.38348 0.529855,0.48356 l 0.379531,0.18198 0.41511,-0.24694 c 0.22831,-0.13582 0.83052,-0.59565 1.33823,-1.02186 l 0.92312,-0.77491 -0.004,-0.78424 c -0.003,-0.47871 -0.0776,-0.88139 -0.19283,-1.03362 l -0.1887,-0.24938 -0.26192,0.23704 c -0.14406,0.13037 -0.26282,0.35953 -0.26391,0.50924 -9.1e-4,0.14971 -0.056,0.35758 -0.122,0.46193 l -0.12001,0.18973 -0.28745,-0.25469 c -0.1581,-0.14008 -0.454,-0.51463 -0.65758,-0.83233 -0.24218,-0.37796 -0.37012,-0.74994 -0.37012,-1.07609 0,-0.27415 0.0896,-0.71292 0.19913,-0.97504 l 0.19913,-0.47659 -0.41217,-0.77332 -0.412172,-0.77331 0.127917,-0.70574 0.127925,-0.70574 -0.313127,-0.11905 c -0.172224,-0.0655 -0.502492,-0.11905 -0.733934,-0.11905 -0.30543,0 -0.53467,0.11748 -0.83608,0.42846 -0.235125,0.24258 -0.416139,0.56668 -0.417267,0.74709 -9.09e-4,0.17525 -0.05491,0.40226 -0.119586,0.50447 l -0.117599,0.18583 -0.733215,-0.55359 c -0.403269,-0.30447 -0.846216,-0.7389 -0.984324,-0.9654 -0.151255,-0.24806 -0.251305,-0.64815 -0.251596,-1.00612 l -4.55e-4,-0.59429 0.454752,-0.63962 c 0.250114,-0.35179 0.454752,-0.68549 0.454752,-0.74156 0,-0.0561 -0.102319,-0.13877 -0.227376,-0.1838 -0.125057,-0.045 -0.683197,-0.39992 -1.240314,-0.78866 -0.63834,-0.44542 -1.194615,-0.73117 -1.50421,-0.7727 -0.346531,-0.0465 -0.651028,0.0156 -1.033452,0.2107 l -0.542137,0.2766 0,-0.40953 0,-0.40952 0.567585,-0.56759 0.567585,-0.56758 0.519082,0 c 0.285493,0 0.828863,0.0588 1.207485,0.13055 0.378626,0.0718 0.721368,0.0976 0.76165,0.0573 0.04029,-0.0403 -0.492746,-0.6256 -1.184506,-1.30072 -0.91809,-0.89599 -1.294225,-1.35883 -1.392833,-1.71391 -0.0743,-0.26754 -0.135421,-0.73276 -0.135821,-1.03383 -3.95e-4,-0.30106 -0.117658,-0.84405 -0.260582,-1.20665 -0.142919,-0.36259 -0.259859,-0.83047 -0.259859,-1.03972 0,-0.24161 0.149605,-0.55085 0.409946,-0.84735 0.225466,-0.2568 0.659895,-0.63888 0.965393,-0.84907 0.305502,-0.21019 0.618008,-0.38216 0.694456,-0.38216 0.07645,0 0.139004,0.0877 0.139004,0.19483 0,0.10715 -0.160786,0.48947 -0.357308,0.84961 l -0.357303,0.65478 0.25221,0.18982 c 0.138713,0.10441 0.474907,0.18983 0.74709,0.18983 l 0.494884,0 0,-0.65382 c 0,-0.3596 0.08865,-0.866 0.197007,-1.12532 0.108354,-0.25934 0.165098,-0.57205 0.126099,-0.69493 -0.03902,-0.12289 -0.47307,-0.58084 -0.964593,-1.01768 -0.508995,-0.45237 -1.010696,-1.03598 -1.16553,-1.35582 -0.153338,-0.31676 -0.270495,-0.81274 -0.268749,-1.13771 0.0018,-0.31688 0.05686,-0.80802 0.122569,-1.09142 0.08459,-0.36485 0.07421,-0.57012 -0.03556,-0.70318 -0.08528,-0.10335 -0.321791,-0.28959 -0.525584,-0.41386 -0.272101,-0.16592 -0.470555,-0.19725 -0.747094,-0.11794 -0.271432,0.0779 -0.376562,0.0629 -0.376562,-0.0535 0,-0.0888 0.160787,-0.31105 0.357308,-0.49382 0.196517,-0.18277 0.518772,-0.43476 0.716125,-0.55996 0.234143,-0.14855 0.490019,-0.20142 0.73638,-0.15215 0.207658,0.0415 0.666572,0.25335 1.019805,0.4707 0.353233,0.21734 0.703447,0.39517 0.778249,0.39517 0.0748,0 0.404525,-0.29866 0.732719,-0.6637 0.418445,-0.4654 0.596726,-0.77595 0.596726,-1.03943 0,-0.20665 -0.11694,-0.49267 -0.259859,-0.63559 -0.142924,-0.14293 -0.376794,-0.25986 -0.519718,-0.25986 -0.144366,0 -0.259859,-0.0866 -0.259859,-0.19489 0,-0.1072 0.0146,-0.19654 0.03247,-0.19856 0.01787,-0.002 0.354057,-0.11124 0.747094,-0.24274 l 0.714611,-0.23909 0.373684,0.26326 c 0.205525,0.14479 0.485639,0.51635 0.622478,0.8257 0.136839,0.30934 0.353233,0.61833 0.480882,0.68665 0.127645,0.0683 0.535721,0.13806 0.90683,0.15499 0.386376,0.0177 0.740342,-0.0348 0.828212,-0.12267 l 0.15347,-0.15346 -0.507116,-0.51933 -0.507112,-0.51933 0.151937,-0.15194 0.151942,-0.15194 0.529589,0.15867 c 0.29127,0.0873 0.71304,0.32259 0.93727,0.52294 l 0.40769,0.36427 0.0951,1.09051 c 0.0632,0.72567 0.24009,1.48172 0.5286,2.25987 l 0.43355,1.16936 -0.0492,2.59859 c -0.0271,1.42922 -0.0563,3.5633 -0.065,4.74241 l -0.0158,2.14383 0.32476,0.002 0.32476,0.002 0.1132,0.53664 0.11321,0.53664 0.37409,0.0748 0.37409,0.0748 0,0.35201 c 0,0.19361 0.12362,0.60737 0.2747,0.91947 l 0.27469,0.56744 0.25296,-0.22892 0.25295,-0.22892 0.12001,0.18973 c 0.066,0.10435 0.1209,0.31169 0.12199,0.46075 9.1e-4,0.14906 0.21295,0.54178 0.47078,0.87272 0.25782,0.33093 0.57809,0.63639 0.71171,0.6788 0.14015,0.0445 0.29793,0.27991 0.37293,0.5565 0.0715,0.26367 0.27672,0.69449 0.45604,0.95737 0.17932,0.26288 0.44026,0.51422 0.57986,0.55853 0.13961,0.0443 0.46191,0.37019 0.71623,0.72418 0.25431,0.35398 0.46239,0.73118 0.46239,0.8382 0,0.12047 0.1226,0.1946 0.32183,0.1946 0.1911,0 0.39863,0.11875 0.51092,0.29234 0.10399,0.16079 0.23048,0.46055 0.28108,0.66615 0.0524,0.21314 0.25083,0.46444 0.46156,0.58468 0.20327,0.11598 0.42743,0.37604 0.49813,0.57792 0.0813,0.23222 0.18492,0.33222 0.28199,0.27222 0.0844,-0.0521 0.58213,-0.4024 1.10609,-0.77832 0.52395,-0.37592 1.25486,-0.78387 1.62424,-0.90656 l 0.67159,-0.22307 0.98668,0.0725 c 0.54267,0.0399 1.33748,0.19906 1.76625,0.35371 0.42877,0.15465 1.07192,0.28672 1.42922,0.29349 0.43563,0.008 0.83151,-0.082 1.2017,-0.27413 0.30363,-0.15754 0.70064,-0.51096 0.88224,-0.78538 0.1816,-0.27441 0.36333,-0.70321 0.40384,-0.95288 l 0.0737,-0.45393 -0.41994,-0.084 c -0.23096,-0.0462 -0.90031,-0.084 -1.48744,-0.084 -0.58714,0 -1.3533,0.086 -1.70259,0.19113 -0.3607,0.10856 -0.68398,0.14223 -0.74826,0.0779 -0.0622,-0.0622 -0.11317,-0.31819 -0.11317,-0.56876 0,-0.25058 0.0427,-0.64989 0.0948,-0.88737 0.0521,-0.23747 0.2838,-0.84224 0.51475,-1.34392 0.23096,-0.50169 0.57849,-1.05796 0.7723,-1.23616 l 0.35237,-0.32401 0.11516,0.20577 c 0.0633,0.11318 0.23195,0.34668 0.3747,0.5189 l 0.25955,0.31313 0.66905,-0.36504 c 0.36798,-0.20077 0.68411,-0.34694 0.7025,-0.32482 0.0184,0.0221 0.10156,0.17116 0.18483,0.33121 0.0833,0.16005 0.33176,0.38428 0.55224,0.49829 0.25194,0.13029 0.44652,0.16164 0.52376,0.0844 0.0676,-0.0676 0.12616,-0.35946 0.13015,-0.6486 0.004,-0.28913 -0.0375,-0.5981 -0.0922,-0.6866 l -0.0994,-0.1609 -1.96209,0.0807 c -1.26799,0.0521 -2.35278,0.17429 -3.06649,0.34531 -0.60742,0.14554 -1.54291,0.32727 -2.07887,0.40383 -0.53596,0.0766 -1.50271,0.11754 -2.14834,0.0911 l -1.17386,-0.0482 -0.58018,-0.2989 c -0.3191,-0.1644 -0.77717,-0.48382 -1.01794,-0.70983 -0.24077,-0.22601 -0.51849,-0.59907 -0.61716,-0.82902 -0.0987,-0.22996 -0.17902,-0.6977 -0.17855,-1.03944 4.6e-4,-0.39358 0.0923,-0.76011 0.25043,-0.99992 0.13726,-0.20821 0.49568,-0.54387 0.79648,-0.74588 0.3008,-0.20202 0.75817,-0.42599 1.01638,-0.49772 0.25821,-0.0717 0.67412,-0.13041 0.92423,-0.13041 0.25011,0 0.67391,0.0609 0.94177,0.13526 0.26786,0.0744 0.64457,0.27077 0.83714,0.4364 l 0.35012,0.30116 -0.5448,0.68424 c -0.29964,0.37633 -0.5448,0.72487 -0.5448,0.77454 0,0.0497 0.13235,0.21465 0.29412,0.36662 0.16176,0.15197 0.52154,0.37133 0.79951,0.48747 0.27797,0.11615 0.94009,0.29434 1.47136,0.39599 0.53128,0.10165 1.22047,0.18482 1.53155,0.18482 0.31106,0 0.59193,-0.0438 0.62414,-0.0975 0.0322,-0.0536 -0.11219,-0.65289 -0.32089,-1.33177 l -0.37944,-1.23433 -0.0795,-1.57728 -0.0795,-1.57727 0.27097,-0.14502 c 0.14903,-0.0798 0.75656,-0.25948 1.35006,-0.39938 0.59349,-0.1399 1.63453,-0.3183 2.31341,-0.39644 0.67888,-0.0781 1.4314,-0.20407 1.67225,-0.27986 0.24086,-0.0758 0.86157,-0.54021 1.37936,-1.03205 l 0.94142,-0.89426 1.34916,0.009 c 0.74204,0.005 2.10925,0.0822 3.03824,0.17197 0.929,0.0898 1.8892,0.119 2.13378,0.0649 0.24458,-0.0541 0.59539,-0.20975 0.77957,-0.34588 0.18419,-0.13613 0.46927,-0.48802 0.63352,-0.78197 l 0.29863,-0.53445 -0.27924,-0.64911 c -0.15357,-0.35701 -0.25588,-0.71917 -0.22734,-0.8048 0.032,-0.0961 0.23798,0.008 0.53778,0.2709 0.26722,0.23463 0.64184,0.69275 0.83247,1.01804 l 0.34661,0.59144 -0.007,0.85244 c -0.004,0.46885 -0.0308,0.93668 -0.0592,1.03962 -0.0284,0.10295 0.047,0.20886 0.1677,0.23537 0.12794,0.0281 0.44425,-0.17668 0.75884,-0.49127 l 0.53945,-0.53945 -0.0674,-0.60542 c -0.0371,-0.33298 -0.10856,-0.80288 -0.15885,-1.04424 l -0.0914,-0.43882 0.17958,0.0579 c 0.0988,0.0319 0.36551,0.36605 0.59275,0.74265 0.29111,0.48247 0.4387,0.92328 0.49964,1.49228 0.0648,0.60489 0.034,0.93307 -0.12252,1.30776 -0.11496,0.27511 -0.1767,0.53252 -0.13721,0.57201 0.0395,0.0395 0.28137,-0.0411 0.53751,-0.179 0.25614,-0.13794 0.55386,-0.38533 0.66159,-0.54976 0.10774,-0.16442 0.23355,-0.48314 0.2796,-0.70825 0.046,-0.22512 0.15186,-0.43202 0.23516,-0.45979 0.0833,-0.0278 0.24258,0.12575 0.35396,0.34114 0.11139,0.21539 0.20252,0.67814 0.20252,1.02833 0,0.3502 -0.0666,0.82764 -0.14791,1.06101 l -0.14791,0.42428 0.44025,0.33823 c 0.24214,0.18603 0.93808,0.81376 1.54655,1.39496 0.60846,0.5812 1.3066,1.1603 1.55141,1.2869 l 0.44511,0.23018 -0.24447,0.17876 c -0.1637,0.1197 -0.62263,0.17876 -1.389,0.17876 -0.62949,0 -1.14453,0.0454 -1.14453,0.10094 0,0.0555 0.23384,0.42095 0.51965,0.81206 0.28581,0.39112 0.72644,0.95736 0.97918,1.25831 0.33972,0.40453 0.58534,0.56739 0.94206,0.62465 0.26538,0.0426 0.61407,0.10444 0.77486,0.13741 0.16078,0.033 0.29234,0.10648 0.29234,0.16334 0,0.0569 -0.20959,0.20334 -0.46575,0.32549 -0.25616,0.12216 -0.80608,0.25767 -1.22205,0.30115 -0.41597,0.0435 -0.82256,0.12 -0.90354,0.17005 -0.10282,0.0635 -0.10893,0.19177 -0.0203,0.42495 0.0698,0.18367 0.19349,0.70503 0.27479,1.15858 0.0813,0.45355 0.32792,1.19233 0.54803,1.64172 0.22011,0.44939 0.63421,1.0511 0.92024,1.33712 0.30957,0.30957 0.47225,0.56708 0.40195,0.63627 -0.0695,0.0684 -0.46535,0.0414 -0.96262,-0.0658 -0.46449,-0.10009 -0.95272,-0.18403 -1.08495,-0.18654 l -0.24041,-0.005 0.66968,0.73274 c 0.36832,0.40301 0.8127,1.01498 0.9875,1.35994 l 0.31783,0.6272 0,0.85531 c 0,0.50589 -0.0796,1.00917 -0.19476,1.23193 -0.10711,0.20714 -0.39402,0.5286 -0.63756,0.71437 -0.24355,0.18576 -0.64485,0.37053 -0.89177,0.4106 l -0.44896,0.0729 -0.0828,0.97997 c -0.0456,0.53898 -0.0828,1.44077 -0.0828,2.00397 0,0.56398 0.0785,1.21184 0.17477,1.4421 0.0961,0.22996 0.26998,0.49706 0.38636,0.59357 l 0.21159,0.17548 0.54653,-0.46782 c 0.30059,-0.25729 0.62371,-0.46781 0.71804,-0.46781 0.0943,0 0.17151,0.0529 0.17151,0.11763 0,0.0647 -0.20464,0.36258 -0.45475,0.66195 -0.25011,0.29936 -0.45475,0.68493 -0.45475,0.85683 0,0.17189 -0.0297,0.31252 -0.066,0.31252 -0.0363,0 -0.73676,-0.32 -1.55659,-0.71113 l -1.49059,-0.71113 -0.6081,-0.78306 c -0.33445,-0.43067 -0.65718,-0.78304 -0.71717,-0.78304 -0.06,0 -0.10845,0.0438 -0.10768,0.0974 9.1e-4,0.0536 0.0794,0.36056 0.17476,0.68213 0.0953,0.32157 0.18591,0.93549 0.20126,1.36426 0.0154,0.42876 -0.0359,1.29272 -0.11387,1.91989 -0.10451,0.84051 -0.10295,1.28454 0.006,1.68885 0.0965,0.35853 0.35826,0.75909 0.75557,1.1564 0.33433,0.33433 0.77573,0.65 0.98089,0.70149 0.20516,0.0515 0.46335,0.0367 0.57376,-0.033 0.11041,-0.0696 0.31532,-0.28007 0.45534,-0.46763 0.14003,-0.18754 0.26842,-0.56307 0.28531,-0.83448 0.0169,-0.27142 0.0386,-0.55196 0.0484,-0.62342 0.01,-0.0715 0.10353,-0.0164 0.20845,0.12227 0.10491,0.13872 0.19076,0.50705 0.19076,0.81851 0,0.31147 -0.089,0.73851 -0.1979,0.94899 -0.10884,0.21048 -0.49252,0.61558 -0.85262,0.90022 -0.3601,0.28464 -0.89959,0.58515 -1.19884,0.6678 l -0.54412,0.15026 -0.71461,-0.19644 c -0.39303,-0.10805 -0.9024,-0.27407 -1.13192,-0.36894 -0.22952,-0.0949 -0.45915,-0.13066 -0.51028,-0.0795 -0.0511,0.0511 -0.0922,0.45777 -0.0913,0.90364 l 0.002,0.81066 0.55485,1.15295 c 0.38441,0.79877 0.5761,1.38723 0.62402,1.91562 0.0494,0.5452 0.006,0.92863 -0.15311,1.34466 -0.12224,0.32009 -0.48114,0.91537 -0.79755,1.32284 -0.3164,0.40747 -0.57528,0.87293 -0.57528,1.03437 0,0.16143 0.20749,1.30595 0.46108,2.54339 0.2536,1.23743 0.7284,3.21394 1.05511,4.39224 0.32672,1.1783 0.82582,2.81541 1.10913,3.63802 0.2833,0.8226 0.72034,1.99262 0.97121,2.60004 0.25086,0.60742 1.067,2.4063 1.81364,3.99751 0.76734,1.63532 1.4457,3.27345 1.56034,3.76795 0.11154,0.48114 0.28203,1.16714 0.37886,1.52444 0.0968,0.3573 0.34538,0.9161 0.55231,1.2417 0.22273,0.3505 0.68827,0.7992 1.14102,1.0997 0.42063,0.2792 1.11608,0.6535 1.54544,0.8317 l 0.78066,0.3241 1.57697,0.051 1.57697,0.051 1.08658,-0.2736 c 0.59762,-0.1505 1.55769,-0.499 2.13349,-0.7746 0.5758,-0.2755 1.25631,-0.6848 1.51224,-0.9095 0.25593,-0.2247 0.5634,-0.6152 0.68327,-0.8678 0.13465,-0.2838 0.22371,-0.8173 0.23303,-1.396 0.0103,-0.6396 -0.0521,-1.06442 -0.19687,-1.33963 -0.11658,-0.22163 -0.43124,-0.5955 -0.69924,-0.83081 -0.268,-0.2353 -0.75032,-0.54418 -1.07183,-0.6864 l -0.58456,-0.25858 -1.30601,0.085 c -0.71831,0.0468 -1.90427,0.12144 -2.63546,0.16594 l -1.32945,0.0809 -0.58331,-0.22277 c -0.32083,-0.12253 -0.73065,-0.39787 -0.91072,-0.61187 -0.18007,-0.214 -0.42191,-0.71421 -0.53743,-1.11158 -0.11552,-0.39737 -0.20405,-1.1162 -0.19672,-1.59741 0.007,-0.4812 0.10576,-1.3654 0.21875,-1.96489 0.11298,-0.59949 0.3208,-1.35236 0.4618,-1.67305 0.14101,-0.32068 0.38065,-0.71534 0.53253,-0.87702 0.15189,-0.16168 0.35368,-0.29396 0.44841,-0.29396 0.0947,0 0.17225,0.09 0.17225,0.20007 0,0.11004 -0.12343,0.442 -0.27428,0.73769 -0.15085,0.29568 -0.30504,0.87699 -0.34265,1.29179 -0.0486,0.53594 -0.0162,0.8175 0.11186,0.97298 0.0991,0.12034 0.46322,0.44296 0.80907,0.71693 l 0.62884,0.49813 1.06543,0 c 0.58598,0 1.41391,-0.0902 1.83982,-0.20039 0.42592,-0.11022 1.0882,-0.38794 1.47174,-0.61717 0.38355,-0.22922 0.84482,-0.60838 1.02507,-0.84258 0.18025,-0.23419 0.29451,-0.459 0.25393,-0.49959 -0.0406,-0.0406 -0.24369,-0.0365 -0.45133,0.009 -0.20764,0.0456 -0.69418,0.32134 -1.0812,0.61274 l -0.70368,0.52982 -0.0404,-0.26676 c -0.0222,-0.14671 0.0509,-0.44322 0.16241,-0.65889 0.11153,-0.21567 0.20278,-0.48506 0.20278,-0.59865 0,-0.11359 0.11947,-0.4407 0.26548,-0.72691 0.14602,-0.28622 0.47886,-0.75657 0.73965,-1.04523 0.26079,-0.28866 0.87479,-0.7266 1.36446,-0.97319 0.48966,-0.24659 0.92599,-0.54136 0.96962,-0.65504 0.0436,-0.11368 0.004,-0.41859 -0.0883,-0.67756 -0.0922,-0.25897 -0.50398,-1.18207 -0.9151,-2.05133 l -0.74748,-1.58045 -0.76168,-0.0881 c -0.41893,-0.0484 -1.07797,-0.16727 -1.46455,-0.26411 l -0.70286,-0.17606 -0.40396,0.16879 c -0.22218,0.0928 -0.57585,0.39414 -0.78593,0.66957 -0.25832,0.33868 -0.38135,0.64982 -0.38005,0.96118 9.1e-4,0.25321 0.0512,0.71665 0.11142,1.02987 l 0.10951,0.56948 -0.18179,-0.0555 c -0.1,-0.0305 -0.34555,-0.3745 -0.54571,-0.76438 l -0.36394,-0.70886 0.0803,-0.45475 c 0.0442,-0.25011 0.22989,-0.68863 0.41268,-0.97447 0.18279,-0.28584 0.48479,-0.68327 0.67111,-0.88317 l 0.33877,-0.36346 -0.19261,-0.12331 c -0.10594,-0.0678 -0.37976,-0.17648 -0.60849,-0.24147 -0.22873,-0.065 -0.62471,-0.0711 -0.87995,-0.0135 -0.25525,0.0576 -0.61173,0.20141 -0.79218,0.31965 -0.18045,0.11823 -0.43938,0.39796 -0.57539,0.62162 -0.13601,0.22365 -0.28652,0.73207 -0.33446,1.12982 -0.0479,0.39774 -0.13203,0.80664 -0.18685,0.90865 -0.0726,0.13512 -0.17715,0.0336 -0.38504,-0.37388 -0.15695,-0.30765 -0.31604,-0.85886 -0.35354,-1.22491 -0.0375,-0.36605 -0.004,-0.89942 0.0744,-1.18527 0.0784,-0.28584 0.38459,-0.83761 0.68036,-1.22616 l 0.53777,-0.70644 -0.54917,-0.51227 -0.54918,-0.51226 -0.74546,0.0676 c -0.41,0.0372 -0.92166,0.15871 -1.13702,0.27007 -0.21536,0.11137 -0.49185,0.35555 -0.61443,0.54263 -0.12258,0.18707 -0.28888,0.65487 -0.36957,1.03954 l -0.1467,0.6994 0.17265,0.3226 c 0.0949,0.17742 0.13495,0.42081 0.0889,0.54088 l -0.0838,0.21829 -0.20285,-0.16836 c -0.11157,-0.0926 -0.30758,-0.3769 -0.43558,-0.63179 -0.128,-0.2549 -0.30632,-0.77605 -0.39626,-1.15811 -0.093,-0.39521 -0.13852,-1.12688 -0.1055,-1.69726 l 0.058,-1.00259 0.54179,-1.11933 c 0.39141,-0.80866 0.69841,-1.24766 1.1061,-1.58174 0.31037,-0.25433 0.82234,-0.56138 1.1377,-0.68233 0.40274,-0.15447 0.9891,-0.22265 1.97013,-0.22909 0.7682,-0.005 1.39674,-0.0501 1.39674,-0.10017 0,-0.0501 -0.2105,-0.66397 -0.46777,-1.36426 -0.25728,-0.70029 -0.69857,-1.94563 -0.98066,-2.76744 -0.28209,-0.8218 -0.76827,-2.48814 -1.08041,-3.70298 -0.31213,-1.21484 -0.6368,-2.76823 -0.72148,-3.45198 -0.0955,-0.77125 -0.1325,-2.32491 -0.0974,-4.09276 l 0.0566,-2.84959 0.35482,-1.16937 c 0.19516,-0.64314 0.58066,-1.62088 0.85668,-2.17273 0.27602,-0.55185 0.7253,-1.34107 0.99841,-1.75383 0.27311,-0.41276 0.90584,-1.18391 1.40606,-1.71366 0.50023,-0.52976 1.33991,-1.30669 1.86596,-1.72651 0.52605,-0.41982 1.49077,-1.01688 2.14383,-1.3268 0.65306,-0.30992 1.62589,-0.67322 2.16185,-0.80733 0.63061,-0.15779 1.3871,-0.23861 2.14383,-0.22904 0.64315,0.008 1.57864,0.10499 2.07886,0.21525 0.50023,0.11026 1.24653,0.32738 1.65844,0.48248 0.41191,0.1551 1.03469,0.4743 1.38395,0.70934 l 0.63502,0.42734 0.88981,-0.43739 c 0.4894,-0.24056 1.38238,-0.55832 1.98441,-0.70614 0.60202,-0.14783 1.30627,-0.37676 1.56499,-0.50875 0.25871,-0.13199 0.7195,-0.51023 1.02397,-0.84054 l 0.55358,-0.60056 -0.0869,-0.57975 -0.0869,-0.57975 0.2008,0 c 0.11044,0 0.31151,0.16078 0.44682,0.3573 0.13531,0.19652 0.31105,0.53271 0.39051,0.74709 0.0795,0.21439 0.18271,0.58294 0.22943,0.81901 l 0.0849,0.42921 -0.35123,0.7179 c -0.19318,0.39484 -0.53774,0.90331 -0.76569,1.12993 -0.22795,0.22662 -0.67104,0.50391 -0.98465,0.61619 -0.3136,0.11228 -0.59225,0.27033 -0.61922,0.35123 -0.027,0.0809 0.37883,0.36431 0.90176,0.6298 l 0.95079,0.4827 1.07407,0.0595 1.07407,0.0595 0.64749,-0.64749 c 0.3597,-0.3597 0.64749,-0.76705 0.64749,-0.91648 0,-0.14795 -0.15859,-0.39374 -0.35242,-0.54621 -0.19384,-0.15248 -0.44233,-0.24824 -0.55221,-0.21282 -0.10987,0.0354 -0.33713,0.1058 -0.50502,0.15639 l -0.30527,0.092 0.21115,-0.40833 0.21116,-0.40832 0.43389,0 c 0.24327,0 0.58544,0.11921 0.77883,0.27133 0.18972,0.14924 0.42633,0.42872 0.52581,0.62108 0.13418,0.25949 0.15138,0.50755 0.0666,0.96122 -0.0628,0.33631 -0.20666,0.79019 -0.31961,1.00862 -0.11296,0.21843 -0.36336,0.46176 -0.55646,0.54074 -0.19309,0.079 -0.78839,0.17877 -1.32289,0.22179 l -0.9718,0.0782 0.51705,0.57401 c 0.28438,0.31572 0.77699,0.73961 1.09469,0.94199 0.3177,0.20238 0.70067,0.36797 0.85104,0.36797 0.15037,0 0.33467,-0.0613 0.40954,-0.13615 0.0949,-0.0949 0.23762,-0.0899 0.47116,0.0165 0.18426,0.0839 0.47154,0.11837 0.63842,0.0765 0.16687,-0.0419 0.54503,-0.31539 0.84036,-0.6078 0.35542,-0.3519 0.58553,-0.72456 0.68065,-1.10227 0.079,-0.31385 0.14368,-0.87119 0.14368,-1.23853 0,-0.47511 0.0469,-0.65308 0.16241,-0.61653 0.0893,0.0282 0.27528,0.39551 0.41324,0.81611 l 0.25082,0.76473 -0.21641,0.82509 c -0.11902,0.4538 -0.38611,1.07176 -0.59353,1.37324 -0.20742,0.30147 -0.6468,0.84807 -0.9764,1.21467 -0.32961,0.3666 -0.59928,0.72197 -0.59928,0.78972 0,0.0678 0.12,0.23179 0.26668,0.36452 0.14667,0.13274 0.49747,0.58697 0.77957,1.00942 l 0.5129,0.76807 0,1.12905 0,1.12904 -0.33356,0.66937 c -0.18346,0.36815 -0.53267,0.84419 -0.77602,1.05786 -0.24336,0.21367 -0.66156,0.44898 -0.92934,0.52292 -0.28651,0.0791 -0.53473,0.0866 -0.60316,0.0181 -0.0684,-0.0684 0.0904,-0.24757 0.38587,-0.43531 0.27619,-0.17547 0.60226,-0.43107 0.72459,-0.56801 0.12233,-0.13695 0.31235,-0.46423 0.42227,-0.72729 0.10991,-0.26307 0.19985,-0.62187 0.19985,-0.79734 0,-0.17546 -0.14936,-0.49653 -0.33191,-0.71348 -0.18255,-0.21694 -0.56564,-0.57956 -0.85131,-0.80582 l -0.51941,-0.41138 -0.28557,0.26094 c -0.15706,0.14352 -0.47268,0.35549 -0.70138,0.47104 -0.2287,0.11555 -0.56144,0.21009 -0.73943,0.21009 -0.17798,0 -0.35526,0.0512 -0.39395,0.11383 -0.0387,0.0626 0.0809,0.54496 0.26577,1.07191 l 0.33612,0.95809 -0.0554,0.97777 -0.0554,0.97776 -0.41382,0.77628 -0.41382,0.77628 -1.04701,0.82792 c -0.57585,0.45536 -1.27426,0.93772 -1.55202,1.07192 -0.28411,0.13727 -0.78477,0.24399 -1.1446,0.24399 -0.35177,0 -0.88467,-0.0865 -1.18422,-0.19216 -0.29955,-0.10568 -0.71059,-0.31032 -0.91341,-0.45475 -0.20283,-0.14442 -0.45602,-0.26259 -0.56264,-0.26259 -0.10662,0 -0.36797,0.1983 -0.58077,0.44066 -0.22171,0.25252 -0.45592,0.72834 -0.54854,1.11445 -0.0889,0.37058 -0.12993,0.86918 -0.0912,1.10799 0.0387,0.23882 0.16832,0.58356 0.28793,0.7661 0.1196,0.18253 0.53517,0.48219 0.92348,0.66589 0.38832,0.1837 0.67149,0.38988 0.62928,0.45818 -0.0422,0.0683 -0.26331,0.12361 -0.49134,0.12291 -0.22803,-4.6e-4 -0.70695,-0.13829 -1.06425,-0.30575 -0.35731,-0.16747 -0.94199,-0.53686 -1.29929,-0.82086 -0.37641,-0.2992 -0.80964,-0.81061 -1.03003,-1.21594 l -0.38039,-0.69956 -0.0555,-0.97945 -0.0555,-0.97944 0.26451,-0.77958 c 0.14548,-0.42877 0.30661,-0.88859 0.35807,-1.02184 l 0.0936,-0.24227 -0.66926,0.0921 c -0.3681,0.0506 -0.95923,0.0522 -1.31364,0.004 l -0.64438,-0.0886 -0.58012,-0.51064 c -0.34732,-0.30573 -0.66882,-0.74294 -0.8012,-1.08956 -0.14756,-0.38638 -0.20194,-0.80996 -0.1635,-1.27349 0.0327,-0.39456 0.16091,-0.83093 0.2968,-1.01031 0.13157,-0.17367 0.51756,-0.54806 0.85777,-0.83198 0.34021,-0.28391 0.68175,-0.53728 0.75899,-0.56303 0.0772,-0.0257 0.14044,0.0728 0.14044,0.21907 0,0.14623 -0.10966,0.54576 -0.24369,0.88785 -0.16229,0.41418 -0.20814,0.7168 -0.13726,0.90582 0.0585,0.15611 0.22283,0.34614 0.36508,0.42227 0.14226,0.0761 0.45848,0.13842 0.70273,0.13842 0.24578,0 0.63839,-0.13095 0.87925,-0.29326 0.23934,-0.1613 0.60443,-0.61442 0.81131,-1.00695 l 0.37614,-0.71369 -0.0633,-0.84454 c -0.0348,-0.4645 -0.21566,-1.31228 -0.40184,-1.88397 -0.18619,-0.57169 -0.39503,-1.12707 -0.4641,-1.23419 l -0.12557,-0.19476 -0.62199,0.60448 c -0.34209,0.33247 -0.95625,0.83586 -1.36481,1.11867 -0.40855,0.28279 -1.0018,0.58668 -1.31834,0.67531 l -0.57552,0.16114 -0.72746,-0.21148 c -0.40011,-0.11632 -0.92823,-0.38776 -1.17361,-0.60321 -0.24538,-0.21544 -0.60378,-0.66069 -0.79643,-0.98943 l -0.35029,-0.59771 0.0733,-0.71029 c 0.0463,-0.44901 0.19639,-0.89627 0.40791,-1.2159 0.18403,-0.27809 0.39224,-0.50561 0.46269,-0.50561 0.0705,0 0.12808,0.0803 0.12808,0.17855 0,0.0982 -0.0877,0.42714 -0.19489,0.73095 -0.1072,0.30381 -0.1949,0.7231 -0.1949,0.93175 0,0.22668 0.12489,0.50424 0.31031,0.68966 0.17067,0.17067 0.52519,0.35062 0.78783,0.39989 0.3386,0.0635 0.6287,0.0214 0.99713,-0.14472 0.28578,-0.12887 0.66535,-0.40752 0.84348,-0.61921 0.17813,-0.2117 0.45811,-0.6543 0.62217,-0.98355 0.16407,-0.32925 0.36812,-0.88353 0.45344,-1.23173 0.0853,-0.3482 0.29866,-0.91631 0.47408,-1.26249 0.17542,-0.34617 0.31894,-0.68319 0.31894,-0.74894 0,-0.0657 -0.39466,-0.19538 -0.87702,-0.28807 -0.48237,-0.0927 -1.12542,-0.15905 -1.42901,-0.14746 -0.3036,0.0116 -1.02938,0.14296 -1.61285,0.29194 -0.58347,0.14897 -1.2998,0.3903 -1.59184,0.53628 -0.29204,0.14598 -0.94917,0.58264 -1.4603,0.97034 -0.51112,0.38771 -1.16441,1.01005 -1.45175,1.38299 -0.28734,0.37294 -0.73291,1.11658 -0.99017,1.65254 -0.25727,0.53596 -0.58231,1.35745 -0.72234,1.82552 -0.14002,0.46808 -0.37253,1.54093 -0.51668,2.38412 -0.15556,0.90997 -0.26209,2.12224 -0.26209,2.98266 0,0.79727 0.0857,2.18008 0.19051,3.0729 0.10479,0.89283 0.30607,2.17877 0.4473,2.85765 0.14123,0.67888 0.40934,1.75727 0.5958,2.39643 0.18646,0.63916 0.51681,1.58916 0.7341,2.11111 0.21729,0.52196 0.44232,0.97822 0.50007,1.01391 0.0577,0.0357 0.6224,-0.44657 1.25478,-1.07169 0.81167,-0.80234 1.40305,-1.26085 2.01102,-1.5592 0.47368,-0.23246 1.14606,-0.47644 1.49418,-0.54219 0.35,-0.0661 1.15572,-0.0754 1.80232,-0.0207 0.81512,0.0689 1.34639,0.18971 1.75372,0.39881 0.3214,0.165 0.9148,0.63769 1.31866,1.05043 0.50095,0.51196 0.82106,0.9823 1.00728,1.48002 0.15078,0.40299 0.27296,1.03671 0.27296,1.41572 0,0.37739 -0.091,0.99259 -0.20222,1.36713 -0.11207,0.37736 -0.3986,0.89833 -0.64269,1.1685 -0.24225,0.26815 -0.72132,0.63809 -1.06458,0.8221 -0.34327,0.184 -0.75568,0.37434 -0.91646,0.42297 -0.16079,0.0486 -0.29234,0.0338 -0.29234,-0.0331 0,-0.0668 0.28525,-0.49469 0.6339,-0.95074 0.34864,-0.45605 0.70903,-1.04244 0.80085,-1.30309 l 0.16696,-0.47392 -0.18037,-0.43559 c -0.0992,-0.23958 -0.42003,-0.67529 -0.71294,-0.96826 -0.29291,-0.29296 -0.69922,-0.56452 -0.90291,-0.60346 -0.20368,-0.0389 -0.65335,0.0132 -0.99926,0.11597 -0.34589,0.10273 -0.83571,0.36834 -1.08846,0.59027 -0.25276,0.22192 -0.54428,0.56732 -0.64782,0.76754 -0.10354,0.20023 -0.18825,0.66117 -0.18825,1.02432 0,0.36315 0.082,0.85658 0.18227,1.0965 0.10024,0.23993 0.39761,0.6746 0.66081,0.96593 0.2632,0.29133 0.67816,0.60187 0.92213,0.69009 0.24397,0.0882 0.44358,0.19985 0.44358,0.24807 0,0.0482 -0.15212,0.43113 -0.33805,0.85092 -0.18593,0.41979 -0.39353,1.11827 -0.46132,1.55217 l -0.12325,0.78892 0.19031,0.91273 c 0.10467,0.50201 0.52377,1.63793 0.93133,2.52428 0.40757,0.88635 0.94272,2.07902 1.18923,2.65038 0.24651,0.57136 0.54125,1.14166 0.65497,1.26732 0.11373,0.12567 0.65063,0.48533 1.19313,0.79925 0.54249,0.31392 1.11422,0.70835 1.27051,0.87651 0.1563,0.16816 0.47258,0.71502 0.70285,1.21525 0.27633,0.6003 0.69983,1.20449 1.24567,1.77718 0.45485,0.47722 0.93893,1.12072 1.07574,1.43 0.13681,0.30928 0.31035,0.94202 0.38564,1.40609 0.0753,0.46407 0.13733,1.14593 0.13787,1.51526 4.5e-4,0.36932 0.0365,0.76398 0.0798,0.87702 0.0434,0.11304 0.13458,0.20552 0.20267,0.20552 0.0681,0 0.44253,-0.30143 0.83208,-0.66986 0.38956,-0.36842 0.74772,-0.63041 0.79593,-0.58221 0.0482,0.0482 -0.0283,0.29059 -0.17008,0.53861 -0.14175,0.24803 -0.56666,0.71467 -0.94424,1.03696 -0.37758,0.32231 -0.74033,0.58601 -0.8061,0.58601 -0.0658,0 -0.38258,0.35724 -0.704,0.79386 -0.32143,0.43662 -0.58442,0.87512 -0.58442,0.97442 0,0.1053 0.13343,0.1806 0.31995,0.1806 0.17597,0 0.65078,-0.1237 1.05514,-0.275 l 0.73519,-0.2751 0.86921,-0.89721 c 0.47806,-0.49348 0.90578,-0.86066 0.95047,-0.81597 0.0447,0.0447 0.023,0.23603 -0.0481,0.4252 -0.0712,0.18917 -0.34514,0.56801 -0.60887,0.84188 -0.26372,0.2738 -0.71337,0.6351 -0.99921,0.8027 -0.3554,0.2085 -1.11921,0.4091 -2.41583,0.6345 -1.04286,0.1813 -2.05524,0.3901 -2.24974,0.464 -0.19449,0.074 -0.78615,0.1345 -1.31479,0.1345 l -0.96117,0 -0.54726,0.812 c -0.30098,0.4467 -0.99016,1.2715 -1.5315,1.833 -0.54135,0.5614 -1.33507,1.2707 -1.76383,1.5761 -0.42877,0.3053 -1.08307,0.7076 -1.454,0.8938 -0.37093,0.1863 -1.13102,0.4687 -1.68908,0.6276 l -1.01466,0.2889 -1.55915,-0 c -1.15997,-10e-4 -1.85006,-0.074 -2.69543,-0.2846 -0.62495,-0.1554 -1.61891,-0.5 -2.20879,-0.7659 -0.58989,-0.2659 -1.44392,-0.7056 -1.89785,-0.9771 -0.45394,-0.2715 -0.8771,-0.4936 -0.94036,-0.4936 -0.0633,0 -0.26996,0.2485 -0.45934,0.5522 -0.18936,0.3037 -0.68708,1.0676 -1.10602,1.6976 -0.50523,0.7597 -0.76172,1.2766 -0.76172,1.5352 0,0.2144 0.0602,0.5023 0.13378,0.6398 0.0736,0.1375 0.30455,0.3383 0.51326,0.4462 0.20872,0.1079 0.50015,0.1962 0.64763,0.1962 0.15491,0 0.54062,-0.288 0.91341,-0.6821 l 0.64529,-0.6821 -2.7e-4,0.3898 c -1.3e-4,0.2143 -0.10841,0.6278 -0.24053,0.9187 -0.13213,0.2909 -0.45392,0.705 -0.7151,0.9203 l -0.47487,0.3914 0.26034,0.5739 c 0.14319,0.3156 0.26163,0.7705 0.2632,1.011 0.001,0.2404 -0.15343,0.7243 -0.34444,1.0752 -0.19101,0.351 -0.41005,0.6172 -0.48676,0.5916 -0.0767,-0.025 -0.17392,-0.2584 -0.21602,-0.5174 -0.0438,-0.2695 -0.21073,-0.5826 -0.39026,-0.7321 -0.17254,-0.1436 -0.40731,-0.2631 -0.5217,-0.2655 -0.11439,-0 -0.38457,0.057 -0.6004,0.1325 -0.23006,0.08 -0.48982,0.3177 -0.62785,0.574 l -0.23543,0.4371 0.16134,0.5385 c 0.0887,0.2962 0.36819,0.7675 0.62101,1.0474 0.25282,0.2798 0.64405,0.6224 0.86939,0.7613 l 0.40971,0.2525 0.62561,-0.1174 c 0.34408,-0.065 0.87029,-0.2312 1.16936,-0.3703 0.29907,-0.1392 0.73349,-0.3796 0.96537,-0.5345 l 0.42161,-0.2814 0.0798,0.2078 c 0.0443,0.1155 -0.13236,0.6545 -0.3976,1.2131 -0.26255,0.5528 -0.6231,1.1962 -0.80124,1.4298 -0.17813,0.2335 -0.55643,0.5432 -0.84065,0.6882 -0.28423,0.145 -0.48485,0.3153 -0.44582,0.3785 0.039,0.063 0.43576,0.232 0.88161,0.3752 0.44586,0.1433 1.14178,0.3526 1.5465,0.4653 0.50368,0.1402 0.84078,0.3295 1.06845,0.6001 0.18294,0.2174 0.39747,0.6119 0.47674,0.8766 0.0793,0.2648 0.12468,0.6815 0.10091,0.9262 -0.0238,0.2446 -0.1109,0.4669 -0.19362,0.494 -0.0827,0.027 -0.45009,-0.2169 -0.81639,-0.5422 -0.36985,-0.3285 -0.79566,-0.5915 -0.95758,-0.5915 -0.16036,0 -0.42152,0.091 -0.58034,0.2023 -0.15882,0.1112 -0.28877,0.3167 -0.28877,0.4566 0,0.14 0.1965,0.4688 0.43666,0.7309 l 0.43666,0.4765 1.10675,0.074 1.10675,0.074 0.69971,0.4819 c 0.38484,0.2651 1.02046,0.7718 1.41248,1.126 l 0.71277,0.6441 -0.1949,0.1845 c -0.10719,0.1015 -0.42876,0.2506 -0.71461,0.3314 -0.28584,0.081 -0.72363,0.3171 -0.97286,0.5253 l -0.45314,0.3786 0.5353,0.5353 0.53531,0.5353 0.53917,0 c 0.29655,0 0.72732,-0.08 0.95727,-0.177 0.22996,-0.097 0.52948,-0.3019 0.66562,-0.4547 0.13613,-0.1528 0.32615,-0.2778 0.42227,-0.2778 0.0961,0 0.17475,0.1025 0.17475,0.2278 0,0.1253 -0.10956,0.6109 -0.24347,1.0791 -0.1339,0.4683 -0.34107,1.0402 -0.46036,1.2708 -0.11929,0.2307 -0.56708,0.6773 -0.99508,0.9923 -0.428,0.3151 -0.88503,0.6068 -1.01562,0.6483 l -0.23744,0.075 -0.0815,0.7798 c -0.0448,0.4289 -0.17189,0.9546 -0.28235,1.1683 -0.11047,0.2136 -0.47663,0.5907 -0.81371,0.838 -0.33708,0.2473 -0.72201,0.4511 -0.8554,0.4529 l -0.24253,0 0.0811,-0.2923 c 0.0446,-0.1608 0.11809,-0.6273 0.16329,-1.0366 l 0.0822,-0.7441 -0.53095,-0.531 -0.53094,-0.5309 -0.2653,0.142 c -0.14592,0.078 -0.2984,0.2738 -0.33886,0.435 -0.0429,0.171 0.0918,0.7416 0.32329,1.3694 0.21826,0.592 0.39556,1.2039 0.39399,1.3598 -0.001,0.1559 -0.115,0.5305 -0.25205,0.8324 -0.13706,0.3019 -0.59828,0.9079 -1.02493,1.3466 -0.42666,0.4388 -0.83783,0.7594 -0.91373,0.7124 -0.0759,-0.047 -0.20778,-0.3181 -0.29306,-0.6028 -0.0853,-0.2846 -0.34507,-0.7353 -0.5773,-1.0015 l -0.42225,-0.4839 -0.15636,0.1519 -0.15638,0.1519 0.16136,0.6726 c 0.0911,0.3798 0.12549,0.9344 0.0789,1.2739 l -0.0824,0.6012 -0.75026,0.9779 c -0.41265,0.5379 -0.9396,1.368 -1.171,1.8448 l -0.42074,0.8669 -0.60382,0.3999 c -0.4105,0.2719 -0.76319,0.4 -1.10132,0.4 -0.35555,0 -0.49744,-0.056 -0.49744,-0.1949 0,-0.1072 0.0523,-0.1949 0.11619,-0.1949 0.0639,0 0.29778,-0.1697 0.51971,-0.377 l 0.40353,-0.3769 -0.001,-0.63 c -9.1e-4,-0.4309 -0.10374,-0.8088 -0.32482,-1.1955 -0.1778,-0.311 -0.32326,-0.6491 -0.32326,-0.7514 0,-0.1023 0.14617,-0.4744 0.32482,-0.827 0.17865,-0.3525 0.32482,-0.7014 0.32482,-0.7752 0,-0.074 -0.0558,-0.1343 -0.12397,-0.1343 -0.0682,0 -0.33131,0.2716 -0.58472,0.6035 -0.25341,0.3318 -0.52039,0.8434 -0.5933,1.1368 -0.0729,0.2934 -0.24134,0.7692 -0.3743,1.0574 -0.13295,0.2881 -0.40005,0.712 -0.59356,0.9419 -0.19351,0.23 -0.45568,0.4182 -0.58262,0.4182 -0.12693,0 -0.38806,0.1237 -0.58029,0.2749 -0.19223,0.1512 -0.61504,0.678 -0.93959,1.1706 -0.34641,0.5258 -0.90682,1.1445 -1.3571,1.4983 -0.42185,0.3314 -0.767,0.7018 -0.767,0.8231 0,0.1214 0.11904,0.3283 0.26453,0.46 0.14549,0.1317 0.51092,0.2723 0.81206,0.3125 0.36759,0.049 0.54752,0.1371 0.54752,0.268 0,0.1071 -0.20464,0.2646 -0.45475,0.3499 -0.25011,0.085 -0.65939,0.1524 -0.9095,0.149 z m -33.00914,-25.0555 c 0.0591,0 0.20487,-0.2053 0.323929,-0.4562 0.119063,-0.2509 0.17899,-0.5169 0.133169,-0.591 -0.05558,-0.09 -0.148826,-0.08 -0.280172,0.029 -0.108277,0.09 -0.249659,0.3022 -0.314189,0.4719 -0.06452,0.1698 -0.08422,0.3622 -0.04375,0.4277 0.04047,0.066 0.121919,0.119 0.181023,0.119 z m 21.96142,-13.7725 c 0.0572,0 0.19843,-0.1989 0.31376,-0.4419 0.11533,-0.2431 0.2097,-0.5517 0.2097,-0.6857 0,-0.1341 -0.0913,-0.3741 -0.20278,-0.5334 -0.11153,-0.1592 -0.38093,-0.3816 -0.59867,-0.4942 -0.22549,-0.1166 -0.5297,-0.1711 -0.70673,-0.1267 -0.17096,0.043 -0.31083,0.1684 -0.31083,0.279 0,0.1105 0.0665,0.3286 0.14771,0.4847 0.0812,0.1561 0.34932,0.5616 0.59574,0.901 0.24643,0.3394 0.49487,0.6172 0.5521,0.6172 z m 46.06364,-44.9712 c 0.0715,0.008 0.34807,-0.0464 0.61468,-0.12041 0.30248,-0.084 0.61479,-0.3051 0.83057,-0.588 l 0.3458,-0.45338 -0.077,-0.91838 c -0.0423,-0.50511 -0.15972,-1.04412 -0.26084,-1.1978 -0.10111,-0.15368 -0.46631,-0.59312 -0.81157,-0.97654 l -0.62773,-0.69713 -0.0953,0.24238 c -0.0524,0.1333 -0.0994,0.52194 -0.10441,0.86363 -0.005,0.3417 -0.13016,0.98484 -0.2781,1.42922 -0.14793,0.44438 -0.44738,1.03264 -0.66544,1.30724 l -0.39648,0.49927 0.20187,0.20187 c 0.11103,0.11103 0.4251,0.24506 0.69793,0.29784 0.27283,0.0528 0.55452,0.10237 0.62599,0.11019 z m -45.865,-18.69413 c 0.0834,0 0.1885,-0.0369 0.23363,-0.082 0.0451,-0.0451 0.0236,-0.1913 -0.0479,-0.32483 -0.0715,-0.13352 -0.21558,-0.24277 -0.32025,-0.24277 -0.10468,0 -0.19032,0.10719 -0.19032,0.2382 0,0.13101 0.039,0.27718 0.0866,0.32482 0.0476,0.0476 0.15483,0.0866 0.2382,0.0866 z m 2.07886,-0.25986 0.97447,0 0,-0.26404 c 0,-0.14521 -0.0828,-0.46208 -0.18389,-0.70415 -0.10114,-0.24206 -0.29116,-0.49638 -0.42227,-0.56515 -0.13839,-0.0726 -0.36066,-0.0789 -0.52989,-0.015 -0.16034,0.0606 -0.40861,0.30213 -0.55172,0.53685 -0.1431,0.23472 -0.26041,0.55831 -0.26068,0.7191 l -4.6e-4,0.29234 0.97447,0 z m 4.5552,-5.71689 0.96679,0 0,-0.19226 c 0,-0.10575 -0.30695,-0.36831 -0.68212,-0.58346 -0.37517,-0.21516 -0.77992,-0.39175 -0.89943,-0.39242 -0.13343,-9.1e-4 -0.27491,0.17333 -0.36655,0.45099 -0.0821,0.24872 -0.1124,0.51183 -0.0674,0.58468 0.045,0.0729 0.51693,0.13247 1.04867,0.13247 z"
       id="path4147"
       inkscape:connector-curvature="0" />
  </g>
</svg>
