<?xml version="1.0" encoding="UTF-8" standalone="no"?>
<!-- Created with Inkscape (http://www.inkscape.org/) -->

<svg
   xmlns:dc="http://purl.org/dc/elements/1.1/"
   xmlns:cc="http://creativecommons.org/ns#"
   xmlns:rdf="http://www.w3.org/1999/02/22-rdf-syntax-ns#"
   xmlns:svg="http://www.w3.org/2000/svg"
   xmlns="http://www.w3.org/2000/svg"
   xmlns:sodipodi="http://sodipodi.sourceforge.net/DTD/sodipodi-0.dtd"
   xmlns:inkscape="http://www.inkscape.org/namespaces/inkscape"
   width="256"
   height="128"
   viewBox="0 0 256 128"
   id="svg2"
   version="1.1"
   inkscape:version="0.91 r13725"
   sodipodi:docname="house_stark.svg"
   inkscape:export-filename="C:\Users\Greene\Documents\Firaxis ModBuddy\XCOM\Game of Thrones\imageSource\UIhouse_stark.png"
   inkscape:export-xdpi="45"
   inkscape:export-ydpi="45">
  <defs
     id="defs4" />
  <sodipodi:namedview
     id="base"
     pagecolor="#ffffff"
     bordercolor="#666666"
     borderopacity="1.0"
     inkscape:pageopacity="0.0"
     inkscape:pageshadow="2"
     inkscape:zoom="2.8"
     inkscape:cx="135.13652"
     inkscape:cy="97.76644"
     inkscape:document-units="px"
     inkscape:current-layer="layer1"
     showgrid="false"
     units="px"
     showborder="true"
     inkscape:window-width="1920"
     inkscape:window-height="1138"
     inkscape:window-x="-8"
     inkscape:window-y="-8"
     inkscape:window-maximized="1"
     inkscape:snap-nodes="false" />
  <metadata
     id="metadata7">
    <rdf:RDF>
      <cc:Work
         rdf:about="">
        <dc:format>image/svg+xml</dc:format>
        <dc:type
           rdf:resource="http://purl.org/dc/dcmitype/StillImage" />
        <dc:title />
      </cc:Work>
    </rdf:RDF>
  </metadata>
  <g
     inkscape:label="Layer 1"
     inkscape:groupmode="layer"
     id="layer1"
     transform="translate(0,-924.36216)">
    <rect
       style="fill:#fafafa;fill-opacity:1;stroke:none;stroke-width:4;stroke-linecap:round;stroke-linejoin:round;stroke-miterlimit:4;stroke-dasharray:none;stroke-opacity:1"
       id="rect4182"
       width="256"
       height="128"
       x="0"
       y="924.36218"
       ry="0" />
    <path
       style="fill:#7c7c7c;fill-opacity:1"
       d="m 108.41723,1044.1415 -0.68899,4.334 -2.52071,-5.3664 c -1.38639,-2.9515 -2.76146,-7.7237 -3.05571,-10.6048 l -0.53502,-5.2384 -5.700858,0.3669 -5.700872,0.3668 0.250556,-1.9011 c 0.137801,-1.0457 0.43918,-3.6856 0.669733,-5.8665 l 0.419183,-3.9654 -3.838826,0.5125 c -2.111353,0.2818 -5.186876,0.719 -6.834484,0.9714 l -2.995662,0.459 0.916562,-2.4361 c 0.504108,-1.3398 0.916556,-4.0896 0.916556,-6.1105 0,-2.3467 -0.417372,-3.6542 -1.155055,-3.6186 -0.635277,0.031 -3.12276,0.383 -5.527736,0.7832 l -4.372681,0.7275 0.334171,-6.3858 0.334171,-6.38595 -3.062682,0 c -1.684473,0 -4.135194,0.41204 -5.446058,0.91571 l -2.383383,0.9157 0.421903,-2.08298 c 0.232046,-1.14553 0.677761,-3.68641 0.990487,-5.64623 l 0.568583,-3.56345 -2.132428,1.10987 -2.132421,1.10977 1.155056,-1.23489 c 0.635284,-0.67907 1.155055,-1.50377 1.155055,-1.83233 0,-0.32866 -1.616678,-1.13677 -3.592618,-1.79574 -1.975939,-0.65898 -4.782727,-2.18185 -6.237298,-3.38412 l -2.644682,-2.18595 3.635442,-0.0336 c 1.999499,-0.0185 5.430009,-0.91147 7.623373,-1.98444 2.193355,-1.07298 3.987916,-2.25575 3.987916,-2.62839 0,-0.37265 -1.559321,-1.46246 -3.465166,-2.42183 l -3.465166,-1.74429 5.677867,-0.76962 c 3.122819,-0.4233 7.231756,-1.42572 9.130955,-2.22762 l 3.453094,-1.458 -3.586689,-2.50404 -3.586696,-2.50406 7.854376,-0.50621 c 4.319907,-0.27842 8.868489,-1.07102 10.107958,-1.76133 l 2.253581,-1.25512 -4.332681,-2.22513 c -2.382977,-1.22382 -4.332141,-2.32212 -4.331483,-2.44068 6.65e-4,-0.11855 3.015356,-0.23059 6.699321,-0.249 4.679575,-0.0234 7.655382,-0.55035 9.874588,-1.74866 l 3.176465,-1.71521 -2.974831,-2.45334 -2.974831,-2.45335 7.652743,0.31007 c 4.229262,0.17136 8.856032,-0.15715 10.342522,-0.73433 l 2.68977,-1.04441 -3.15179,-3.37455 c -2.25296,-2.41219 -2.62476,-3.16774 -1.30371,-2.64937 1.01645,0.39884 3.90878,1.12703 6.42741,1.61821 2.51863,0.49116 6.37322,0.62118 8.56575,0.28893 l 3.98641,-0.6041 -2.79047,-3.421 c -1.53476,-1.88154 -2.79047,-3.71586 -2.79047,-4.07627 0,-0.36042 1.87948,0.40624 4.17662,1.70366 2.58176,1.45818 6.28406,2.55206 9.69562,2.86467 3.03545,0.27814 7.91657,-0.008 10.84694,-0.63686 l 5.32793,-1.14258 7.84655,2.02922 c 4.31559,1.11606 10.34146,2.64145 13.3908,3.38976 3.87496,0.95091 6.51802,2.30432 8.77842,4.49511 l 3.23416,3.13456 5.08224,0.67188 c 2.79523,0.36954 7.07278,1.46138 9.50566,2.42632 2.43288,0.96494 5.41357,1.75443 6.62375,1.75443 1.21018,0 2.85806,0.25506 3.66196,0.5668 0.80391,0.31173 1.46165,1.33743 1.46165,2.27934 0,0.9419 -0.42213,1.97617 -0.93805,2.29839 -0.51592,0.32221 -1.51584,1.92277 -2.22203,3.55679 -0.7062,1.63401 -3.39814,5.28203 -5.98208,8.1067 -2.58395,2.82469 -5.51946,6.08125 -6.52337,7.2368 -1.0039,1.15556 -2.54616,1.85001 -3.34323,2.101 -1.90624,0.60029 -1.57421,0.22021 -1.0457,-1.16722 0.24656,-0.64725 0.78309,-1.95146 1.16302,-2.90997 l 0.69078,-1.74274 -1.92746,1.0424 c -1.0601,0.57333 -2.80163,0.86252 -3.83629,1.04242 -2.16997,0.37731 -1.76625,0.91109 -1.79941,-0.70034 0.0602,-0.38518 0.0602,-1.22558 0,-1.86755 -0.0602,-0.64197 -0.59646,-1.16723 -1.19172,-1.16723 -0.59526,0 -1.80507,0.66099 -2.68844,1.46886 l -1.60616,1.46886 -0.60797,-1.93575 c -0.3344,-1.06466 -1.06699,-1.93575 -1.62801,-1.93575 -0.56102,0 -1.75063,0.66815 -2.64359,1.48479 l -1.62358,1.48479 -2.07729,-2.41428 -2.07731,-2.41428 -1.75586,1.60579 -1.75587,1.60578 -1.65058,-2.21125 c -0.92195,-1.23514 -2.11445,-1.92157 -2.70141,-1.55498 -0.57794,0.36097 -1.05083,1.45712 -1.05083,2.43589 0,0.97878 0.74497,2.1825 1.65548,2.67493 0.91052,0.49241 2.47289,0.85205 3.46517,0.73319 1.73882,-0.20831 1.9443,-0.96463 1.52833,1.51529 l -0.28137,1.67744 2.59148,-0.27677 2.77815,-0.46542 0.10859,2.28966 c 0.0633,1.33584 0.93476,2.101 2.02457,2.101 0.9511,0 1.99047,-0.42706 2.30969,-0.94901 2.23245,-2.3694 1.72294,-1.18324 2.3008,1.9379 0,0.99686 0.38116,1.81245 0.84704,1.81245 0.46586,0 0.98961,-0.54052 1.25106,-1.16722 0.67454,-1.61688 -0.32,-1.81666 2.38711,0.61162 l 1.9831,1.77883 1.29382,-0.8784 c 1.16058,-0.78796 1.43345,-0.96979 1.9754,-1.21861 2.90537,-1.33398 2.53906,-1.3195 2.27504,0.80214 -0.12195,0.98004 -0.98265,2.98372 -2.18367,4.43545 -1.20102,1.45172 -2.49937,3.69001 -2.88523,4.97405 -0.38585,1.28384 -1.12664,2.87089 -1.6462,3.52667 -0.51956,0.65567 -2.75568,2.4274 -4.96915,3.93695 l -4.0245,2.74473 0,-2.87573 0,-2.87582 -2.65814,0.39431 -2.65814,0.39421 0.11702,-2.72546 c 0.0834,-1.94168 -0.59002,-3.26757 -2.34106,-4.61005 l -2.45807,-1.88427 -3.21393,0.6092 c -1.76768,0.33515 -4.61183,1.54499 -6.32035,2.68856 -1.79057,1.1985 -4.18281,4.22635 -5.64753,7.14804 -1.39762,2.78792 -2.54113,6.09544 -2.54113,7.35024 l 0,2.2814 -1.38606,-1.1625 c -0.76234,-0.6394 -1.38607,-1.7927 -1.38607,-2.5632 l 0,-1.4006 -1.30095,1.091 c -0.71552,0.6001 -2.01116,2.6036 -2.8792,4.4521 -0.86805,1.8486 -1.55615,4.9807 -1.52911,6.9604 0.0271,1.9797 -0.15391,3.5994 -0.4021,3.5994 -0.24819,0 -1.05934,-1.4707 -1.80257,-3.2682 -0.74322,-1.7975 -1.73097,-3.2682 -2.19499,-3.2682 -0.46403,0 -1.96691,2.32 -3.33974,5.1555 l -2.49605,5.1555 0.46885,4.2034 0.46885,4.2034 -1.18426,-0.9931 c -0.65134,-0.5463 -1.44829,-2.0564 -1.77101,-3.3558 -0.32272,-1.2993 -1.08739,-2.1939 -1.69927,-1.9877 -0.61188,0.2061 -1.90258,1.7417 -2.86822,3.4126 -0.96564,1.6708 -2.03349,5.4189 -2.37299,8.3291 l -0.61726,5.2911 -1.69566,-3.4208 c -0.98855,-1.9942 -2.18844,-3.2296 -2.87737,-2.9625 -0.64995,0.252 -1.87849,1.942 -2.73009,3.7556 -0.85162,1.8135 -1.85843,5.2477 -2.23737,7.6314 z m 29.05422,-84.38668 c 3.04935,-0.2994 5.96009,-0.59033 6.46831,-0.64653 0.50823,-0.0562 1.9636,0.21286 3.23416,0.59793 l 2.31011,0.70011 -2.12215,-1.57053 c -1.49887,-1.10929 -3.66997,-1.5133 -7.39235,-1.37563 -2.89862,0.1072 -6.19009,0.14474 -7.31438,0.0834 -1.1243,-0.0613 -4.5875,-2.40477 -7.696,-5.20766 -3.10849,-2.80288 -6.45078,-5.3524 -7.42728,-5.66559 -0.9765,-0.3132 -1.77546,-0.96134 -1.77546,-1.44031 0,-0.47897 1.4679,-0.87085 3.262,-0.87085 1.7941,0 5.73186,-1.0505 8.75058,-2.33445 3.01871,-1.28394 6.76921,-2.33445 8.33444,-2.33445 1.56522,0 4.02951,0.61854 5.47619,1.37452 1.44668,0.75599 3.49196,2.54185 4.54506,3.96857 1.26601,1.71516 1.92465,2.10316 1.94401,1.14519 0.016,-0.79686 -1.90123,-3.45598 -4.26073,-5.90915 -2.68487,-1.92885 -3.81229,-2.11435 -7.3643,-2.5212 -0.9594,-0.12951 -3.82344,0.12692 -6.36456,0.56986 -2.95385,1.77539 -6.20206,2.98083 -7.52627,3.62938 -0.77182,0.29929 -2.83772,0.54417 -4.59089,0.54417 -2.13211,0 -3.38473,0.51917 -3.78297,1.56792 -0.41691,1.09791 0.35149,2.2876 2.56323,3.96857 1.73725,1.32036 5.03292,4.12285 7.32372,6.22777 2.2908,2.10492 4.99673,4.32578 6.01318,4.93521 1.18478,0.71036 3.838,0.91269 7.39235,0.56374 z m 35.80672,-10.76414 c 0.38116,0.0205 0.60374,-1.34488 0.69303,-2.1001 0.12068,-1.02068 -0.62569,-0.95411 -2.27046,-1.20412 -1.27317,-0.19353 -2.80808,-0.39402 -3.46516,-0.17179 -0.71078,0.24038 -0.0718,1.01865 1.57742,1.92135 1.52468,0.8345 3.084,1.5341 3.46517,1.55466 z"
       id="path4180"
       inkscape:connector-curvature="0"
       sodipodi:nodetypes="ccssccccsccccsssccccsscssccccsssccssscsscccsscscsscccsscsssscssssccssscssscsssssssscsscssscssscccccsssssscccssccssscsssccsscccccsccscssccscccsscssccccsscscscsccscscssssssssssscccccsssssscsscsc" />
  </g>
</svg>
