<?xml version="1.0" encoding="UTF-8" standalone="no"?>
<!-- Created with Inkscape (http://www.inkscape.org/) -->

<svg
   xmlns:dc="http://purl.org/dc/elements/1.1/"
   xmlns:cc="http://creativecommons.org/ns#"
   xmlns:rdf="http://www.w3.org/1999/02/22-rdf-syntax-ns#"
   xmlns:svg="http://www.w3.org/2000/svg"
   xmlns="http://www.w3.org/2000/svg"
   xmlns:sodipodi="http://sodipodi.sourceforge.net/DTD/sodipodi-0.dtd"
   xmlns:inkscape="http://www.inkscape.org/namespaces/inkscape"
   width="256"
   height="128"
   viewBox="0 0 256 128"
   id="svg2"
   version="1.1"
   inkscape:version="0.91 r13725"
   sodipodi:docname="house_mormont.svg"
   inkscape:export-filename="C:\Users\Greene\Documents\Firaxis ModBuddy\XCOM\Game of Thrones\imageSource\house_mormont.png"
   inkscape:export-xdpi="90"
   inkscape:export-ydpi="90">
  <defs
     id="defs4">
    <clipPath
       clipPathUnits="userSpaceOnUse"
       id="clipPath4162">
      <rect
         style="fill:#5fce6f;fill-opacity:0.50649348;stroke:none;stroke-width:0.25;stroke-linecap:round;stroke-linejoin:round;stroke-miterlimit:4;stroke-dasharray:none;stroke-opacity:0.6168831"
         id="rect4164"
         width="78.074539"
         height="59.857166"
         x="-138.65808"
         y="833.10699" />
    </clipPath>
  </defs>
  <sodipodi:namedview
     id="base"
     pagecolor="#ffffff"
     bordercolor="#666666"
     borderopacity="1.0"
     inkscape:pageopacity="0.0"
     inkscape:pageshadow="2"
     inkscape:zoom="3.959798"
     inkscape:cx="115.46322"
     inkscape:cy="66.743966"
     inkscape:document-units="px"
     inkscape:current-layer="layer1"
     showgrid="false"
     units="px"
     showborder="true"
     inkscape:window-width="1920"
     inkscape:window-height="1138"
     inkscape:window-x="-8"
     inkscape:window-y="-8"
     inkscape:window-maximized="1"
     inkscape:snap-nodes="false" />
  <metadata
     id="metadata7">
    <rdf:RDF>
      <cc:Work
         rdf:about="">
        <dc:format>image/svg+xml</dc:format>
        <dc:type
           rdf:resource="http://purl.org/dc/dcmitype/StillImage" />
        <dc:title />
      </cc:Work>
    </rdf:RDF>
  </metadata>
  <g
     inkscape:label="Layer 1"
     inkscape:groupmode="layer"
     id="layer1"
     transform="translate(0,-924.36216)">
    <rect
       style="fill:#edecbe;fill-opacity:1;stroke:none;stroke-width:4;stroke-linecap:round;stroke-linejoin:round;stroke-miterlimit:4;stroke-dasharray:none;stroke-opacity:1"
       id="rect4182"
       width="256"
       height="128"
       x="0"
       y="924.36218"
       ry="0" />
    <path
       style="fill:#1b1818"
       d="m 87.895691,943.45926 c -0.4392,0 -1.621581,0.62928 -2.627778,1.39675 -1.172381,0.89422 -1.829964,1.84616 -1.829964,2.65144 0,0.75101 0.532859,1.60639 1.325723,2.12589 l 1.328091,0.86882 -2.059611,2.33896 c -1.335419,1.51711 -2.474492,3.62953 -3.240921,6.0131 0,0 -1.04094,2.39537 -1.181314,3.67415 -0.13343,1.21553 0.338537,3.65283 0.338537,3.65283 0.186383,2.00955 0.602941,4.68689 0.925636,5.94918 0,0 0.09262,1.68015 0.587112,2.29634 0.581796,0.72498 2.488091,1.25943 2.488091,1.25943 1.367722,0.69309 2.734079,1.57809 3.037331,1.96728 0.303241,0.38921 1.058966,2.02674 1.680828,3.63863 0.621863,1.61189 1.713204,4.43575 2.424179,6.27589 0.710987,1.84013 2.096793,4.69842 3.079943,6.35162 0.983137,1.65318 3.178437,4.50859 4.879131,6.34453 1.700715,1.836 5.178235,4.9149 7.727065,6.8416 2.54882,1.9268 4.99348,3.4385 5.43309,3.3593 l 0.80016,-0.1443 0.4285,-4.7679 0.42612,-4.7703 1.42515,-2.61588 c 0.78311,-1.43882 2.1703,-3.18503 3.08468,-3.88247 0.91438,-0.69742 1.9652,-1.2689 2.33422,-1.2689 0.36905,0 -0.0485,0.81877 -0.92801,1.82049 -0.87953,1.00173 -2.13665,3.21968 -2.79349,4.92887 l -1.19314,3.10829 -0.37404,10.1253 c -0.20531,5.5683 -0.64717,10.7822 -0.9801,11.5882 -0.33291,0.8059 -0.92304,1.4654 -1.31388,1.4654 -0.39085,0 -2.05463,0.8087 -3.69545,1.7968 -1.64081,0.9881 -3.84168,1.9574 -4.89097,2.1543 -1.04929,0.1968 -2.14342,0.7974 -2.43128,1.3352 l -0.52319,0.9777 5.89947,-0.2793 c 3.46731,-0.1644 7.7068,-0.012 10.28856,0.374 l 4.39146,0.6533 1.91756,-0.8001 c 1.07492,-0.4492 2.64799,-1.8097 3.58181,-3.0989 0.91582,-1.2642 2.56901,-4.2277 3.67414,-6.5859 1.10514,-2.3584 2.99682,-7.1581 4.20206,-10.6651 1.20528,-3.5069 2.7094,-9.0031 3.34273,-12.21307 0.63333,-3.21009 1.33966,-6.32707 1.57192,-6.92696 l 0.42376,-1.09135 0.41665,1.03691 c 0.22893,0.56935 0.1441,3.44675 -0.18701,6.39426 -0.33112,2.94741 -1.36388,6.75311 -1.98783,8.76711 -0.72128,2.3283 -2.71658,6.6253 -2.39274,6.9492 0.32382,0.3239 3.85165,-2.4248 6.16081,-3.1386 1.99747,-0.617 6.52347,-2.6556 10.05893,-4.531 3.53545,-1.8756 6.94934,-3.9663 7.58503,-4.6472 0.72828,-0.7801 1.6708,-3.30908 2.54965,-6.83458 0.76711,-3.07724 1.77866,-7.09325 2.24899,-8.92495 0.47034,-1.8317 1.05957,-3.33087 1.30915,-3.33087 0.24957,0 0.45454,0.66539 0.45454,1.47723 0,0.81182 -0.49937,3.26935 -1.1103,5.46151 -0.61094,2.19213 -1.33817,5.42414 -1.61454,7.18257 -0.27635,1.75843 -0.87308,4.27759 -1.32809,5.59639 l -0.82858,2.3958 1.65952,3.4658 c 0.91245,1.905 2.43077,4.678 3.3735,6.1623 0.94271,1.4842 2.53355,3.7615 3.53684,5.0613 1.00328,1.3 2.18155,2.658 2.61829,3.0185 l 0.79543,0.6557 -2.58515,2.2751 c -1.42106,1.2509 -3.55768,2.5976 -4.74892,2.9947 -1.19126,0.397 -2.61262,1.1176 -3.15807,1.6003 l -0.99192,0.8783 2.32475,0.4119 c 1.2781,0.2275 6.45038,0.4785 11.49354,0.5563 5.04314,0.078 9.3222,0.2931 9.5097,0.4806 0.1875,0.1876 0.64349,0.2248 1.01322,0.082 0.36975,-0.1419 0.92417,-0.7837 1.23104,-1.4275 0.30687,-0.6439 0.9214,-2.6094 1.36595,-4.3678 0.44457,-1.7584 1.17935,-4.4837 1.63349,-6.0557 0.6041,-2.0911 0.8481,-5.6658 0.90906,-13.3211 l 0.0829,-10.46375 -1.91755,-6.78961 c -1.05503,-3.73455 -2.30264,-7.53398 -2.77218,-8.442 l -0.85462,-1.65006 1.37306,-1.97911 c 0.75401,-1.08803 1.3707,-2.45805 1.3707,-3.04679 0,-0.58871 -1.70761,-2.92401 -3.79487,-5.18926 l -3.79726,-4.11921 -5.3952,-2.62303 c -3.33639,-1.62127 -7.22906,-3.02503 -10.19387,-3.67651 -2.63765,-0.5796 -6.59505,-1.21558 -8.79475,-1.41332 l -3.99847,-0.35985 -7.45719,1.45594 c -4.10132,0.80014 -8.26247,1.78534 -9.24692,2.18981 -1.21346,0.49857 -1.69157,0.9883 -1.4867,1.52221 0.16622,0.43314 1.50738,2.56009 2.98288,4.72525 1.47549,2.16514 3.04325,4.79638 3.48239,5.84738 0.48188,1.15332 0.5961,2.03542 0.28882,2.22533 -0.28003,0.17305 -1.10266,-0.85626 -1.82761,-2.28688 -0.72496,-1.43061 -2.35815,-3.67076 -3.62917,-4.97856 -1.27102,-1.30778 -4.11219,-3.73346 -6.31375,-5.39048 -2.20155,-1.65703 -5.40662,-3.6346 -7.12338,-4.39383 -1.71677,-0.75923 -3.41231,-1.26836 -3.76885,-1.13159 -0.43881,0.16838 -0.56781,1.1069 -0.39535,2.90238 0.17942,1.86718 -0.089,3.69303 -0.91143,6.16462 -0.64263,1.93116 -1.65108,4.05372 -2.23953,4.71815 l -1.07004,1.20735 0.38114,-1.06532 c 0.20897,-0.58614 0.62794,-3.39167 0.93274,-6.23563 0.41074,-3.83239 0.38947,-5.90068 -0.0805,-7.99221 -0.40906,-1.82055 -1.37632,-3.76579 -2.72958,-5.47807 l -2.09985,-2.65381 1.02507,-1.08899 c 0.70195,-0.74705 0.92319,-1.50453 0.70074,-2.40761 -0.17851,-0.72479 -0.56089,-1.61751 -0.84751,-1.98385 -0.28663,-0.36633 -1.43692,-0.6676 -2.55675,-0.6676 0,0 -1.44647,-0.3363 -2.03593,0 -0.53744,0.30663 -0.94458,1.59797 -0.94458,1.59797 l -0.94459,1.60035 -7.308037,0 -7.30805,0 -1.138697,-1.60035 c -0.626056,-0.87921 -1.497294,-1.59797 -1.936506,-1.59797 z m 15.726389,10.73125 c 0.52491,0.0441 1.00917,0.25052 1.19552,0.5445 0.24845,0.39199 0.45564,1.0914 0.45927,1.55299 0.006,0.61465 -0.49612,0.82949 -1.87732,0.80016 l -1.88679,-0.0402 0.15388,-1.33283 c 0.10896,-0.94196 0.52581,-1.38556 1.42515,-1.51275 0.17488,-0.0247 0.35532,-0.0265 0.53029,-0.0121 z m -11.126607,0.19176 c 0.97578,0 1.378593,0.32205 1.503281,1.20026 l 0.170444,1.19788 -1.673725,0 -1.67135,0 0.170444,-1.19788 c 0.124724,-0.87821 0.525125,-1.20026 1.500906,-1.20026 z m 5.958654,2.98051 c 0.429007,0.0207 0.854475,0.0736 1.174212,0.15388 0.707001,0.17743 1.625521,1.24422 2.343681,2.72246 0.64957,1.33698 1.18132,3.04673 1.18132,3.79962 0,0.75289 -0.37603,2.00613 -0.83568,2.78401 l -0.83567,1.41568 -3.697833,0.0284 -3.695442,0.0308 -0.527925,-1.89625 c -0.28952,-1.04221 -0.510229,-2.25445 -0.492411,-2.69406 0.01782,-0.4396 0.697048,-1.99809 1.510372,-3.46345 0.98664,-1.77759 1.878726,-2.72253 2.68222,-2.84083 0.331167,-0.0489 0.764149,-0.061 1.193156,-0.0402 z m -0.319591,4.14525 c -0.509938,0.01 -1.009101,0.031 -1.375443,0.0616 -0.732671,0.061 -1.432083,0.20755 -1.555353,0.3267 -0.123257,0.11915 0.337846,0.81673 1.025064,1.54825 0.687231,0.73152 1.522602,1.33046 1.856012,1.33046 0.333409,0 1.137327,-0.72112 1.787359,-1.60033 l 1.181315,-1.59797 -1.481974,-0.0592 c -0.407359,-0.0162 -0.927042,-0.0189 -1.43698,-0.01 z m -9.239817,26.30139 c -0.07988,-0.0224 -0.169971,-0.0214 -0.262781,0.01 -0.366342,0.12197 -0.730247,0.68337 -0.809639,1.24522 -0.07939,0.56187 -0.850329,4.13733 -1.713967,7.94724 -0.863642,3.80992 -1.966595,9.67412 -2.450219,13.03232 -0.483635,3.3581 -1.206198,7.0321 -1.605072,8.1626 -0.398887,1.1305 -1.204357,2.7266 -1.789723,3.5488 l -1.062954,1.496 -3.771197,0.9778 -3.768846,0.9777 -2.679856,2.2869 c -1.474289,1.2585 -2.883803,2.2892 -3.132015,2.2892 -0.248199,0 -0.829675,0.3776 -1.29022,0.8381 -0.460533,0.4606 -0.835675,1.0049 -0.835675,1.2098 0,0.2047 2.211954,0.4419 4.91701,0.5278 2.705043,0.086 5.044145,0.2811 5.196359,0.4332 0.152323,0.1523 3.033326,0.1176 6.40371,-0.075 3.370408,-0.1934 6.527117,-0.4609 7.014498,-0.5966 0.487381,-0.1358 2.415258,-1.9777 4.284929,-4.0908 1.86966,-2.1131 5.271292,-6.4268 7.556625,-9.5878 2.285344,-3.1611 4.396824,-6.6302 4.694474,-7.7081 l 0.54212,-1.9602 -3.94875,-3.7476 c -2.171699,-2.0619 -4.818478,-4.8361 -5.882898,-6.16219 -1.064409,-1.32607 -2.669881,-3.96387 -3.567615,-5.86153 -0.897722,-1.89766 -1.633254,-3.88967 -1.633484,-4.42697 -1.82e-4,-0.40835 -0.16522,-0.69727 -0.404814,-0.76465 z M 157.418,1006.869 c -0.34109,0 -2.99338,1.3258 -5.89236,2.945 -2.89898,1.6192 -6.81612,3.4519 -8.70479,4.0719 l -3.43268,1.1269 0.007,1.3897 c 0.005,0.7647 0.33598,2.7825 0.73626,4.4837 l 0.72915,3.0918 -1.40386,0.8428 c -0.77118,0.463 -2.46868,1.5581 -3.77357,2.4336 -1.30489,0.8755 -3.31702,1.8655 -4.46957,2.1992 -1.15255,0.3337 -2.47757,1.1828 -2.945,1.8869 l -0.84988,1.2807 10.58211,-0.3244 10.5821,-0.3266 1.31626,-1.2263 c 0.72413,-0.6753 1.8936,-2.3635 2.59936,-3.75 0.70576,-1.3864 1.61757,-3.9033 2.02646,-5.594 0.40887,-1.6907 1.36531,-5.3525 2.12589,-8.1366 0.76056,-2.7842 1.38437,-5.3604 1.38491,-5.7267 7.4e-4,-0.3663 -0.27681,-0.6676 -0.61789,-0.6676 z"
       id="path4148"
       inkscape:connector-curvature="0"
       sodipodi:nodetypes="cssccccsccsccsssscccccccssccccssccccccccccscccscccccsssssccccccccccccccccccsccccccscccscccscsscssssccccccsccccccssccccccccccccccccscccccscccscccccssccccccsscccccccsssscccccscsccccsccccssccccsccccccssccccccccccc" />
  </g>
</svg>
