<?xml version="1.0" encoding="UTF-8" standalone="no"?>
<!-- Created with Inkscape (http://www.inkscape.org/) -->

<svg
   xmlns:dc="http://purl.org/dc/elements/1.1/"
   xmlns:cc="http://creativecommons.org/ns#"
   xmlns:rdf="http://www.w3.org/1999/02/22-rdf-syntax-ns#"
   xmlns:svg="http://www.w3.org/2000/svg"
   xmlns="http://www.w3.org/2000/svg"
   xmlns:sodipodi="http://sodipodi.sourceforge.net/DTD/sodipodi-0.dtd"
   xmlns:inkscape="http://www.inkscape.org/namespaces/inkscape"
   width="256"
   height="128"
   viewBox="0 0 256 128"
   id="svg2"
   version="1.1"
   inkscape:version="0.91 r13725"
   sodipodi:docname="house_greyjoy.svg"
   inkscape:export-filename="C:\Users\Greene\Documents\Firaxis ModBuddy\XCOM\Game of Thrones\imageSource\house_greyjoy.png"
   inkscape:export-xdpi="90"
   inkscape:export-ydpi="90">
  <defs
     id="defs4">
    <filter
       inkscape:collect="always"
       style="color-interpolation-filters:sRGB"
       id="filter4182"
       x="-0.034879974"
       width="1.0697599"
       y="-0.018293713"
       height="1.0365874">
      <feGaussianBlur
         inkscape:collect="always"
         stdDeviation="0.1946429"
         id="feGaussianBlur4184" />
    </filter>
  </defs>
  <sodipodi:namedview
     id="base"
     pagecolor="#ffffff"
     bordercolor="#666666"
     borderopacity="1.0"
     inkscape:pageopacity="0.0"
     inkscape:pageshadow="2"
     inkscape:zoom="3.959798"
     inkscape:cx="125.65177"
     inkscape:cy="69.046331"
     inkscape:document-units="px"
     inkscape:current-layer="layer1"
     showgrid="false"
     units="px"
     showborder="true"
     inkscape:window-width="1920"
     inkscape:window-height="1138"
     inkscape:window-x="-8"
     inkscape:window-y="-8"
     inkscape:window-maximized="1"
     inkscape:snap-nodes="false" />
  <metadata
     id="metadata7">
    <rdf:RDF>
      <cc:Work
         rdf:about="">
        <dc:format>image/svg+xml</dc:format>
        <dc:type
           rdf:resource="http://purl.org/dc/dcmitype/StillImage" />
        <dc:title />
      </cc:Work>
    </rdf:RDF>
  </metadata>
  <g
     inkscape:label="Layer 1"
     inkscape:groupmode="layer"
     id="layer1"
     transform="translate(0,-924.36216)">
    <rect
       style="fill:#000000;fill-opacity:1;stroke:none;stroke-width:4;stroke-linecap:round;stroke-linejoin:round;stroke-miterlimit:4;stroke-dasharray:none;stroke-opacity:1"
       id="rect4182"
       width="256"
       height="128"
       x="0"
       y="924.36218"
       ry="0" />
    <g
       id="g4192"
       transform="translate(-1.0268542e-5,-0.02630061)">
      <path
         sodipodi:nodetypes="cscscsscssscccssssccsscsssssssscssscssssssssssssssccsscssscsscscsssscssssssscscssccsssscscssscsscsssssssscsscsssscccsccsscscsscccsssccssccccsccssscccscsccccccssccssccsss"
         inkscape:connector-curvature="0"
         id="path4154"
         d="m 127.40682,1043.8664 c -0.88088,-2.7754 -3.73821,-5.1929 -6.27093,-5.0957 -3.28859,0.1263 -3.02576,0.6506 -1.9754,-1.9027 0.37712,-1.5026 0.07,-2.2543 -1.73218,-2.9096 -3.00484,-1.0927 -2.90972,-0.3129 -0.77525,-2.5919 0.9399,-1.0386 1.45229,-2.4755 1.06731,-4.0869 -0.66986,-2.8038 -1.45406,-2.5019 1.08981,-2.5019 2.16758,0 4.13481,-3.1855 3.12846,-5.0658 -0.44712,-0.8355 -1.3555,-1.5191 -2.01863,-1.5191 -1.44698,0 -1.53466,-1.1398 -0.26955,-3.5036 0.54501,-1.0183 1.07438,-7.4022 1.26697,-15.27877 0.29087,-11.89556 0.16114,-13.71694 -1.07426,-15.08203 -0.92699,-1.02435 -1.98824,-1.37712 -3.11898,-1.0369 -1.28402,0.38631 -1.48662,0.27551 -0.80772,-0.44181 1.09047,-1.15227 3.23999,-1.31882 6.29606,-0.48772 1.92966,0.52477 2.26355,0.36841 2.26355,-1.06017 0,-2.23219 -3.75812,-5.08767 -6.6959,-5.08767 -2.88546,0 -5.65078,2.59261 -5.65078,5.29786 0,1.10293 1.07853,4.80619 2.39671,8.22955 3.29812,8.565 3.74376,11.83256 2.15525,15.80246 -1.53967,3.8481 -4.84353,6.0639 -9.04118,6.0639 -12.257269,0 -14.222317,-14.62719 -4.9966,-37.19329 0.50321,-1.23085 0.0654,-1.33612 -3.867084,-0.93031 -4.002416,0.41309 -4.670757,0.24057 -6.858612,-1.77099 -1.828872,-1.68152 -2.01986,-2.0925 -0.777852,-1.67397 3.331529,1.12268 5.01721,1.28063 8.483966,0.79484 2.834672,-0.3972 3.865202,-1.02145 5.141372,-3.11439 2.10185,-3.44715 1.98654,-4.76905 -0.57911,-6.63951 -5.574562,-4.06411 -14.798469,-1.79232 -18.345201,4.51821 -2.422277,4.30986 -1.995488,7.98607 1.975706,17.01819 3.158153,7.18298 3.609579,11.26131 1.663109,15.02533 -3.68872,7.13319 -15.577465,6.06849 -18.68315,-1.67318 -0.454033,-1.13172 -1.118116,-4.60776 -1.475737,-7.72452 -0.631299,-5.50173 -0.556801,-5.85995 2.559067,-12.30314 1.765104,-3.64997 3.209287,-7.11898 3.209287,-7.70881 0,-1.50013 1.367104,-1.34086 1.969719,0.22959 0.274792,0.71609 0.499618,3.91336 0.499618,7.10502 0,5.56582 -0.117791,5.91412 -2.880893,8.52007 -3.397992,3.20474 -3.661134,5.63474 -1.167898,10.7851 1.386306,2.86373 2.312889,3.70008 4.858461,4.38552 3.401197,0.91584 6.355631,0.22187 8.123378,-1.90811 1.825044,-2.199 1.266434,-7.56078 -1.473385,-14.14216 -3.400784,-8.16905 -4.004689,-13.25716 -2.149925,-18.11374 1.957708,-5.12622 5.89193,-7.99223 11.623444,-8.46757 2.457256,-0.20378 4.46774,-0.46454 4.46774,-0.57956 0,-0.11502 -0.511234,-1.45815 -1.136071,-2.98475 -1.953757,-4.77342 -2.319438,-6.47965 -1.388738,-6.47965 0.483227,0 0.878584,0.39265 0.878584,0.87254 0,0.4799 1.173332,2.66483 2.607409,4.8554 2.100536,3.20862 3.820646,4.59662 8.848456,7.14006 3.43258,1.73648 7.12932,3.90371 8.215,4.8162 1.96673,1.6529 1.97222,1.6529 1.50059,0.0123 -0.26035,-0.90547 -1.62315,-5.65871 -3.02846,-10.56276 -2.6671,-9.3074 -4.12809,-12.29859 -7.2326,-14.80771 -2.37344,-1.91827 -2.37529,-2.99842 -0.004,-2.4247 4.98603,1.20643 7.94714,7.04816 12.14025,23.95055 1.07511,4.33383 1.64697,4.07281 1.64569,-0.75111 -6.6e-4,-2.45222 0.4244,-8.3875 0.94456,-13.18956 0.71327,-6.58468 0.71265,-9.39974 -0.003,-11.45127 -0.92245,-4.1996 -1.49475,-4.75364 1.22691,-2.28452 1.13572,1.03033 1.35115,4.07396 1.57524,17.64793 0.14838,8.98838 0.3855,17.17587 0.52695,18.19442 0.30657,2.20788 1.22179,2.42342 1.74754,0.4116 0.3585,-1.37185 0.38098,-1.37185 0.47191,0 0.0525,0.79221 0.44287,1.44043 0.86744,1.44043 0.42458,0 0.74719,-0.64822 0.7169,-1.44043 -0.0303,-0.79229 0.34621,-3.10728 0.83666,-5.14447 0.49896,-2.07257 0.73138,-7.69195 0.52772,-12.75822 -0.6283,-15.62874 -0.43813,-18.00693 1.49944,-18.75107 0.72733,-0.27935 1.03689,1.5395 1.1428,6.71463 0.25696,12.55568 0.63655,23.97155 0.7971,23.97155 0.25084,0 2.47088,-6.4223 4.92544,-14.24865 1.84545,-5.88422 2.86554,-7.78621 5.40796,-10.08312 2.91775,-2.63601 4.77498,-3.53579 4.77498,-2.31335 0,0.28466 -1.26786,1.92093 -2.81744,3.63614 -1.62474,1.7984 -3.35471,4.97664 -4.08658,7.50777 -2.36602,8.18266 -4.71452,15.90815 -5.17078,17.00959 -0.25806,0.62293 0.91865,0.24136 2.72355,-0.88326 1.74784,-1.08905 3.7335,-2.24553 4.41257,-2.57004 7.22258,-3.45128 9.579,-5.3954 11.93513,-9.84707 3.63923,-6.87595 5.3709,-5.54008 2.11467,1.63134 l -1.55319,3.4207 2.97343,0.55778 c 3.66624,0.68782 8.34335,3.01966 10.22082,5.09583 2.52898,2.79657 4.13575,7.77027 3.59755,11.13603 -0.27606,1.72639 -2.01435,6.37568 -3.86286,10.33171 -4.2337,9.06073 -4.51334,12.73441 -1.18709,15.59548 1.99995,1.72021 3.00317,1.99871 5.98915,1.66211 4.39038,-0.4948 6.55068,-2.33184 7.68166,-6.53193 1.0341,-3.84031 0.44372,-6.06504 -2.22537,-8.38565 -2.29505,-1.99531 -3.2677,-7.40845 -2.38675,-13.28306 0.57894,-3.86068 2.71402,-5.23227 2.71402,-1.7435 0,1.06315 1.33398,4.78151 2.96441,8.26308 l 2.96442,6.33011 -1.07371,5.11242 c -1.76405,8.39968 -3.99156,11.64673 -8.89562,12.96723 -4.47165,1.2041 -8.96831,-0.1415 -10.79256,-3.2298 -1.69232,-2.86481 -1.79231,-8.43669 -0.22334,-12.44452 5.06019,-12.92572 5.51792,-14.52409 5.14172,-17.95395 -0.66302,-6.04458 -5.9177,-10.03187 -13.22063,-10.03187 -5.20115,0 -7.53008,2.05159 -6.79243,5.98356 0.3636,1.93816 1.12879,3.15882 2.19162,3.49615 3.01768,0.95779 9.25488,1.14779 10.78562,0.32854 2.1932,-1.17378 1.94176,0.50142 -0.31224,2.08021 -1.09089,0.76411 -3.57111,1.28134 -6.14409,1.28134 l -4.31472,0 1.57405,3.67209 c 6.55835,15.30005 6.68236,27.08545 0.34678,32.95705 -3.80023,3.5219 -10.39974,2.3345 -14.25333,-2.5645 -2.39728,-3.0477 -2.18483,-7.56475 0.75043,-15.95617 2.88445,-8.24614 3.05282,-10.94007 0.82312,-13.1698 -2.24555,-2.24554 -5.86861,-2.08724 -8.5225,0.37227 -2.52709,2.34203 -3.02273,5.10909 -0.73752,4.11749 3.19002,-1.38423 6.46405,-1.34797 7.65309,0.0843 1.0759,1.29634 1.01084,1.37027 -0.72208,0.8203 -1.31688,-0.41801 -2.39478,-0.16085 -3.4934,0.83338 -1.48713,1.34587 -1.56022,2.33703 -1.14163,15.48038 0.37006,11.61955 0.68797,14.30845 1.84249,15.58415 1.32355,1.4626 1.27951,1.6261 -0.85716,3.1825 -3.34189,2.4344 -2.59246,6.4422 1.20466,6.4422 3.02889,0 2.7426,-0.6655 0.66144,2.4638 -0.75182,1.1305 -0.35432,2.0861 1.30784,4.0615 2.72819,2.9732 3.27095,2.3395 0.50939,2.5289 -2.41032,0.1653 -3.9423,2.1389 -2.6433,3.7041 1.63474,1.9407 1.87869,1.2978 -1.81351,1.2346 -2.81804,-0.048 -5.58604,2.8303 -6.41761,4.7373 -1.20536,2.7642 -0.93255,2.4092 -2.00794,0.3584 z m -16.35781,-37.0206 c 1.61134,-1.0247 2.71756,-4.9375 2.20232,-7.7899 -0.2658,-1.47149 -1.36778,-5.19775 -2.44883,-8.28053 -1.08105,-3.08279 -1.96555,-7.40205 -1.96555,-9.59842 0,-4.07807 1.00916,-5.49856 6.26884,-8.8242 1.31705,-0.83268 0.89516,-0.98774 -2.79986,-1.02882 -4.3503,-0.0483 -4.3507,-0.0483 -5.84097,3.44978 -3.8111,8.94554 -5.29623,14.51294 -5.65389,21.19512 -0.33528,6.26417 -0.18705,7.23337 1.41611,9.26007 1.3771,1.7408 2.48954,2.2606 4.81751,2.2509 1.66481,-0.01 3.46675,-0.2922 4.00432,-0.634 z m 41.65385,-1.0125 c 2.89166,-2.2746 4.18636,-6.63227 3.5081,-11.80763 -0.73192,-5.58487 -6.18938,-21.96757 -7.4833,-22.46416 -0.55886,-0.21441 -2.63268,-0.26252 -4.6085,-0.10694 -3.52987,0.27806 -3.55375,0.29983 -1.37188,1.2499 5.82108,2.53475 6.66961,10.2742 2.31283,21.09565 -2.8266,7.02058 -2.79687,9.26948 0.15895,12.02328 2.27359,2.1182 4.79933,2.1215 7.4838,0.01 z m -27.41628,-20.81928 c 0.007,-0.36621 -0.35778,-0.43698 -0.8105,-0.15716 -0.45271,0.27981 -0.81744,1.13506 -0.8105,1.90058 0.0109,1.1995 0.12287,1.22119 0.8105,0.15716 0.43884,-0.67904 0.80358,-1.53429 0.8105,-1.90058 z m 7.09138,0.5836 c -0.29294,-0.76333 -0.71783,-1.20276 -0.94418,-0.97641 -0.22635,0.22634 -0.17187,1.0362 0.12107,1.79952 0.29293,0.76341 0.71781,1.20284 0.94417,0.97641 0.22635,-0.22635 0.17187,-1.03612 -0.12106,-1.79952 z M 113.1384,966.33371 c -3.39312,-2.0688 -4.30145,-2.06809 -4.30145,0 0,1.38854 0.54771,1.64579 3.49823,1.64315 l 3.49822,0 z m 34.38483,-0.4756 0,-2.12491 -3.08668,1.85633 c -1.69767,1.02092 -3.24101,1.97714 -3.42963,2.1249 -0.18863,0.14777 1.20037,0.26858 3.08666,0.26858 3.13844,0 3.42965,-0.18043 3.42965,-2.1249 z"
         style="fill:#ddaa14;fill-opacity:1" />
      <path
         transform="matrix(0.87798653,0,0,0.87798653,26.702095,213.89794)"
         inkscape:connector-curvature="0"
         id="path4160"
         d="m 109.19642,911.29073 6.42858,25.44643 6.96429,-25.53571"
         style="fill:none;fill-rule:evenodd;stroke:#000000;stroke-width:0.25;stroke-linecap:round;stroke-linejoin:round;stroke-miterlimit:4;stroke-dasharray:none;stroke-opacity:0.6168831;filter:url(#filter4182)" />
    </g>
  </g>
</svg>
