<?xml version="1.0" encoding="UTF-8" standalone="no"?>
<!-- Created with Inkscape (http://www.inkscape.org/) -->

<svg
   xmlns:dc="http://purl.org/dc/elements/1.1/"
   xmlns:cc="http://creativecommons.org/ns#"
   xmlns:rdf="http://www.w3.org/1999/02/22-rdf-syntax-ns#"
   xmlns:svg="http://www.w3.org/2000/svg"
   xmlns="http://www.w3.org/2000/svg"
   xmlns:sodipodi="http://sodipodi.sourceforge.net/DTD/sodipodi-0.dtd"
   xmlns:inkscape="http://www.inkscape.org/namespaces/inkscape"
   width="256"
   height="128"
   viewBox="0 0 256 128"
   id="svg2"
   version="1.1"
   inkscape:version="0.91 r13725"
   sodipodi:docname="House_Baelish.svg"
   inkscape:export-filename="C:\Users\Greene\Documents\Firaxis ModBuddy\XCOM\Game of Thrones\imageSource\UIHouse_Baelish.png"
   inkscape:export-xdpi="45"
   inkscape:export-ydpi="45">
  <defs
     id="defs4" />
  <sodipodi:namedview
     id="base"
     pagecolor="#ffffff"
     bordercolor="#666666"
     borderopacity="1.0"
     inkscape:pageopacity="0.0"
     inkscape:pageshadow="2"
     inkscape:zoom="2.8"
     inkscape:cx="28.350806"
     inkscape:cy="126.33787"
     inkscape:document-units="px"
     inkscape:current-layer="layer1"
     showgrid="false"
     units="px"
     showborder="true"
     inkscape:window-width="1920"
     inkscape:window-height="1138"
     inkscape:window-x="-8"
     inkscape:window-y="-8"
     inkscape:window-maximized="1"
     inkscape:snap-nodes="false" />
  <metadata
     id="metadata7">
    <rdf:RDF>
      <cc:Work
         rdf:about="">
        <dc:format>image/svg+xml</dc:format>
        <dc:type
           rdf:resource="http://purl.org/dc/dcmitype/StillImage" />
        <dc:title />
      </cc:Work>
    </rdf:RDF>
  </metadata>
  <g
     inkscape:label="Layer 1"
     inkscape:groupmode="layer"
     id="layer1"
     transform="translate(0,-924.36216)">
    <rect
       style="fill:#e8bb00;fill-opacity:1;stroke:none;stroke-width:4;stroke-linecap:round;stroke-linejoin:round;stroke-miterlimit:4;stroke-dasharray:none;stroke-opacity:1"
       id="rect4182"
       width="256"
       height="128"
       x="0"
       y="924.36218"
       ry="0" />
    <path
       style="fill:#000000"
       d="m 146.45609,1048.3393 c -0.77889,-0.013 -2.59053,-0.2803 -4.02588,-0.5949 -1.43535,-0.3145 -3.41525,-0.8533 -4.39977,-1.1971 -0.98453,-0.3439 -2.47604,-1.1288 -3.31448,-1.7443 -1.04695,-0.7685 -1.79749,-1.6606 -2.39622,-2.848 -0.47947,-0.951 -1.28418,-2.9725 -1.78822,-4.4923 -0.50405,-1.5198 -1.08459,-3.5231 -1.2901,-4.4519 -0.20551,-0.9287 -0.55726,-2.5176 -0.78165,-3.5308 -0.22441,-1.0132 -0.55851,-2.8093 -0.74246,-3.9913 -0.18396,-1.1821 -0.54123,-3.8559 -0.79392,-5.9419 -0.25271,-2.0861 -0.54134,-5.3329 -0.64143,-7.2152 -0.10009,-1.8823 -0.2035,-5.7366 -0.22981,-8.5651 -0.0263,-2.8284 -0.0114,-5.14265 0.0333,-5.14264 0.0446,2e-5 0.8444,0.62176 1.77734,1.38164 1.09799,0.8943 1.99526,1.3816 2.54398,1.3816 0.46625,0 0.99879,-0.151 1.18342,-0.3357 0.24288,-0.2428 0.39415,0.1178 0.5472,1.3049 0.11634,0.9023 0.41551,2.4004 0.66481,3.3292 0.24932,0.9287 0.70877,2.6558 1.02101,3.8378 0.31223,1.1821 0.72755,2.6328 0.92292,3.2238 0.19537,0.591 0.49219,1.3269 0.6596,1.6353 0.16742,0.3084 0.58908,1.4824 0.93702,2.6089 0.34795,1.1266 0.82377,2.3211 1.05738,2.6547 0.2336,0.3335 0.42594,0.8174 0.42743,1.0753 0.001,0.258 0.80421,2.0579 1.78384,3.9998 0.97963,1.942 2.24936,4.3598 2.8216,5.373 0.57225,1.0132 1.13187,1.9112 1.24358,1.9957 0.11173,0.084 0.44672,0.637 0.74442,1.2281 0.29771,0.591 0.99572,1.7143 1.55114,2.4963 0.55542,0.782 1.21607,1.8182 1.46811,2.3027 0.25204,0.4845 1.13665,1.6543 1.96582,2.5994 0.82916,0.9452 1.68995,2.1589 1.91285,2.697 l 0.4053,0.9785 -0.74439,1.0462 c -0.4094,0.5754 -1.27609,1.4687 -1.92596,1.9852 l -1.18157,0.939 -1.41616,-0.023 z m -3.36424,-1.5123 c 0.14269,0 0.25944,-0.1141 0.25944,-0.2535 0,-0.1394 -0.3454,-0.578 -0.76756,-0.9746 -0.49055,-0.4608 -0.76757,-0.572 -0.76757,-0.3079 0,0.2272 0.22865,0.6657 0.50813,0.9746 0.27946,0.3088 0.62487,0.5614 0.76756,0.5614 z m 5.54874,-0.8681 c 0.27087,-0.2709 0.28629,-0.5205 0.0549,-0.8875 -0.17714,-0.2808 -0.51943,-0.5706 -0.76066,-0.6439 l -0.43861,-0.1334 0.38378,0.4068 c 0.21109,0.2237 0.38379,0.6831 0.38379,1.0208 l 0,0.6141 0.37688,-0.3769 z m -7.73283,-2.2932 c 0.0914,-0.78 0.25094,-1.503 0.35452,-1.6066 0.10357,-0.1036 1.17029,0.4646 2.37045,1.2627 1.20017,0.7981 2.2364,1.3951 2.30273,1.3268 0.0663,-0.068 -0.48796,-0.919 -1.23177,-1.8903 -0.74382,-0.9713 -1.3524,-1.8348 -1.3524,-1.9189 0,-0.084 0.25769,-0.1529 0.57264,-0.1529 0.31496,0 0.92394,0.2763 1.35329,0.614 0.42936,0.3378 0.87939,0.6141 1.00008,0.6141 0.12069,0 0.0604,-0.1917 -0.13414,-0.426 -0.19447,-0.2344 -1.28214,-0.8776 -2.41704,-1.4294 l -2.06347,-1.0033 0.76756,-0.2287 c 0.42216,-0.1258 1.11297,-0.2416 1.53513,-0.2574 0.42216,-0.016 1.14751,0.1695 1.61189,0.4117 0.46437,0.2423 0.84432,0.3895 0.84432,0.3271 0,-0.062 -0.21711,-0.3305 -0.48247,-0.5958 -0.33836,-0.3384 -1.1408,-0.4963 -2.68648,-0.5285 -1.2122,-0.025 -1.78952,-0.105 -1.28293,-0.1772 0.5066,-0.072 1.05234,-0.2586 1.21276,-0.4145 0.17964,-0.1745 -0.18534,-0.2834 -0.95025,-0.2834 -0.85201,0 -1.4164,-0.1928 -1.79764,-0.614 l -0.55571,-0.6141 1.33437,0 1.33438,0 -0.59598,-0.4508 c -0.32779,-0.2479 -0.95901,-0.4551 -1.40271,-0.4605 -0.4437,-0 -0.97042,-0.207 -1.17048,-0.4481 l -0.36376,-0.4383 0.86346,-0.1143 0.86346,-0.1143 -1.05371,-0.3058 c -0.57954,-0.1682 -1.10554,-0.4613 -1.16889,-0.6514 -0.0721,-0.2166 0.14913,-0.2873 0.59318,-0.1895 l 0.70834,0.156 -0.46054,-0.329 c -0.2533,-0.1809 -0.73686,-0.3419 -1.07459,-0.3579 -0.33773,-0.016 -0.44135,-0.099 -0.23027,-0.1837 0.21108,-0.085 0.38378,-0.2816 0.38378,-0.4364 0,-0.1547 -0.17351,-0.2814 -0.38558,-0.2814 -0.21207,0 -0.68073,-0.6563 -1.04149,-1.4584 -0.36074,-0.8021 -0.75679,-1.8037 -0.8801,-2.2259 -0.1233,-0.4222 -0.33366,-0.9057 -0.46745,-1.0746 -0.13379,-0.1689 -0.60795,-1.2742 -1.05368,-2.4562 -0.44574,-1.1821 -1.13253,-3.1163 -1.5262,-4.2984 -0.39367,-1.182 -0.87341,-2.84 -1.0661,-3.6843 -0.19268,-0.8443 -0.59714,-2.4649 -0.89879,-3.6013 -0.30166,-1.1364 -0.64971,-2.1674 -0.77346,-2.2912 -0.12374,-0.1237 -0.13241,0.3916 -0.0192,1.1451 0.11315,0.7536 0.61631,2.8208 1.11813,4.5939 0.50184,1.7731 1.32208,4.4672 1.82277,5.987 0.5007,1.5198 1.03281,3.0396 1.18247,3.3773 0.14966,0.3377 0.64996,1.5812 1.11178,2.7632 0.46182,1.1821 0.82308,2.391 0.8028,2.6865 -0.0203,0.2955 0.0975,0.5373 0.26189,0.5373 0.18707,0 0.17993,0.222 -0.0191,0.5939 -0.1748,0.3266 -0.31783,0.6889 -0.31783,0.8051 0,0.1162 0.23312,0.022 0.51803,-0.2101 l 0.51802,-0.4213 -0.211,0.5373 c -0.11604,0.2955 -0.29135,0.779 -0.38957,1.0746 l -0.17858,0.5373 0.44269,-0.5373 c 0.24349,-0.2956 0.51855,-0.5373 0.61126,-0.5373 0.0927,0 -0.0953,0.5459 -0.41763,1.2132 -0.3224,0.6673 -0.58619,1.3077 -0.58619,1.4231 0,0.1153 0.2941,-0.1642 0.65356,-0.6212 0.4332,-0.5507 0.75649,-0.7279 0.95883,-0.5256 0.20234,0.2024 0.10234,0.598 -0.29658,1.1733 -0.331,0.4774 -0.68906,1.1098 -0.79568,1.4053 -0.10661,0.2955 -0.12246,0.5373 -0.0352,0.5373 0.0872,0 0.48776,-0.38 0.89008,-0.8444 l 0.73148,-0.8443 0.40514,0.4056 0.40515,0.4056 -0.61406,0.5261 c -0.33773,0.2894 -0.92491,0.9648 -1.30486,1.5009 -0.37994,0.5361 -0.69081,1.0755 -0.69081,1.1986 0,0.1231 0.28253,-0.079 0.62783,-0.45 0.3453,-0.3707 0.97883,-0.9039 1.40782,-1.185 l 0.78,-0.5111 0.27612,0.4363 c 0.15186,0.2399 0.27823,0.5188 0.28082,0.6196 0.002,0.1008 -0.25781,0.3081 -0.57866,0.4605 -0.32084,0.1525 -1.09019,0.9471 -1.70964,1.7658 -0.61946,0.8187 -1.06171,1.5531 -0.98279,1.632 0.0789,0.079 0.52548,-0.3573 0.99233,-0.9693 0.46685,-0.6121 1.25353,-1.3222 1.74818,-1.5779 0.49465,-0.2559 0.94491,-0.4196 1.00057,-0.3639 0.0557,0.056 -0.10122,0.9772 -0.34855,2.0479 l -0.44975,1.9468 0.39678,0.4804 0.39677,0.4805 0.16619,-1.4183 z m 8.63334,1.0121 c 0.14175,0 0.25774,-0.2023 0.25774,-0.4497 0,-0.2474 -0.27533,-0.5971 -0.61185,-0.7772 l -0.61187,-0.3274 0.35412,0.7771 c 0.19476,0.4275 0.4701,0.7772 0.61186,0.7772 z m -15.40625,-3.0702 c 0.12962,0 0.54803,-0.9715 0.92981,-2.1588 0.38178,-1.1873 0.62313,-2.2298 0.53635,-2.3166 -0.0868,-0.087 -0.49823,0.4357 -0.9143,1.161 -0.41608,0.7253 -0.84302,1.5605 -0.94875,1.856 -0.10573,0.2955 -0.11271,0.7445 -0.0156,0.9978 0.0972,0.2533 0.28278,0.4606 0.41241,0.4606 z m -1.70942,-3.0703 c 0.0699,0 0.63515,-0.9085 1.2561,-2.0188 0.62095,-1.1104 1.03924,-2.1087 0.92954,-2.2184 -0.1097,-0.1097 -0.735,0.3806 -1.38955,1.0894 l -1.19009,1.2889 0.1123,0.8527 c 0.0618,0.469 0.12182,0.8872 0.13346,0.9295 0.0117,0.042 0.0783,0.077 0.14824,0.077 z m 11.77018,-3.1079 c 0.21108,0.021 0.38378,-0.028 0.38378,-0.108 0,-0.08 -0.40761,-0.3564 -0.90583,-0.614 -0.4982,-0.2577 -0.98177,-0.4685 -1.07459,-0.4685 -0.0928,0 -0.16876,0.1054 -0.16876,0.2343 0,0.1288 0.31087,0.3881 0.69081,0.5763 0.37995,0.1882 0.86351,0.3591 1.07459,0.3799 z m -11.54853,-1.7172 c 0.7204,-0.7119 1.21947,-1.3847 1.10906,-1.4951 -0.11042,-0.1104 -0.6563,0.064 -1.21307,0.3883 -0.72247,0.4203 -1.04,0.8484 -1.10904,1.495 l -0.0967,0.9061 1.30981,-1.2943 z m 10.31817,-0.827 c 0.0916,-0.092 -0.008,-0.3771 -0.22185,-0.6345 -0.21361,-0.2574 -0.63963,-0.468 -0.94672,-0.468 -0.30708,0 -0.64372,0.1382 -0.74809,0.3071 -0.10717,0.1734 0.14429,0.307 0.57782,0.307 0.42216,0 0.85863,0.1473 0.96994,0.3274 0.1113,0.1801 0.27731,0.2526 0.3689,0.161 z m -11.27823,-1.6104 c 0.50509,-0.252 0.91835,-0.6011 0.91835,-0.7759 0,-0.1932 -0.33007,-0.235 -0.84124,-0.1067 -0.46269,0.1161 -0.93714,0.3663 -1.05434,0.5559 -0.1172,0.1896 -0.1519,0.4438 -0.0771,0.5648 0.0748,0.121 0.54924,0.014 1.05433,-0.2381 z m 10.28265,0.1864 0.61406,-0 -0.56714,-0.4296 c -0.31193,-0.2364 -0.77254,-0.3509 -1.02358,-0.2546 l -0.45644,0.1752 0.40953,0.2596 c 0.22523,0.1427 0.68584,0.2573 1.02357,0.2545 z m -10.74459,-2.1912 c 0.41084,-0.1871 0.67408,-0.4583 0.58498,-0.6024 -0.0891,-0.1442 -0.42203,-0.2622 -0.73982,-0.2622 -0.31779,0 -0.6632,0.1382 -0.76757,0.3071 -0.10437,0.1688 -0.10758,0.4399 -0.007,0.6024 0.1147,0.1856 0.46038,0.1689 0.92958,-0.045 z m 9.03782,-0.2505 c 0.3477,0 0.63218,-0.054 0.63218,-0.1207 0,-0.066 -0.20282,-0.1985 -0.4507,-0.2936 -0.2479,-0.095 -0.53238,-0.041 -0.63218,0.1207 -0.0998,0.1615 0.10302,0.2936 0.4507,0.2936 z m -10.11374,-1.3816 c 0.16886,-0.1044 0.30703,-0.3198 0.30703,-0.4787 0,-0.1589 -0.13817,-0.2889 -0.30703,-0.2889 -0.16887,0 -0.30703,0.2154 -0.30703,0.4787 0,0.2632 0.13816,0.3932 0.30703,0.2889 z m 7.66225,-4.5971 c 0.16149,-0.1 0.21579,-0.3843 0.12066,-0.6322 -0.0952,-0.2479 -0.53811,-0.4414 -0.98443,-0.4299 l -0.81147,0.021 0.69081,0.3331 c 0.37995,0.1833 0.69081,0.4584 0.69081,0.6114 0,0.153 0.13212,0.1966 0.29362,0.097 z m -1.19657,-2.311 c 0.15889,0 0.2889,-0.1382 0.2889,-0.307 0,-0.1689 -0.2154,-0.3071 -0.47867,-0.3071 -0.26325,0 -0.39327,0.1382 -0.2889,0.3071 0.10437,0.1688 0.31976,0.307 0.47867,0.307 z m -7.81532,-0.3902 c 0.10204,-0.102 0.11293,-0.3668 0.0243,-0.5885 -0.098,-0.2449 -0.17076,-0.1721 -0.18549,0.1855 -0.0133,0.3237 0.0593,0.505 0.16126,0.403 z m -0.0138,-1.452 c 0.24333,0 0.44242,-0.13 0.44242,-0.2889 0,-0.1589 -0.13816,-0.3743 -0.30703,-0.4786 -0.16886,-0.1044 -0.44744,-0.103 -0.61906,0 -0.17161,0.106 -0.23255,0.3214 -0.13539,0.4786 0.0971,0.1572 0.37572,0.2858 0.61906,0.2858 z m 6.88997,-0.614 c 0.16886,0 0.30703,-0.1382 0.30703,-0.3071 0,-0.1688 -0.13817,-0.307 -0.30703,-0.307 -0.16886,0 -0.30703,0.1382 -0.30703,0.307 0,0.1689 0.13817,0.3071 0.30703,0.3071 z m -7.18465,-2.3569 c 0.30784,-0.1181 0.36697,-0.2853 0.17044,-0.4818 -0.16551,-0.1655 -0.45338,-0.2067 -0.6397,-0.091 -0.18633,0.1152 -0.26303,0.332 -0.17044,0.4818 0.0926,0.1498 0.38047,0.191 0.6397,0.091 z m -0.50913,-1.3274 c 0.17883,0 0.32515,-0.1382 0.32515,-0.3071 0,-0.1688 -0.0609,-0.307 -0.13539,-0.307 -0.0745,0 -0.22078,0.1382 -0.32515,0.307 -0.10437,0.1689 -0.0434,0.3071 0.13539,0.3071 z m -0.46054,-3.3773 c 0.0745,0 0.22078,-0.1382 0.32515,-0.3071 0.10437,-0.1688 0.0434,-0.307 -0.13539,-0.307 -0.17883,0 -0.32515,0.1382 -0.32515,0.307 0,0.1689 0.0609,0.3071 0.13539,0.3071 z m 5.42732,-1.5352 c 0.16887,0 0.22164,-0.1381 0.11728,-0.307 -0.10437,-0.1689 -0.32792,-0.307 -0.49678,-0.307 -0.16887,0 -0.22164,0.1381 -0.11728,0.307 0.10437,0.1689 0.32792,0.307 0.49678,0.307 z m -3.21387,-1.6324 c 0.0707,-0.071 -0.0109,-0.7341 -0.1815,-1.4741 -0.1706,-0.7399 -0.31355,-1.8635 -0.31767,-2.4967 -0.004,-0.6514 -0.15919,-1.1513 -0.35681,-1.1513 -0.24127,0 -0.29001,0.5044 -0.15759,1.6311 0.10544,0.8971 0.34767,2.0785 0.53831,2.6254 0.19063,0.5468 0.4045,0.9363 0.47526,0.8656 z m 0.0306,35.391 c -0.37994,-0.01 -1.31968,-0.2605 -2.0883,-0.5613 -0.76863,-0.3008 -2.228,-1.1109 -3.24304,-1.8002 -1.01505,-0.6893 -2.19346,-1.7147 -2.61871,-2.2787 -0.42524,-0.564 -0.93468,-1.8429 -1.13208,-2.8421 -0.20619,-1.0435 -0.35893,-4.6159 -0.35893,-8.3949 0,-3.6181 0.13991,-8.258 0.31092,-10.3109 0.17101,-2.053 0.46299,-5.1143 0.64886,-6.8029 0.18587,-1.6886 0.74676,-4.8664 1.24642,-7.0616 0.49967,-2.1952 0.973,-4.33674 1.05184,-4.75891 0.0789,-0.42216 0.22122,-1.02475 0.31638,-1.33909 l 0.17301,-0.57153 0.50574,0.50597 0.50574,0.50596 -0.089,6.5131 c -0.049,3.5822 0.054,9.1382 0.22883,12.3466 0.17483,3.2085 0.4467,7.0622 0.60414,8.5639 0.15745,1.5018 0.494,3.5742 0.74789,4.6054 0.25389,1.0313 0.61773,2.704 0.80852,3.7172 0.1908,1.0132 0.53867,2.4639 0.77306,3.2238 0.23439,0.7598 0.72787,2.3864 1.09662,3.6146 0.36875,1.2282 0.79027,2.3071 0.93671,2.3976 0.14643,0.091 0.26624,0.2945 0.26624,0.4534 0,0.1589 -0.31086,0.2825 -0.69081,0.2746 z m -2.80001,-3.67 c 0.23131,0 0.42056,-0.2072 0.42056,-0.4605 0,-0.2533 -0.15267,-0.4606 -0.33926,-0.4606 -0.18659,0 -0.94648,-0.4098 -1.68864,-0.9107 -0.74217,-0.5008 -1.34939,-0.7938 -1.34939,-0.651 0,0.1428 0.57064,0.7599 1.26809,1.3713 0.69745,0.6113 1.45734,1.1115 1.68864,1.1115 z m 0.20581,-2.3597 c 0.17926,-0.1108 0.0715,-0.363 -0.25796,-0.6039 -0.31115,-0.2275 -0.73597,-0.4137 -0.94403,-0.4137 -0.20807,0 -0.82203,-0.3733 -1.36435,-0.8297 l -0.98603,-0.8297 0.40054,0.6414 c 0.22031,0.3528 0.95034,0.9979 1.62231,1.4336 0.67197,0.4357 1.36026,0.7066 1.52952,0.602 z m -0.55282,-2.2654 c 0.16887,-0 -0.24562,-0.4797 -0.92108,-1.0618 -0.67545,-0.5822 -1.33289,-1.0606 -1.46097,-1.0631 -0.12808,-0 -0.0722,0.2527 0.12416,0.5671 0.19637,0.3145 0.71565,0.7944 1.15395,1.0665 0.4383,0.2721 0.93508,0.4932 1.10394,0.4913 z m -0.89215,-2.4365 c 0.25731,0 0.38292,-0.1374 0.27912,-0.3054 -0.1038,-0.1679 -0.46782,-0.4547 -0.80893,-0.6373 l -0.62019,-0.3319 0.34107,0.6373 c 0.18759,0.3505 0.55161,0.6373 0.80893,0.6373 z m -0.18244,-1.5351 c 0.16886,0 0.30703,-0.1382 0.30703,-0.307 0,-0.1689 -0.13817,-0.3071 -0.30703,-0.3071 -0.16886,0 -0.30703,0.1382 -0.30703,0.3071 0,0.1688 0.13817,0.307 0.30703,0.307 z m 29.09074,10.116 c -1.22846,-0.01 -2.71444,-0.2189 -3.31607,-0.4689 -0.59956,-0.2493 -1.32975,-0.8588 -1.62264,-1.3547 -0.29288,-0.4958 -0.70779,-1.0792 -0.922,-1.2964 -0.21421,-0.2172 -0.97623,-1.4312 -1.69336,-2.6977 -0.71713,-1.2664 -2.1316,-3.6843 -3.14325,-5.3729 -1.01166,-1.6887 -2.09127,-3.6229 -2.39917,-4.2984 -0.30789,-0.6754 -1.11242,-2.4025 -1.78784,-3.8378 -0.67543,-1.4354 -1.40295,-3.1624 -1.61671,-3.8378 -0.21378,-0.6755 -0.49144,-1.3663 -0.61705,-1.5352 -0.12562,-0.1688 -1.01556,-2.7248 -1.97766,-5.68 -0.9621,-2.9551 -1.86866,-5.9256 -2.01456,-6.601 -0.14591,-0.6755 -0.40144,-1.7625 -0.56785,-2.4155 l -0.30258,-1.1875 0.89163,-1.2308 c 0.58293,-0.80472 0.94198,-1.08454 1.03708,-0.80826 0.08,0.23243 0.43915,1.25156 0.79812,2.26476 0.35896,1.0132 0.79105,2.3257 0.9602,2.9167 0.16914,0.5911 0.79362,2.3181 1.38773,3.8379 0.59411,1.5197 2.39937,5.4574 4.01169,8.7502 1.61231,3.2929 3.16579,6.3324 3.45216,6.7546 0.28637,0.4222 1.03917,1.7207 1.67288,2.8855 0.63373,1.1649 2.05868,3.4446 3.16658,5.066 1.1079,1.6214 2.41308,3.4315 2.90042,4.0225 0.48733,0.591 1.57054,2.0145 2.40712,3.1633 0.83659,1.1488 1.52107,2.2886 1.52107,2.533 l 0,0.4442 -2.22594,-0.016 z m -2.85534,-2.4646 c 0.52997,0.014 0.78472,-0.086 0.61405,-0.2422 -0.16042,-0.1465 -0.7407,-0.3503 -1.28951,-0.4529 -0.54881,-0.1025 -0.99783,-0.063 -0.99783,0.087 0,0.1506 0.1727,0.3435 0.38378,0.4287 0.21108,0.085 0.79136,0.1657 1.28951,0.1791 z m -1.88544,-2.1606 c 0.6539,-0.024 0.77551,-0.086 0.36566,-0.1865 -0.33773,-0.083 -0.79009,-0.2939 -1.00526,-0.4687 -0.21516,-0.1747 -0.47078,-0.2382 -0.56804,-0.1409 -0.0972,0.097 -0.0858,0.3242 0.0256,0.5043 0.11131,0.1801 0.64325,0.3114 1.18209,0.2918 z m -0.79413,-1.4995 c 0.21572,0 0.39222,-0.1126 0.39222,-0.2501 0,-0.1376 -0.48356,-0.4808 -1.07459,-0.7626 -0.59103,-0.2819 -1.07459,-0.3844 -1.07459,-0.2278 0,0.1565 0.30707,0.4997 0.68236,0.7626 0.3753,0.2628 0.85887,0.4779 1.0746,0.4779 z m -1.02856,-2.1848 c 0.14733,0.019 0.0959,-0.1716 -0.11435,-0.4249 -0.21022,-0.2533 -0.57254,-0.4605 -0.80516,-0.4605 -0.23262,0 -0.42294,0.128 -0.42294,0.2845 0,0.1565 0.24178,0.3477 0.53729,0.4249 0.29551,0.077 0.65784,0.1564 0.80516,0.176 z m -1.63136,-1.4995 c 0.34769,0 0.54679,-0.1382 0.44242,-0.307 -0.10437,-0.1689 -0.38884,-0.307 -0.63218,-0.307 -0.24333,0 -0.44241,0.1381 -0.44241,0.307 0,0.1688 0.28448,0.307 0.63217,0.307 z m -1.04154,-1.3304 c 0.11257,-0.1126 0.11257,-0.2968 0,-0.4094 -0.11258,-0.1126 -0.20469,-0.02 -0.20469,0.2047 0,0.2251 0.0921,0.3172 0.20469,0.2047 z m -1.12576,-2.0469 c 0.22515,0 0.31726,-0.092 0.20468,-0.2047 -0.11257,-0.1125 -0.29679,-0.1125 -0.40937,0 -0.11257,0.1126 -0.0205,0.2047 0.20469,0.2047 z m -24.95255,7.2151 -0.0701,1.2281 -1.15134,-1.1206 -1.15135,-1.1207 0,-2.4599 c 0,-1.3529 0.21264,-3.5428 0.47254,-4.8663 0.2599,-1.3236 0.53568,-2.821 0.61285,-3.3276 0.0772,-0.5066 0.4517,-2.045 0.83231,-3.4187 l 0.69202,-2.4977 -0.0834,8.1776 c -0.0459,4.4978 -0.11495,8.7304 -0.15351,9.4058 z m -0.80143,-1.0746 c 0.16887,0 0.22165,-0.1381 0.11728,-0.307 -0.10437,-0.1688 -0.0353,-0.307 0.15351,-0.307 0.1888,0 0.25873,-0.1368 0.1554,-0.304 -0.11825,-0.1913 -0.34055,-0.1629 -0.59994,0.077 -0.22665,0.2094 -0.34935,0.4844 -0.27268,0.611 0.0767,0.1267 0.27757,0.2303 0.44643,0.2303 z m 37.80476,0.2843 c -0.29551,-0.013 -1.14251,-0.356 -1.88221,-0.7632 -0.73968,-0.4073 -1.55678,-0.9151 -1.81575,-1.1286 -0.25897,-0.2135 -1.06991,-1.2102 -1.80211,-2.215 -0.7322,-1.0047 -1.33127,-1.9407 -1.33127,-2.0799 0,-0.1392 -0.52735,-1.1133 -1.1719,-2.1645 -0.64454,-1.0513 -1.66604,-2.7404 -2.27001,-3.7536 -0.60396,-1.0132 -1.3198,-2.3257 -1.59076,-2.9167 -0.27095,-0.591 -1.01407,-2.0417 -1.65135,-3.2238 -0.63729,-1.182 -1.32595,-2.4255 -1.53035,-2.7632 -0.20441,-0.3378 -0.85747,-1.6781 -1.45123,-2.9785 -0.59376,-1.3005 -1.40578,-3.2348 -1.80446,-4.2984 -0.39869,-1.0637 -0.83682,-2.1984 -0.97363,-2.5216 -0.16929,-0.3999 -0.14068,-0.5209 0.0896,-0.3786 0.18607,0.115 1.37237,2.1179 2.63621,4.4508 1.26385,2.3329 2.65292,4.7829 3.08684,5.4445 0.43391,0.6616 0.89803,1.341 1.03138,1.5099 0.13334,0.1688 0.56317,0.8557 0.95518,1.5264 0.392,0.6706 1.42469,2.1763 2.29485,3.346 0.87015,1.1696 2.23267,3.0388 3.02783,4.1536 0.79515,1.1148 2.28971,3.2588 3.32125,4.7645 1.03155,1.5057 2.21162,3.4008 2.62238,4.2114 0.41076,0.8106 0.74684,1.5475 0.74684,1.6376 0,0.09 -0.24178,0.1534 -0.53729,0.1409 z m -2.97538,-2.4334 c 0.0745,0 0.13538,-0.1382 0.13538,-0.3071 0,-0.1688 -0.14631,-0.307 -0.32515,-0.307 -0.17882,0 -0.23975,0.1382 -0.13538,0.307 0.10436,0.1689 0.25067,0.3071 0.32515,0.3071 z m -1.09272,-1.5352 c 0.22515,0 0.31726,-0.092 0.20468,-0.2047 -0.11257,-0.1125 -0.29679,-0.1125 -0.40936,0 -0.11258,0.1126 -0.0205,0.2047 0.20468,0.2047 z m 20.91924,-27.0289 c -0.44496,-0.01 -1.84523,-0.4197 -3.11171,-0.9199 -1.26649,-0.5002 -2.42359,-0.9099 -2.57134,-0.9105 -0.14774,-6e-4 -1.04579,-0.3373 -1.99567,-0.7481 -0.94987,-0.4108 -3.03957,-1.25183 -4.64378,-1.86889 -1.60422,-0.61705 -3.33124,-1.30004 -3.83783,-1.51775 -0.5066,-0.21771 -2.50994,-0.98197 -4.45188,-1.69836 -1.94195,-0.71638 -4.89246,-1.83877 -6.55669,-2.49419 -1.66424,-0.65542 -3.14539,-1.19167 -3.29144,-1.19167 -0.14605,0 -1.02068,-0.3454 -1.94362,-0.76756 -0.92293,-0.42217 -1.83134,-0.76757 -2.01868,-0.76757 -0.2228,0 -0.27467,-0.39821 -0.14996,-1.15135 0.10486,-0.63324 0.33206,-1.52388 0.50488,-1.9792 l 0.31423,-0.82785 1.58146,0.64309 c 0.86981,0.35369 2.82492,1.11417 4.3447,1.68993 1.51978,0.57578 3.66129,1.37495 4.75891,1.77594 1.09761,0.401 3.10096,1.14352 4.45188,1.65006 1.35091,0.50653 3.2161,1.21746 4.14485,1.57985 0.92876,0.3624 2.51762,0.94662 3.53081,1.29827 1.01318,0.35166 2.11848,0.81264 2.45621,1.02441 0.33772,0.21177 1.30486,0.59592 2.14918,0.85368 0.84432,0.25776 2.3641,0.80188 3.37729,1.20918 1.01319,0.40728 2.49843,0.97948 3.30053,1.27155 l 1.45838,0.53103 0,0.9065 c 0,0.4986 -0.22314,1.247 -0.49585,1.6632 -0.324,0.4945 -0.77623,0.7531 -1.30486,0.7462 z m -2.23669,-1.6832 c 0.0873,-0.087 -0.005,-0.3221 -0.20468,-0.5219 -0.22031,-0.2203 -0.36332,-0.2384 -0.36332,-0.046 0,0.1745 0.0921,0.4094 0.20469,0.522 0.11257,0.1125 0.27607,0.1333 0.36331,0.046 z m -1.84216,-0.614 c 0.0872,-0.087 -0.005,-0.3221 -0.20468,-0.5219 -0.22031,-0.2204 -0.36331,-0.2385 -0.36331,-0.046 0,0.1745 0.0921,0.4093 0.20468,0.5219 0.11258,0.1126 0.27607,0.1333 0.36331,0.046 z m -1.15282,-0.4554 c 0.14554,0 0.10699,-0.346 -0.0857,-0.7689 -0.19268,-0.42285 -0.39148,-0.72769 -0.44178,-0.67739 -0.0503,0.0503 -0.0118,0.3963 0.0857,0.76889 0.0974,0.3725 0.29623,0.6774 0.44178,0.6774 z m -1.30339,-0.7727 c 0.0873,-0.0872 -0.005,-0.32213 -0.20468,-0.52195 -0.22031,-0.22031 -0.36332,-0.23844 -0.36332,-0.0461 0,0.17449 0.0921,0.40936 0.20469,0.52194 0.11258,0.11261 0.27607,0.13331 0.36331,0.0461 z m -36.64834,0.1586 c -0.23314,0 -1.22551,-0.67016 -2.20524,-1.48928 -0.97975,-0.81912 -2.45588,-2.23528 -3.2803,-3.14702 -0.82442,-0.91174 -1.80375,-2.00312 -2.17628,-2.42528 -0.37252,-0.42216 -0.83692,-1.06765 -1.032,-1.43444 -0.19508,-0.36677 -0.53236,-0.85034 -0.74952,-1.07459 -0.21716,-0.22424 -1.05891,-1.5821 -1.87056,-3.01744 -0.81164,-1.43535 -1.88648,-3.71502 -2.38853,-5.06594 -0.50205,-1.35091 -1.05164,-3.2161 -1.22132,-4.14485 -0.16967,-0.92876 -0.43604,-2.72486 -0.5919,-3.99135 -0.19052,-1.54799 -0.1763,-2.62973 0.0434,-3.30053 0.17974,-0.54881 0.42619,-0.99784 0.54766,-0.99784 0.12147,0 0.39113,0.9326 0.59923,2.07243 0.2081,1.13984 0.43376,2.41783 0.50146,2.84 0.0677,0.42216 0.27079,1.4208 0.45134,2.2192 0.18054,0.7984 0.55087,2.04186 0.82296,2.76324 0.27208,0.72138 0.77064,1.92896 1.1079,2.68352 0.33726,0.75456 0.74414,1.71631 0.90416,2.13722 0.16003,0.42091 1.1365,1.80689 2.16993,3.07996 1.03343,1.27306 2.57499,2.90344 3.42568,3.62306 0.8507,0.71962 2.40307,1.7387 3.44969,2.26464 l 1.90297,0.95624 0.20943,2.08543 c 0.11519,1.14698 0.11815,2.37301 0.006,2.72453 -0.11157,0.35151 -0.3936,0.63909 -0.62676,0.63909 z m 2.21974,-1.22808 c -0.18709,0 -0.21652,-0.94594 -0.0788,-2.53297 0.16378,-1.88748 0.34993,-2.60379 0.73046,-2.81088 0.28086,-0.15286 1.00038,-0.78511 1.59894,-1.40502 0.59856,-0.61989 1.74927,-2.22186 2.55713,-3.55991 l 1.46885,-2.43281 -0.15916,1.2281 c -0.0875,0.67546 -0.22932,1.50443 -0.31511,1.84216 -0.0858,0.33773 -0.56753,1.60509 -1.07055,2.81636 -0.50303,1.21126 -1.16249,2.59288 -1.46547,3.07027 -0.303,0.47737 -1.09467,1.52422 -1.75928,2.32633 -0.66461,0.8021 -1.34276,1.45837 -1.50699,1.45837 z m -9.96418,-4.29837 c -0.15357,0 -1.10309,-0.72535 -2.11005,-1.61189 -1.00695,-0.88654 -2.52162,-2.37178 -3.36593,-3.30053 -0.84432,-0.92875 -2.10802,-2.4495 -2.80823,-3.37942 -0.70022,-0.92993 -1.7809,-2.71824 -2.40152,-3.97402 l -1.12842,-2.28326 0.18658,-1.36125 c 0.10262,-0.74868 0.6997,-2.31124 1.32684,-3.47235 l 1.14025,-2.11111 0.96047,4.41209 c 0.52826,2.42665 1.34071,5.36304 1.80544,6.5253 0.46474,1.16227 1.57736,3.35667 2.47248,4.87645 0.89514,1.51978 2.20662,3.41951 2.91442,4.22162 0.7078,0.8021 1.16125,1.45837 1.00767,1.45837 z m 8.02216,-1.45545 c -0.15144,0.0937 -0.6893,-0.0449 -1.19523,-0.30784 -0.50594,-0.26291 -1.67979,-1.06523 -2.60854,-1.78293 -0.92875,-0.71771 -2.10722,-1.76774 -2.61881,-2.33339 -0.51159,-0.56567 -1.35234,-1.58113 -1.86832,-2.25659 -0.51598,-0.67545 -1.2351,-1.78075 -1.59806,-2.45621 -0.36297,-0.67545 -0.99365,-1.98799 -1.40151,-2.91675 -0.40788,-0.92875 -1.02034,-2.65577 -1.36105,-3.83783 -0.34071,-1.18205 -0.7638,-2.90907 -0.9402,-3.83783 -0.17641,-0.92875 -0.38826,-2.31477 -0.47079,-3.08004 -0.0845,-0.78404 0.0109,-1.71159 0.21868,-2.12494 0.2028,-0.40345 0.5238,-0.78462 0.71333,-0.84707 0.21515,-0.0709 0.46984,0.72735 0.678,2.12494 0.18339,1.23116 0.675,3.41642 1.09249,4.85614 0.4175,1.43971 1.08119,3.18472 1.47486,3.87779 0.39366,0.69307 1.32148,1.76619 2.0618,2.3847 0.74032,0.61853 1.63672,1.28263 1.992,1.47578 0.35528,0.19315 1.59803,0.70531 2.76167,1.13814 l 2.11571,0.78697 0.41655,1.38162 c 0.2291,0.75989 0.50569,2.77742 0.61466,4.48339 0.11117,1.74059 0.0773,3.17646 -0.0773,3.27195 z m 2.63835,-0.69083 c -0.31424,0.16818 -0.64363,0.18884 -0.73196,0.0458 -0.0883,-0.14293 -0.23842,-1.697 -0.3335,-3.45348 -0.0951,-1.75649 -0.0935,-3.55536 0.004,-3.99746 0.11291,-0.51407 0.69682,-1.14416 1.61973,-1.74781 0.79375,-0.51917 1.85766,-1.34287 2.36426,-1.83044 0.50659,-0.48758 1.18682,-1.21649 1.51161,-1.61981 0.3248,-0.40332 0.71147,-1.29093 0.85929,-1.97248 0.14781,-0.68155 0.41233,-2.82804 0.58782,-4.76998 0.17548,-1.94194 0.43192,-3.64891 0.56987,-3.79327 0.13795,-0.14436 0.35019,0.79797 0.47163,2.09405 0.12145,1.29609 0.12163,3.88709 3.1e-4,5.75777 l -0.22044,3.40125 -0.88693,2.48153 c -0.48781,1.36483 -1.13111,2.83033 -1.42955,3.25663 -0.29843,0.42631 -0.88801,1.43918 -1.31017,2.25082 -0.42216,0.81165 -1.15834,1.95166 -1.63596,2.53336 -0.47761,0.5817 -1.1255,1.19524 -1.43974,1.36342 z m 5.73659,-6.5528 c -0.11258,0.11258 -0.20468,0.0205 -0.20468,-0.20468 0,-0.22515 0.0921,-0.31726 0.20468,-0.20469 0.11258,0.11258 0.11258,0.2968 0,0.40937 z m -5.97585,-3.4607 -0.92165,0.47661 -0.30371,-0.3757 c -0.16703,-0.20663 -0.39472,-1.20467 -0.50596,-2.21785 -0.11124,-1.01319 -0.25514,-2.71956 -0.31976,-3.79192 -0.0646,-1.07238 -0.0408,-2.14954 0.0529,-2.3937 0.0936,-0.24417 0.81743,-0.77184 1.60831,-1.1726 0.79087,-0.40077 1.85357,-1.11971 2.36153,-1.59765 0.63949,-0.60168 1.14643,-1.59866 1.64805,-3.24117 l 0.72445,-2.3722 0.42675,0.35416 c 0.2347,0.1948 0.60668,0.70963 0.82661,1.1441 0.29795,0.58856 0.33035,1.29867 0.12713,2.78559 -0.15001,1.09762 -0.33557,2.50563 -0.41232,3.12889 -0.0768,0.62327 -0.3656,2.14305 -0.64184,3.37729 l -0.50227,2.24408 -1.62325,1.58773 c -0.89281,0.87326 -2.03801,1.80221 -2.54493,2.06434 z m -3.36287,-0.0178 c -0.12664,0.0769 -1.05924,-0.17186 -2.07242,-0.55264 -1.01319,-0.38078 -2.08395,-0.79567 -2.37946,-0.92198 -0.29551,-0.12631 -0.53729,-0.34373 -0.53729,-0.48315 0,-0.13942 -0.27284,-0.34008 -0.60631,-0.44592 -0.33346,-0.10583 -1.05364,-0.6667 -1.60039,-1.24636 -0.54675,-0.57966 -1.2551,-1.71129 -1.5741,-2.51474 -0.319,-0.80344 -0.89885,-2.98059 -1.28857,-4.8381 -0.3897,-1.85751 -0.80119,-3.74157 -0.91441,-4.18682 l -0.20585,-0.80954 1.15298,-1.15298 1.153,-1.153 0.21402,0.58091 c 0.1177,0.31949 0.31715,1.20264 0.44321,1.96253 0.12605,0.75989 0.57539,1.97578 0.9985,2.70198 0.47431,0.81407 1.45408,1.7752 2.55512,2.50654 0.98221,0.65239 2.05207,1.27067 2.37746,1.37396 0.32541,0.10327 0.82139,0.44164 1.10221,0.75193 0.2808,0.3103 0.58118,0.89395 0.66749,1.29703 0.0863,0.40307 0.28846,1.49275 0.44923,2.4215 0.16076,0.92876 0.2931,2.33676 0.29407,3.1289 9.2e-4,0.79215 -0.10183,1.50312 -0.22849,1.57995 z m -19.34266,-2.89092 c -0.12664,-0.0133 -0.43751,-0.0948 -0.6908,-0.18104 -0.2533,-0.0863 -0.87503,-0.34169 -1.38162,-0.56767 -0.5066,-0.22597 -2.23362,-0.89724 -3.83783,-1.49171 -1.60422,-0.59445 -4.229291,-1.58616 -5.833503,-2.20381 -1.604213,-0.61763 -3.676641,-1.3975 -4.605395,-1.73304 -0.928755,-0.33553 -2.268249,-0.87356 -2.976662,-1.19562 -0.708412,-0.32206 -1.378343,-0.58556 -1.488729,-0.58556 -0.110397,0 -0.636077,-0.19086 -1.168195,-0.42413 -0.532117,-0.23327 -2.141856,-0.87334 -3.577204,-1.42238 -1.435348,-0.54906 -2.782426,-1.13501 -2.993507,-1.30212 -0.211081,-0.16711 -0.383783,-0.67501 -0.383783,-1.12866 0,-0.45364 0.183141,-1.07526 0.406984,-1.38137 l 0.406974,-0.55658 1.204914,0.15507 c 0.662696,0.0852 2.517442,0.66241 4.121655,1.28247 1.604212,0.62006 3.67664,1.39618 4.605395,1.7247 0.928754,0.32852 1.964968,0.72808 2.302697,0.88792 0.337729,0.15984 1.581186,0.65068 2.763237,1.09076 1.182052,0.44008 2.389095,0.93093 2.682315,1.09075 0.293221,0.15982 0.716297,0.29059 0.940167,0.29059 0.22387,0 0.9511,0.26089 1.61605,0.57977 0.66496,0.31887 1.83075,0.7924 2.59064,1.05226 0.75989,0.25988 2.34282,0.86249 3.51762,1.33915 1.1748,0.47666 2.10739,0.97027 2.07243,1.09692 -0.035,0.12665 -0.0636,0.99016 -0.0636,1.91892 0,0.92875 -0.10362,1.67773 -0.23027,1.66441 z m -2.88604,-2.28358 c 0.0873,-0.0873 -0.005,-0.32212 -0.20469,-0.52195 -0.22031,-0.22031 -0.36331,-0.23843 -0.36331,-0.046 0,0.17449 0.0921,0.40937 0.20468,0.52194 0.11258,0.11258 0.27607,0.1333 0.36332,0.0461 z m -1.79611,-0.45543 c 0.16887,0 0.30703,-0.0609 0.30703,-0.13538 0,-0.0745 -0.13816,-0.22079 -0.30703,-0.32515 -0.16886,-0.10437 -0.30702,-0.0434 -0.30702,0.13538 0,0.17884 0.13816,0.32515 0.30702,0.32515 z m -20.30979,-7.83428 c 0.0873,-0.0872 -0.0051,-0.32213 -0.204684,-0.52195 -0.220312,-0.22031 -0.363314,-0.23844 -0.363314,-0.046 0,0.17449 0.09211,0.40937 0.204684,0.52194 0.112576,0.11258 0.276068,0.1333 0.363314,0.0461 z m 25.56035,6.29915 c -0.11562,0 -0.5844,-0.76295 -1.04174,-1.69545 -0.56559,-1.1532 -0.83153,-2.18423 -0.83153,-3.22377 l 0,-1.52833 0.99784,0.005 c 0.54881,0.002 1.13844,0.10621 1.31029,0.23027 0.17186,0.12406 0.30226,1.33086 0.2898,2.68178 -0.0125,1.35092 -0.13331,2.69799 -0.26856,2.99351 -0.13523,0.29551 -0.34048,0.53729 -0.4561,0.53729 z m 1.43229,-2.45621 c -0.12941,0 -0.232,-0.31086 -0.22797,-0.69081 0.004,-0.37994 0.1322,-1.22913 0.28482,-1.88707 0.15262,-0.65795 0.46019,-1.3121 0.68348,-1.45367 0.2233,-0.14158 0.58304,-0.25953 0.79941,-0.26212 0.21638,-0.002 0.4702,0.19538 0.56403,0.43992 0.0939,0.24453 -0.28818,1.21167 -0.84892,2.14918 -0.56076,0.93752 -1.12544,1.70457 -1.25485,1.70457 z m 16.40242,-0.69786 c -0.17919,0.28207 -0.6988,0.1572 -2.06773,-0.49692 -1.00561,-0.48052 -2.13796,-1.21022 -2.51631,-1.62156 -0.37836,-0.41133 -1.03463,-1.60113 -1.45838,-2.64399 -0.42375,-1.04285 -0.77045,-2.28259 -0.77045,-2.75497 0,-0.47237 0.20281,-1.14841 0.45068,-1.5023 0.24787,-0.35388 1.06894,-0.79911 1.8246,-0.98939 0.75566,-0.19027 1.72404,-0.34596 2.15197,-0.34596 0.47465,0 0.94588,0.26938 1.20845,0.69081 0.23672,0.37995 0.6544,2.07846 0.92815,3.77447 0.27377,1.69603 0.49563,3.63029 0.49306,4.29838 -0.002,0.66808 -0.11241,1.38423 -0.24404,1.59143 z m 2.74309,0.22522 -0.65173,0.20684 -0.26267,-0.71142 c -0.14448,-0.39129 -0.28607,-1.47131 -0.31464,-2.40007 -0.0285,-0.92875 -0.19183,-2.58669 -0.36278,-3.68431 -0.17095,-1.09762 -0.38384,-2.23634 -0.47307,-2.53048 -0.10984,-0.36207 0.0802,-0.64529 0.58839,-0.87683 l 0.75062,-0.342 1.64873,0.4811 c 1.05115,0.30673 2.06603,0.8876 2.80008,1.60265 0.63324,0.61684 1.15135,1.39116 1.15135,1.7207 0,0.32953 -0.46254,1.60026 -1.02787,2.82383 l -1.02786,2.22468 -1.08341,0.63923 c -0.59588,0.35157 -1.37669,0.73231 -1.73514,0.84608 z m -22.86044,-0.24375 c -0.11257,0.11257 -0.20468,0.0205 -0.20468,-0.20469 0,-0.22515 0.0921,-0.31726 0.20468,-0.20468 0.11258,0.11258 0.11258,0.29679 0,0.40937 z m -0.33481,-0.97225 c -0.0445,0.16886 -0.18056,-0.47889 -0.3022,-1.43944 -0.1624,-1.28233 -0.1033,-1.97146 0.22239,-2.59306 l 0.44358,-0.84658 -0.14137,2.28603 c -0.0778,1.25731 -0.17783,2.42418 -0.2224,2.59305 z m 4.15161,-2.76071 -0.73742,0.22195 0.17072,-1.65414 c 0.094,-0.90979 0.42379,-2.23829 0.7331,-2.95224 0.37558,-0.86692 0.75425,-1.29809 1.14007,-1.29809 l 0.57769,0 -0.21545,2.37946 c -0.1185,1.3087 -0.37652,2.53732 -0.57337,2.73028 -0.19686,0.19296 -0.68976,0.45071 -1.09534,0.57278 z m 3.69553,-0.97564 c -0.48385,0.60884 -0.96742,1.0193 -1.07459,0.91212 -0.10718,-0.10718 -0.19487,-1.21147 -0.19487,-2.454 l 0,-2.25912 0.78756,-0.29943 c 0.43315,-0.16468 0.91672,-0.29942 1.07459,-0.29942 0.15787,0 0.28704,0.7409 0.28704,1.64643 l 0,1.64643 z m -6.30148,0.76453 -0.82829,0.0985 0.10019,-0.74833 c 0.0552,-0.41158 0.56539,-1.66479 1.13394,-2.78493 0.56854,-1.12012 1.22029,-2.03659 1.44832,-2.03659 0.22804,0 0.41246,0.0345 0.40984,0.0768 -0.003,0.0422 -0.32673,1.25113 -0.72025,2.68648 l -0.71547,2.60972 -0.8283,0.0985 z m 29.93148,-1.17304 c -0.15218,0 -0.55189,-0.46642 -0.88825,-1.03649 -0.33635,-0.57007 -1.17896,-1.35541 -1.87248,-1.74519 -0.69351,-0.38977 -1.26094,-0.80851 -1.26094,-0.93052 0,-0.12201 -1.02661,-0.64922 -2.28135,-1.17156 -1.25475,-0.52236 -2.6709,-0.94762 -3.14702,-0.94504 -0.47612,0.002 -1.0616,0.12871 -1.30106,0.28029 -0.28306,0.17916 -0.69318,0.10667 -1.17219,-0.20718 -0.40523,-0.26551 -1.20623,-0.46511 -1.77999,-0.44355 -0.57376,0.0216 -1.88515,0.46424 -2.91421,0.9837 -1.02905,0.51947 -2.55308,1.43451 -3.38673,2.03343 l -1.51573,1.08894 -0.18766,-0.48905 c -0.10321,-0.26897 -0.13532,-2.02002 -0.0713,-3.89122 l 0.11632,-3.40218 -1.03104,0.12036 -1.03102,0.12037 0.17251,-0.86254 c 0.1267,-0.63349 0.0523,-0.86254 -0.28036,-0.86254 -0.24908,0 -0.45286,-0.0927 -0.45286,-0.2061 0,-0.11335 0.19724,-0.42422 0.43832,-0.69081 0.24108,-0.26659 0.87159,-1.35818 1.40114,-2.42576 0.63733,-1.28486 1.01742,-2.58227 1.12432,-3.83783 0.0888,-1.04323 0.0152,-2.2744 -0.16348,-2.73594 l -0.32497,-0.83917 -1.22384,-0.1957 c -0.67568,-0.10805 -1.61977,-0.5573 -2.10778,-1.00299 -0.48617,-0.44401 -1.61772,-2.11983 -2.51458,-3.72405 -0.89685,-1.60421 -2.12865,-3.52572 -2.73734,-4.27002 -0.73783,-0.9022 -1.71341,-1.62419 -2.92693,-2.16607 l -1.82023,-0.8128 0.89905,-0.62696 c 0.49447,-0.34483 1.36868,-0.78626 1.94269,-0.98094 0.57401,-0.1947 1.95982,-0.354 3.07958,-0.354 l 2.03594,0 2.6004,-1.101 c 1.43022,-0.60556 3.31132,-1.17605 4.18023,-1.26775 1.1303,-0.11931 2.2002,0.0217 3.76012,0.4955 1.30587,0.39665 2.61638,1.04511 3.26758,1.61689 0.598,0.52504 1.24524,1.24654 1.4383,1.60333 0.19307,0.35679 0.52834,1.89216 0.74503,3.41194 0.21669,1.51978 0.39885,3.79989 0.4048,5.06691 0.006,1.29864 0.26181,3.18139 0.58613,4.31549 0.31643,1.10649 0.82107,2.48767 1.12144,3.06928 0.30036,0.58161 1.52671,2.39223 2.7252,4.02358 1.19851,1.63135 2.78495,3.93594 3.52541,5.1213 0.74048,1.18537 1.74215,3.09345 2.22594,4.24017 0.62615,1.48414 0.87963,2.59623 0.87963,3.85921 0,0.97585 -0.12451,1.77426 -0.2767,1.77426 z m -19.12458,-33.77759 c 0.0522,0.003 0.009,-0.13445 -0.0962,-0.30451 -0.10511,-0.17007 -0.60691,-0.52424 -1.11512,-0.78704 -0.58186,-0.30089 -1.2568,-0.40475 -1.8227,-0.28045 -0.49426,0.10855 -0.89866,0.32457 -0.89866,0.48001 0,0.15545 0.65627,0.28475 1.45837,0.28733 0.80211,0.003 1.66562,0.13863 1.91892,0.30233 0.25329,0.1637 0.50323,0.29974 0.55542,0.30233 z M 107.8898,965.7721 c -0.24133,0.42216 -0.4416,0.6294 -0.44503,0.46054 -0.003,-0.16887 0.19284,-0.85968 0.43618,-1.53514 l 0.44243,-1.2281 0.002,0.76756 c 0.002,0.42217 -0.19485,1.11298 -0.43618,1.53514 z m 1.72076,-2.37946 c -0.51681,0.88654 -0.94193,1.40465 -0.94471,1.15135 -0.003,-0.2533 0.13601,-0.96844 0.30843,-1.58921 0.17241,-0.62076 0.93124,-1.96784 1.68629,-2.9935 0.75505,-1.02567 1.49248,-1.86484 1.63872,-1.86484 0.14624,0 -0.0607,0.64514 -0.4599,1.43365 -0.3992,0.78851 -0.72581,1.61748 -0.72581,1.84216 0,0.22468 -0.12676,0.4085 -0.28169,0.4085 -0.15492,0 -0.70452,0.72535 -1.22133,1.61189 z m 5.87814,-0.89609 -0.99783,0.18993 0.005,-0.68313 c 0.002,-0.37572 0.1776,-1.23578 0.38898,-1.91124 0.21137,-0.67546 0.55953,-1.53897 0.7737,-1.91892 0.21417,-0.37994 0.58112,-0.6908 0.81546,-0.6908 l 0.42606,0 -0.17175,2.37945 c -0.0945,1.3087 -0.18743,2.39415 -0.2066,2.41211 -0.0191,0.0179 -0.48387,0.11812 -1.03267,0.2226 z m -2.72489,-0.17674 c -0.3166,0.0432 -0.75259,-0.0366 -0.96886,-0.17746 l -0.39322,-0.25599 1.46781,-2.88226 c 0.8073,-1.58525 1.64052,-2.93305 1.8516,-2.99514 0.21211,-0.0624 0.37601,0.1389 0.36642,0.45 -0.009,0.30959 -0.40678,1.73726 -0.88273,3.17261 -0.64389,1.94183 -1.01268,2.62981 -1.44102,2.68824 z"
       id="path4148"
       inkscape:connector-curvature="0"
       sodipodi:nodetypes="cssssscssssscssssssscsscssccsssccsscccssssssccccssccccsscssssscscscssccccsscccscccccscscsccssscssscsscsscscscsccsscsscsssscsscccssscscsccssscsccccccssscssssscscsssssscccscscsscccccccccscscscscssscccccssccccccsscccssccssssssccccssccsssssccccccssccccssssscsccccssssssssssssssscccsssccsssssssscccccccssscscsccsssssssccsscssccsccscscsccsssssscsccsscscsscscscscssssssssccccccsccccccccccsssscsccssccsssssssssssssscccsssscssssscscscscsssscssssccscsssssssccssssssssscsccssssssssccsssssscssscsscscsssscsssscsssccssccsssccsscscsscccccssscscccssssscccscsssssssscsscsssssccssscsscccccssssscssccccscssssscsccscssccssssccsscccsscccssscscccsssccscscccsssccccccccccssssssssscccsssscsccscsccscssssssssccsscccsccsccccscscccsssssssssssscsscccscccscssccssssscssccccccsscsscsssccsscscccsscscccscsssccscsscsscccsssssscccsssscscscssscsscssssssssccscscsccccsccccscssscssscccccscscccsccsccss" />
  </g>
</svg>
