<?xml version="1.0" encoding="UTF-8" standalone="no"?>
<!-- Created with Inkscape (http://www.inkscape.org/) -->

<svg
   xmlns:dc="http://purl.org/dc/elements/1.1/"
   xmlns:cc="http://creativecommons.org/ns#"
   xmlns:rdf="http://www.w3.org/1999/02/22-rdf-syntax-ns#"
   xmlns:svg="http://www.w3.org/2000/svg"
   xmlns="http://www.w3.org/2000/svg"
   xmlns:sodipodi="http://sodipodi.sourceforge.net/DTD/sodipodi-0.dtd"
   xmlns:inkscape="http://www.inkscape.org/namespaces/inkscape"
   width="256"
   height="128"
   viewBox="0 0 256 128"
   id="svg2"
   version="1.1"
   inkscape:version="0.91 r13725"
   sodipodi:docname="house_lannister.svg"
   inkscape:export-filename="C:\Users\Greene\Documents\Firaxis ModBuddy\XCOM\Game of Thrones\imageSource\house_lannister.png"
   inkscape:export-xdpi="90"
   inkscape:export-ydpi="90">
  <defs
     id="defs4" />
  <sodipodi:namedview
     id="base"
     pagecolor="#ffffff"
     bordercolor="#666666"
     borderopacity="1.0"
     inkscape:pageopacity="0.0"
     inkscape:pageshadow="2"
     inkscape:zoom="2.8"
     inkscape:cx="154.69141"
     inkscape:cy="91.527327"
     inkscape:document-units="px"
     inkscape:current-layer="layer1"
     showgrid="false"
     units="px"
     showborder="true"
     inkscape:window-width="1920"
     inkscape:window-height="1138"
     inkscape:window-x="-8"
     inkscape:window-y="-8"
     inkscape:window-maximized="1"
     inkscape:snap-nodes="false" />
  <metadata
     id="metadata7">
    <rdf:RDF>
      <cc:Work
         rdf:about="">
        <dc:format>image/svg+xml</dc:format>
        <dc:type
           rdf:resource="http://purl.org/dc/dcmitype/StillImage" />
        <dc:title />
      </cc:Work>
    </rdf:RDF>
  </metadata>
  <g
     inkscape:label="Layer 1"
     inkscape:groupmode="layer"
     id="layer1"
     transform="translate(0,-924.36216)">
    <rect
       style="fill:#8b0800;fill-opacity:1;stroke:none;stroke-width:4;stroke-linecap:round;stroke-linejoin:round;stroke-miterlimit:4;stroke-dasharray:none;stroke-opacity:1"
       id="rect4182"
       width="256"
       height="128"
       x="0"
       y="924.36218"
       ry="0" />
    <path
       style="fill:#d2a202;fill-opacity:1"
       d="m 97.194551,928.83031 c -0.423501,0 -0.603885,0.43443 -0.400201,0.96525 0.517914,1.34964 -1.02262,2.43542 -2.79711,1.97137 -0.875829,-0.22904 -1.48663,-0.0786 -1.48663,0.36638 0,0.41539 0.339891,0.75529 0.755285,0.75529 0.431244,0 0.59842,0.60238 0.388926,1.40349 -0.227874,0.8714 0.126609,1.89648 0.935656,2.70553 1.53688,1.53688 1.72692,4.00756 0.308603,4.00756 -0.652438,0 -0.85183,-0.40621 -0.580566,-1.18367 0.372803,-1.06847 0.305283,-1.08305 -0.693288,-0.14936 -0.883743,0.82632 -0.975899,1.48789 -0.459382,3.28891 0.355607,1.23992 1.190828,2.66752 1.855827,3.17195 1.111739,0.84327 1.059239,0.9187 -0.651021,0.93848 -2.537558,0.0292 -2.33776,0.93463 0.448116,2.02773 1.967649,0.77205 2.198589,1.08141 1.56272,2.0996 -0.562367,0.90048 -0.518228,1.46839 0.17755,2.30674 0.83093,1.0012 0.982175,1.00673 1.514815,0.0549 1.096102,-1.95861 2.210439,-1.12035 2.412429,1.81356 0.18196,2.64278 1.49368,5.46786 1.49368,3.21704 0,-0.72594 0.18617,-0.76077 0.79616,-0.15078 0.60997,0.60998 0.50573,1.11512 -0.44388,2.16443 -1.40658,1.55425 -2.763735,1.76733 -3.326963,0.52278 -0.210131,-0.46501 -0.302368,-0.23673 -0.204322,0.50729 0.184322,1.39854 1.236905,1.55861 4.531775,0.68624 1.5312,-0.4054 1.58176,-0.35853 0.53124,0.50447 -1.45551,1.19569 -0.39123,2.49313 2.14046,2.6083 1.39551,0.0635 1.46654,0.13975 0.37202,0.40302 -1.93183,0.46466 -2.9146,1.54722 -1.40491,1.54722 1.04329,0 1.09656,0.16257 0.35088,1.06107 -0.48459,0.58387 -1.41098,0.92364 -2.06015,0.75389 -0.73374,-0.19189 -1.06141,10e-4 -0.86521,0.51291 0.1894,0.49357 -0.74197,1.13972 -2.32788,1.61488 -3.436915,1.02972 -5.269907,0.96319 -8.573146,-0.31143 -4.445317,-1.71531 -8.323704,-2.19004 -9.652535,-1.18084 -1.089517,0.82742 -1.077293,0.89084 0.183192,0.93002 1.2445,0.0387 1.258029,0.0971 0.169092,0.73133 -0.651027,0.37918 -1.183668,1.1492 -1.183668,1.71069 0,0.56152 0.304371,0.83302 0.67638,0.60311 0.923091,-0.5705 0.859835,1.23695 -0.07608,2.17287 -0.980855,0.98086 -0.08314,2.50972 0.982164,1.67264 0.431893,-0.33937 1.241444,-0.61002 1.799458,-0.60029 0.558014,0.009 2.232057,-0.20571 3.720096,-0.4791 2.528958,-0.46464 2.617239,-0.4287 1.352771,0.54533 -0.744019,0.57312 -1.750734,1.05205 -2.237695,1.06389 -0.486951,0.0118 -0.715632,0.29507 -0.5087,0.62989 0.684399,1.10738 5.062973,0.63989 6.799049,-0.72571 1.831333,-1.44053 2.096302,-1.21706 0.996243,0.83843 -0.545262,1.01884 -0.478815,1.30767 0.298735,1.30767 0.549159,0 1.202862,-0.33113 1.452811,-0.73556 0.327256,-0.52951 0.659816,-0.52951 1.189309,0 0.404433,0.40443 1.473216,0.73556 2.374382,0.73556 1.391302,0 1.509982,-0.15609 0.783472,-1.03148 -1.329072,-1.60143 -0.1574,-2.06664 1.99815,-0.79333 2.42054,1.42985 3.00894,1.44782 2.48148,0.0733 -0.55908,-1.45693 0.084,-2.33478 1.35417,-1.84737 0.71168,0.27307 0.91638,0.9086 0.64256,1.99955 -0.57079,2.2742 1.48479,2.13047 2.35748,-0.16487 0.55599,-1.46238 0.84245,-1.62157 1.67404,-0.93143 0.81677,0.67786 1.00331,0.6284 1.00331,-0.26492 0,-0.60356 0.1648,-1.09771 0.36636,-1.09771 0.56196,0 2.52989,2.09599 4.58248,4.88263 1.01924,1.38371 3.45765,4.03465 5.41952,5.89016 3.08803,2.92052 7.15202,9.13322 6.43971,9.84555 -0.13225,0.13224 -1.45681,-0.57217 -2.94366,-1.5669 -2.0026,-1.33982 -3.7561,-1.86974 -6.76241,-2.04466 -2.23205,-0.12982 -4.28658,-0.37576 -4.56558,-0.54531 -0.27901,-0.16965 -0.50729,0.16681 -0.50729,0.74678 0,0.69146 -0.64048,1.06627 -1.86005,1.08788 -1.22913,0.0222 -2.77775,0.93708 -4.56557,2.69986 -2.45981,2.42528 -5.74925,3.61129 -5.74925,2.07291 0,-0.33224 -0.45673,-0.77881 -1.01598,-0.99346 -0.88391,-0.3392 -0.87971,-0.17976 0.0395,1.22307 0.58156,0.88757 1.49626,1.78267 2.03196,1.98827 1.49627,0.5742 1.16378,1.6174 -0.88635,2.7831 l -1.86004,1.0569 2.87743,-0.2085 c 3.46329,-0.2512 4.28523,1.1181 2.40116,3.9991 -0.67071,1.0255 -0.83985,1.6293 -0.37483,1.3429 0.57133,-0.3522 0.84548,-0.069 0.84548,0.8722 0,1.57 0.69248,1.782 1.89387,0.5805 0.63129,-0.6313 0.81166,-0.4997 0.81166,0.5932 0,1.9146 -1.14405,2.6712 -4.73185,3.1284 -2.43015,0.3096 -3.55904,0.9422 -5.61398,3.1452 -1.414673,1.5165 -2.367566,3.0898 -2.116504,3.4959 0.314129,0.5082 0.655738,0.4525 1.09349,-0.1789 0.448926,-0.6476 0.514807,-0.4857 0.225455,0.5482 -0.225516,0.8056 -0.09261,1.6602 0.294503,1.8995 0.387145,0.2393 0.703157,0.112 0.703157,-0.2818 0,-1.3796 1.937739,-0.7021 2.151749,0.7524 0.11886,0.8079 0.60556,1.5974 1.0822,1.7543 0.47664,0.1571 0.78101,0.014 0.67639,-0.3199 -0.10464,-0.333 0.93383,-1.5953 2.30814,-2.8056 l 2.49979,-2.1995 -0.13526,1.7544 c -0.0742,0.9651 -0.58951,2.0425 -1.14564,2.394 -0.80374,0.5082 -0.82052,0.6417 -0.0774,0.6497 1.82601,0.02 5.4919,-2.8312 6.57501,-5.1137 1.35493,-2.8554 2.29829,-2.975 2.29829,-0.2932 l 0,2.0221 2.11228,-2.1912 c 1.1613,-1.2056 2.3788,-2.1166 2.70553,-2.0236 0.32673,0.093 0.59325,-0.7366 0.59325,-1.843 0,-1.5513 -0.46454,-2.2516 -2.02915,-3.0607 -1.11603,-0.5771 -2.02914,-1.4063 -2.02914,-1.843 0,-0.5986 0.20009,-0.5947 0.81166,0.017 1.20325,1.2032 2.48384,0.9836 2.16723,-0.372 -0.28096,-1.2028 4.77783,-7.5183 5.46883,-6.8272 0.19872,0.1987 -0.26645,1.7813 -1.03429,3.5171 -0.76785,1.736 -1.21456,3.4517 -0.99204,3.8119 0.22251,0.3599 0.089,1.244 -0.29732,1.9655 -0.48817,0.9123 -0.48448,1.385 0.0112,1.5502 0.49157,0.1637 0.50011,0.7977 0.0282,2.039 -0.37658,0.9904 -0.4209,1.8972 -0.0986,2.015 0.32227,0.1177 0.19002,1.3584 -0.29452,2.7577 -0.4887,1.4113 -0.6143,2.7101 -0.28181,2.9156 0.32963,0.2036 0.59888,0.1055 0.59888,-0.2186 0,-0.324 0.90403,-1.2584 2.00941,-2.0756 l 2.01082,-1.4852 2.89295,3.1255 c 3.89339,4.2046 4.11484,4.6959 3.26778,7.2626 -0.48942,1.4829 -1.75562,2.8637 -3.82156,4.1697 -3.65514,2.3102 -5.68752,4.7045 -5.67316,6.6819 0.007,1.0606 0.16081,1.1933 0.59183,0.513 0.72,-1.1362 1.59372,0.036 1.06108,1.4247 -0.20415,0.532 0.0987,1.3575 0.67356,1.8346 0.88705,0.7362 1.04558,0.6504 1.04558,-0.5678 0,-0.7896 0.30437,-1.4359 0.67637,-1.4359 0.37202,0 0.67639,0.3956 0.67639,0.8793 0,0.4835 0.36524,1.2444 0.81166,1.6909 1.14282,1.143 2.97188,1.0956 2.01929,-0.053 -0.53428,-0.644 -0.0807,-1.5704 1.77691,-3.6244 1.37211,-1.5171 2.84409,-3.3341 3.27199,-4.0386 0.56038,-0.9223 0.76793,-0.997 0.73979,-0.2663 -0.0215,0.558 0.0105,1.7755 0.0705,2.7056 l 0.1099,1.6909 1.66278,-2.0291 c 0.9148,-1.1161 1.68402,-2.79 1.70927,-3.7201 0.0423,-1.5565 0.11765,-1.5968 0.94976,-0.5003 0.78816,1.0386 1.00951,1.0643 1.72899,0.1974 0.50666,-0.6106 0.65218,-1.788 0.37484,-3.0509 -0.5367,-2.4436 0.74191,-2.8614 1.63881,-0.5354 0.56965,1.4773 0.60114,1.4822 1.1104,0.1691 0.28854,-0.7442 1.23205,-2.0229 2.09677,-2.8422 1.77601,-1.6826 2.08712,-3.0613 0.55803,-2.4745 -0.55803,0.2144 -1.54724,0.182 -2.19825,-0.071 -1.11399,-0.4319 -1.11012,-0.5124 0.0676,-1.3795 1.58329,-1.1656 0.96539,-2.189 -1.7459,-2.8915 -1.16542,-0.3019 -2.25152,-0.9475 -2.41383,-1.4345 -0.20952,-0.6286 0.11999,-0.754 1.13716,-0.4312 0.78803,0.2501 1.43308,0.1915 1.43308,-0.1311 0,-1.0266 -1.57681,-2.2108 -2.94508,-2.2108 -1.2382,0 -1.2511,-0.079 -0.20291,-1.2373 1.57214,-1.7372 1.39163,-2.6858 -0.44388,-2.3349 -1.92537,0.3681 -3.78053,-1.501 -2.63085,-2.6507 0.55486,-0.5547 1.04802,-0.5111 1.86428,0.1663 0.9824,0.8153 1.08488,0.731 0.89481,-0.7383 -0.11809,-0.913 0.001,-2.0063 0.2649,-2.4293 0.29238,-0.4693 0.0299,-0.7334 -0.67215,-0.6764 -1.60066,0.129 -1.76311,-1.6339 -0.32268,-3.4905 1.14584,-1.4769 1.30647,-1.5031 3.20717,-0.5115 5.04597,2.6326 9.61867,1.8761 13.30077,-2.1996 1.24159,-1.3743 2.63181,-2.5286 3.08881,-2.5661 0.45701,-0.036 1.81918,-0.1176 3.02822,-0.1789 1.43919,-0.073 1.89485,-0.3048 1.32036,-0.6694 -0.70156,-0.4449 -0.66876,-0.72947 0.16204,-1.41893 0.57152,-0.47439 0.81878,-1.20758 0.54957,-1.63044 -0.50946,-0.8001 -0.62236,-1.19366 -0.76375,-2.66036 -0.10473,-1.08671 -1.87284,-3.49291 -4.27248,-5.81554 -2.62201,-2.53781 -4.56231,-7.24523 -4.11748,-9.98646 0.21569,-1.32915 0.0805,-2.26025 -0.32691,-2.26025 -1.09999,0 -1.57323,-2.00559 -0.81026,-3.43123 0.83268,-1.55586 2.8596,-1.70094 4.03153,-0.28887 0.67238,0.81017 0.67052,1.22283 -0.0127,2.04605 -0.46999,0.56701 -0.68558,1.20125 -0.47628,1.41055 0.20929,0.20929 0.9053,-0.41891 1.54582,-1.39646 0.94032,-1.43511 1.01717,-2.09992 0.4016,-3.45094 -1.53238,-3.36321 -6.05651,-3.81866 -8.97192,-0.90325 -0.76556,0.76554 -1.51031,1.27412 -1.65432,1.13011 -0.144,-0.144 -0.7625,-2.21865 -1.37531,-4.61067 -2.55255,-9.96357 0.75862,-18.20356 7.42892,-18.48636 1.84682,-0.0783 2.07746,0.11144 1.91502,1.56695 -0.29019,2.60019 -2.06977,4.2017 -3.69896,3.32977 -1.05171,-0.56288 -1.27924,-0.52038 -1.04276,0.19164 0.16643,0.50114 1.10555,1.19473 2.08692,1.54158 1.40422,0.49634 2.08548,0.35787 3.19871,-0.6496 1.20904,-1.09417 1.50504,-1.1373 2.03902,-0.29311 0.93689,1.4812 0.77153,3.76181 -0.33961,4.68395 -1.21134,1.00532 -2.62909,0.25419 -2.10382,-1.11461 0.2355,-0.61372 0.057,-0.89482 -0.46079,-0.7243 -0.46526,0.15324 -0.95107,0.99833 -1.07939,1.87837 -0.25767,1.7669 1.49409,3.48959 2.97185,2.92254 0.70097,-0.269 0.82789,0.19003 0.5411,1.95727 -0.26619,1.64041 -0.0476,2.63824 0.75671,3.44251 1.38965,1.38965 2.91255,1.56279 1.78395,0.20291 -0.76954,-0.92725 -0.36885,-3.12968 0.5693,-3.12968 0.74238,0 2.14032,-3.38878 1.69518,-4.10901 -0.2127,-0.34414 -0.0582,-0.62566 0.34382,-0.62566 0.40195,0 1.09223,0.79486 1.53454,1.76565 0.69036,1.51516 0.62218,1.89819 -0.48191,2.70552 -1.02711,0.75104 -1.07313,0.93989 -0.23251,0.93989 0.57895,0 1.88615,-0.65653 2.90561,-1.45844 1.54306,-1.21376 1.79374,-1.83142 1.49228,-3.68911 -0.29104,-1.79343 -0.10708,-2.31213 0.93707,-2.64353 2.48364,-0.78828 3.4489,0.82217 1.60078,2.67031 -0.58459,0.58457 -0.79765,1.06247 -0.47348,1.06247 1.9819,0 3.01755,-4.33529 1.41759,-5.93525 -0.60999,-0.60998 -0.53106,-1.08837 0.33819,-2.04887 0.62362,-0.68911 1.11426,-1.83861 1.09067,-2.55334 -0.0375,-1.13528 -0.12084,-1.10688 -0.65524,0.22265 -0.71473,1.77815 -3.41742,2.06902 -4.71354,0.50727 -0.7011,-0.84476 -0.61369,-1.01456 0.52137,-1.01456 0.74976,0 1.53882,-0.45656 1.75296,-1.01457 0.21413,-0.55802 0.094,-1.01459 -0.26633,-1.01459 -0.36033,0 -0.65524,0.30438 -0.65524,0.67639 0,0.79806 -2.68078,0.88693 -3.87511,0.12823 -0.61547,-0.39098 -0.48383,-0.82543 0.50728,-1.67405 1.34283,-1.14974 1.72146,-2.58061 0.89903,-3.40304 -0.24223,-0.24221 -0.81789,0.0738 -1.27807,0.70316 -1.52539,2.08608 -4.93558,2.76509 -8.12645,1.61768 -2.41532,-0.86854 -3.2529,-0.88846 -5.53507,-0.13528 -3.12594,1.03166 -6.46712,3.9434 -8.06162,7.02592 -1.67186,3.23207 -1.4044,10.58855 0.6017,16.56995 l 1.63317,4.86995 -1.80508,0 c -2.08414,0 -3.74291,1.5815 -4.39367,4.18934 -0.59085,2.36776 0.35429,4.07276 1.11603,2.01365 0.36154,-0.97735 1.11602,-1.46832 2.25602,-1.46832 1.72629,0 2.28775,0.91715 1.0357,1.69096 -0.37201,0.22991 -0.65629,1.23663 -0.6327,2.2377 0.0395,1.67929 0.0863,1.71041 0.61862,0.39314 0.57981,-1.435 2.59764,-2.64008 3.27904,-1.95869 0.20095,0.20096 0.005,0.72514 -0.43543,1.16534 -0.44022,0.44026 -0.80038,1.2295 -0.80038,1.75437 0,0.64227 0.38696,0.48954 1.18366,-0.46924 1.509,-1.81587 3.60428,-1.31633 5.10107,1.21749 1.07995,1.82825 1.05775,1.92698 -0.89622,3.79904 -2.17439,2.08313 -2.60609,3.20935 -0.99202,2.58997 0.558,-0.21412 1.01457,-0.0864 1.01457,0.28609 0,0.89778 -1.67215,1.49788 -4.17666,1.49788 -1.46831,0 -2.13632,-0.37776 -2.39129,-1.35278 -0.5969,-2.2825 -1.54863,-1.50231 -1.54863,1.26963 0,3.39882 1.13036,4.30134 4.67689,3.73423 4.87613,-0.77977 7.26275,2.95572 3.68627,5.76902 -2.64733,2.0823 -7.87838,1.9489 -10.08512,-0.258 -0.91311,-0.913 -1.65996,-2.2393 -1.65996,-2.94782 0,-0.70864 -1.02485,-3.53812 -2.27857,-6.28762 -3.06918,-6.73093 -4.93068,-14.46938 -3.80605,-15.82448 0.78807,-0.94957 0.67702,-2.99599 -0.33396,-6.16636 -0.41423,-1.29893 -0.21424,-1.4271 2.11228,-1.35276 2.07772,0.0664 2.61419,-0.17739 2.79853,-1.27103 0.1602,-0.95041 0.0507,-1.09484 -0.36919,-0.48473 -0.32874,0.47762 -1.10631,0.67381 -1.7276,0.43541 -0.85024,-0.32627 -1.1301,-1.28389 -1.1301,-3.87229 0,-2.87376 0.13891,-3.26193 0.84547,-2.36311 0.46501,0.59155 1.59275,1.29854 2.50543,1.57119 1.56307,0.46695 1.59252,0.42858 0.50729,-0.65666 -1.56815,-1.56814 -1.46453,-4.22285 0.2001,-5.11373 1.62025,-0.86713 1.73182,-2.53949 0.30578,-4.57544 -0.95603,-1.36488 -0.94938,-1.45752 0.069,-1.06671 1.03049,0.39543 1.03322,0.26976 0.0324,-1.6656 -1.37877,-2.66627 -1.36706,-3.51436 0.0493,-3.51436 0.96164,0 0.91062,-0.23625 -0.33818,-1.56555 -1.71542,-1.82597 -1.88958,-2.61004 -0.45656,-2.06014 1.61312,0.61901 1.17738,-0.8833 -0.68061,-2.34479 -1.07818,-0.84811 -1.54501,-1.72839 -1.2809,-2.41666 0.22848,-0.59539 0.0793,-1.08221 -0.33256,-1.08221 -0.41181,0 -0.74965,0.30437 -0.74965,0.67639 0,0.37199 -0.32187,0.67637 -0.71584,0.67637 -0.39396,0 -0.51997,-0.31897 -0.27901,-0.70879 0.24091,-0.38983 0.22947,-1.22685 -0.0267,-1.86005 -0.3974,-0.98208 -0.57442,-0.90275 -1.20198,0.5397 l -0.73556,1.69095 -0.25646,-1.86005 c -0.27967,-2.03135 -1.14789,-2.44795 -1.76282,-0.84548 -0.27967,0.72881 -1.42037,1.01458 -4.04843,1.01458 -2.42685,0 -3.94221,0.34156 -4.50077,1.01457 -0.46311,0.55802 -1.79426,1.02008 -2.95775,1.02585 -3.38917,0.0165 -4.02714,0.7874 -3.54256,4.06674 l 0.28183,1.91219 c 1.12472,0.11906 1.8499,0.0721 2.49839,-0.57915 0.32848,-0.28871 0.70397,-0.67638 1.05403,-0.67638 0.35005,0 0.63693,0.30436 0.63693,0.67638 0,0.37201 -0.49194,0.53347 -1.05403,0.67637 -1.09031,0.28617 -1.96486,0.0329 -3.0564,0.43543 l -2.07425,-0.0155 c -2.71564,-0.54313 -2.77595,-0.67179 -2.01082,-2.01506 0.90129,-1.58232 0.43497,-2.3489 -2.45753,-1.30767 -2.32399,0.8366 -2.70985,2.29397 -1.07375,3.93007 0.94235,0.94235 1.96503,1.04863 6.3453,0.66088 3.40711,-0.3016 5.3755,-0.21542 5.66188,0.248 0.0355,0.0574 0.0571,0.10839 0.0648,0.1522 0.007,0.0438 10e-4,0.081 -0.0183,0.11272 -0.0198,0.0318 -0.053,0.0586 -0.1001,0.0803 -0.0471,0.0217 -0.1077,0.0389 -0.18177,0.0521 -0.0741,0.0133 -0.16134,0.0231 -0.26211,0.0296 -0.10071,0.006 -0.21521,-0.31216 -0.34241,-0.30999 -0.12719,0.002 -0.26657,0.32272 -0.41991,0.32127 -0.15334,-10e-4 -0.38444,-0.38885 -0.56366,-0.39173 -0.19175,-0.003 -0.3231,0.39094 -0.51292,0.39455 -0.18983,0.004 -0.30898,-0.51197 -0.48052,-0.52842 -0.17153,-0.0164 -0.39436,0.46502 -0.53124,0.4016 -0.13689,-0.0635 -0.34954,-0.38133 -0.43542,-0.51855 -0.37574,0.35292 -0.37413,0.87739 -0.53548,1.03993 -0.16132,0.16254 -0.22791,0.38077 -0.25504,0.66792 -0.0271,0.28717 -0.0161,0.64388 -0.0212,1.08081 -0.005,0.49523 0.44095,0.89057 1.65855,0.89057 1.62179,0 2.02504,0.2602 1.83468,1.18367 -0.19845,0.9627 -0.8594,1.15127 -3.54115,1.00893 -2.00427,-0.10637 -3.87973,0.206 -4.78258,0.79758 -1.41323,0.92596 -1.6641,0.75375 -5.19264,-3.54538 -4.99405,-6.08467 -5.26711,-6.71608 -5.34483,-12.42005 -0.0779,-5.72411 -0.60908,-8.10591 -1.90514,-8.53792 -0.55471,-0.18491 -0.732552,-0.002 -0.44809,0.45796 0.26816,0.43392 0.0477,0.76375 -0.510122,0.76375 -0.540152,0 -1.156952,-0.45656 -1.371072,-1.01457 -0.214139,-0.55801 -0.736223,-1.01458 -1.159714,-1.01458 z m 28.419329,10.14573 c 0.35006,0 0.82411,0.30436 1.05403,0.67638 0.2299,0.37201 -0.0569,0.67639 -0.63694,0.67639 -0.57996,0 -1.05402,-0.30438 -1.05402,-0.67639 0,-0.37202 0.28688,-0.67638 0.63693,-0.67638 z m -7.11892,67.90866 c 0.31955,0.01 0.64952,0.2818 0.82152,0.73 0.57098,1.488 -0.0571,1.9508 -1.03995,0.7666 -0.55324,-0.6666 -0.58193,-1.109 -0.0916,-1.4119 0.0982,-0.061 0.20349,-0.087 0.31,-0.084 z"
       id="path4146"
       inkscape:connector-curvature="0"
       sodipodi:nodetypes="ssssssssssssssscssssscsssssssssssscssssscssssssssssssscsssssscccsssccsccccccssscsccccccsssccccccsscccssscscccscccscscccssccccsssccsccscccscssccccscccsscccccscccscccccssssssccssscssscssssssssssssssscssssssssscsssssssscssssccsssssccscscssssssscsssssssscsssssscsssssssssscscccsssccccsscccssssccccsscsccccccscssssssssscssssssscscs" />
  </g>
</svg>
