<?xml version="1.0" encoding="UTF-8" standalone="no"?>
<!-- Created with Inkscape (http://www.inkscape.org/) -->

<svg
   xmlns:dc="http://purl.org/dc/elements/1.1/"
   xmlns:cc="http://creativecommons.org/ns#"
   xmlns:rdf="http://www.w3.org/1999/02/22-rdf-syntax-ns#"
   xmlns:svg="http://www.w3.org/2000/svg"
   xmlns="http://www.w3.org/2000/svg"
   xmlns:sodipodi="http://sodipodi.sourceforge.net/DTD/sodipodi-0.dtd"
   xmlns:inkscape="http://www.inkscape.org/namespaces/inkscape"
   width="256"
   height="128"
   viewBox="0 0 256 128"
   id="svg2"
   version="1.1"
   inkscape:version="0.91 r13725"
   sodipodi:docname="House_Selmy.svg"
   inkscape:export-filename="C:\Users\Greene\Documents\Firaxis ModBuddy\XCOM\Game of Thrones\imageSource\UIHouse_Selmy.png"
   inkscape:export-xdpi="45"
   inkscape:export-ydpi="45">
  <defs
     id="defs4" />
  <sodipodi:namedview
     id="base"
     pagecolor="#ffffff"
     bordercolor="#666666"
     borderopacity="1.0"
     inkscape:pageopacity="0.0"
     inkscape:pageshadow="2"
     inkscape:zoom="2.8"
     inkscape:cx="28.350806"
     inkscape:cy="112.05216"
     inkscape:document-units="px"
     inkscape:current-layer="layer1"
     showgrid="false"
     units="px"
     showborder="true"
     inkscape:window-width="1920"
     inkscape:window-height="1138"
     inkscape:window-x="-8"
     inkscape:window-y="-8"
     inkscape:window-maximized="1"
     inkscape:snap-nodes="false" />
  <metadata
     id="metadata7">
    <rdf:RDF>
      <cc:Work
         rdf:about="">
        <dc:format>image/svg+xml</dc:format>
        <dc:type
           rdf:resource="http://purl.org/dc/dcmitype/StillImage" />
        <dc:title />
      </cc:Work>
    </rdf:RDF>
  </metadata>
  <g
     inkscape:label="Layer 1"
     inkscape:groupmode="layer"
     id="layer1"
     transform="translate(0,-924.36216)">
    <rect
       style="fill:#8b4b1f;fill-opacity:1;stroke:none;stroke-width:4;stroke-linecap:round;stroke-linejoin:round;stroke-miterlimit:4;stroke-dasharray:none;stroke-opacity:1"
       id="rect4182"
       width="256"
       height="128"
       x="0"
       y="924.36218"
       ry="0" />
    <path
       style="fill:#fecf03;fill-opacity:1"
       d="m 128.0485,1048.3622 c -0.12003,-0.011 -0.62246,-0.2334 -1.11654,-0.5018 -0.49407,-0.2685 -0.98422,-0.7119 -1.0892,-0.9856 -0.10503,-0.2736 -0.0397,-3.9267 0.14516,-8.118 0.18483,-4.1914 0.29092,-13.6504 0.23575,-21.0201 l -0.10025,-13.3994 1.19483,0 c 0.65716,0 1.36438,0.1183 1.57159,0.2562 0.25626,0.1706 0.44844,4.2362 0.60087,12.7112 0.12325,6.8533 0.23226,16.3762 0.24223,21.1621 l 0.0181,8.7017 -0.74216,0.6009 c -0.40819,0.3306 -0.84035,0.5948 -0.96037,0.5873 z m -7.21077,-2.0346 c -0.47087,0 -0.94443,-0.5278 -1.55519,-1.733 -0.48299,-0.9531 -3.09385,-5.0626 -5.80193,-9.1319 -2.70807,-4.0695 -5.3111,-7.8545 -5.78451,-8.4113 -0.47341,-0.5568 -0.86075,-1.1398 -0.86075,-1.2957 0,-0.1558 -0.76811,-1.4215 -1.7069,-2.8127 -0.9388,-1.3913 -1.70691,-2.73 -1.70691,-2.9749 0,-0.245 0.32536,-0.6487 0.72301,-0.897 0.39765,-0.2482 0.83788,-0.3237 0.97826,-0.1675 0.14039,0.1563 2.48143,3.6639 5.20231,7.7946 2.72088,4.1307 6.1596,9.3436 7.6416,11.5843 1.48201,2.2406 2.88432,4.3913 3.11625,4.7793 0.23194,0.3879 0.42397,1.2814 0.42673,1.9856 l 0.005,1.2802 -0.677,0 z m 13.77687,-1.3656 c -0.26961,0 -0.5779,-0.2286 -0.68509,-0.5078 -0.10719,-0.2794 -0.0639,-1.009 0.0961,-1.6216 0.16001,-0.6125 1.82716,-3.4662 3.70475,-6.3417 1.8776,-2.8753 5.31237,-8.0985 7.63284,-11.6069 2.32045,-3.5084 4.48308,-6.6555 4.80583,-6.9935 l 0.58681,-0.6143 0.74676,0.6143 0.74676,0.6145 -1.57974,2.3897 c -0.86886,1.3143 -1.70099,2.7055 -1.84917,3.0917 -0.14818,0.3861 -0.64705,1.1542 -1.10858,1.7069 -0.46153,0.5527 -2.99147,4.2309 -5.6221,8.1739 -2.63061,3.9429 -5.27838,8.0522 -5.88394,9.1319 -0.60555,1.0796 -1.32158,1.9629 -1.59118,1.9629 z m -35.87406,-23.6986 c -1.17137,0.1209 -2.02149,-0.014 -3.00007,-0.4745 -0.75104,-0.3539 -2.53545,-1.3966 -3.965355,-2.3171 -1.429897,-0.9206 -2.889301,-1.8653 -3.243119,-2.0996 l -0.643287,-0.4258 1.706905,0.2394 c 0.938797,0.1318 2.153294,0.2124 2.698889,0.1794 0.545595,-0.033 1.552387,-0.4484 2.237317,-0.923 0.7072,-0.4902 1.72419,-0.8631 2.35344,-0.8631 0.60945,0 1.54587,0.2264 2.08094,0.5031 0.53507,0.2767 1.67961,1.311 2.54342,2.2984 0.86379,0.9875 1.57054,1.885 1.57054,1.9945 0,0.1092 -0.60865,0.5411 -1.35254,0.9592 -0.74389,0.418 -2.08808,0.8361 -2.98708,0.9291 z m 58.4485,-1.2372 c -0.56328,0 -1.7066,-0.3096 -2.54071,-0.688 -0.83411,-0.3783 -1.71311,-0.851 -1.95331,-1.0504 l -0.43674,-0.3624 1.74353,-1.9808 c 0.95895,-1.0895 2.114,-2.1496 2.56679,-2.3559 0.4528,-0.2063 1.25531,-0.3751 1.78338,-0.3751 0.52808,0 1.86503,0.4558 2.97102,1.0128 l 2.01089,1.0129 1.82731,-0.3519 c 1.00503,-0.1936 1.88543,-0.2938 1.95647,-0.2228 0.071,0.071 -1.21951,0.9962 -2.86785,2.0559 -1.64835,1.0598 -3.68092,2.2371 -4.51682,2.6162 -0.8359,0.3793 -1.98069,0.6895 -2.54396,0.6895 z m -53.23506,-1.6919 c -0.2628,0 -1.2704,-0.8833 -2.23912,-1.9629 -0.9687,-1.0797 -1.99639,-2.4104 -2.28377,-2.9574 -0.32098,-0.6108 -0.45745,-1.4793 -0.35381,-2.2519 0.0927,-0.6916 0.59154,-1.8966 1.10839,-2.6776 l 0.93972,-1.42 -0.22043,-1.8755 c -0.12123,-1.0315 -0.15904,-1.8755 -0.084,-1.8755 0.075,0 1.05035,1.5746 2.16738,3.4992 1.11702,1.9245 2.20914,4.0214 2.42691,4.6595 0.21778,0.6383 0.39596,1.835 0.39596,2.6594 0,0.8302 -0.30769,2.102 -0.6897,2.8508 -0.37933,0.7436 -0.90472,1.3519 -1.16752,1.3519 z m 47.75358,-1.3655 c -0.21278,0 -0.61935,-0.2689 -0.90351,-0.5974 -0.28415,-0.3286 -0.69201,-1.1196 -0.90636,-1.7579 -0.21435,-0.6383 -0.38972,-1.5967 -0.38972,-2.13 0,-0.5332 0.27868,-1.7009 0.61929,-2.5947 0.34061,-0.8939 1.50791,-3.1336 2.59398,-4.977 1.08607,-1.8435 2.03896,-3.2875 2.11754,-3.2089 0.0785,0.078 -0.0354,0.9152 -0.2533,1.8591 l -0.39614,1.7162 1.07312,1.8755 c 0.70354,1.2297 1.07312,2.3383 1.07312,3.2187 0,0.8619 -0.27518,1.7098 -0.7681,2.3667 -0.42246,0.5629 -1.37672,1.745 -2.12058,2.6267 -0.74386,0.8817 -1.52657,1.603 -1.73934,1.603 z m -59.882285,-1.3842 c -0.663042,-0.011 -1.961029,-0.325 -2.88443,-0.6996 -0.923413,-0.3745 -2.728464,-1.3851 -4.011226,-2.2457 -1.282773,-0.8607 -2.332314,-1.6282 -2.332314,-1.7055 0,-0.077 0.547837,-0.038 1.217421,0.088 l 1.217421,0.2284 0.91621,-0.8434 c 0.503912,-0.4638 1.296041,-1.0973 1.760274,-1.4077 0.464244,-0.3106 1.39429,-0.5646 2.066799,-0.5646 0.780625,0 1.771483,0.3626 2.740436,1.0027 0.834734,0.5515 2.193194,1.6007 3.018794,2.332 l 1.5011,1.3293 -2.00249,1.2525 c -1.36163,0.8518 -2.388294,1.2467 -3.207995,1.234 z m 71.664205,-1.358 c -0.4777,0 -1.69618,-0.4882 -2.70772,-1.0983 -1.01154,-0.6103 -1.89111,-1.2722 -1.95458,-1.4711 -0.0635,-0.199 0.89201,-1.1791 2.12334,-2.1782 1.23131,-0.999 2.85108,-2.0274 3.59946,-2.2852 l 1.3607,-0.4687 1.10127,0.4711 c 0.6057,0.2592 1.5596,0.9583 2.11979,1.5539 l 1.01851,1.0827 1.28581,-0.2172 c 0.70719,-0.1195 1.28581,-0.1388 1.28581,-0.043 0,0.096 -1.11155,0.9135 -2.4701,1.8166 -1.35856,0.9032 -3.24042,1.9086 -4.18191,2.2342 -0.94151,0.3255 -2.10267,0.5969 -2.58038,0.6029 z m -66.57192,-2.4519 c -0.29139,0.053 -1.53873,-0.9477 -2.77184,-2.2249 -1.371088,-1.4203 -2.333167,-2.7373 -2.476627,-3.3905 -0.151755,-0.691 -0.04119,-1.531 0.313126,-2.379 0.301246,-0.721 0.863409,-1.647 1.249251,-2.0577 l 0.70152,-0.7467 -0.40389,-1.22384 c -0.22214,-0.67311 -0.35253,-1.37794 -0.28973,-1.56632 0.0628,-0.18836 1.14422,1.00821 2.4032,2.65906 1.25899,1.6508 2.52576,3.568 2.81504,4.2604 0.28929,0.6923 0.52598,1.7688 0.52598,2.3923 0,0.6234 -0.34565,1.8189 -0.76811,2.6567 -0.42246,0.8377 -1.00653,1.567 -1.29792,1.6205 z m 61.53276,-1.2988 c -0.24508,0 -0.83656,-0.8473 -1.31439,-1.8911 l -0.86879,-1.8976 0.22675,-1.2602 c 0.12473,-0.693 0.53475,-1.8611 0.91118,-2.5958 0.37642,-0.7347 1.61252,-2.4716 2.74686,-3.85978 1.13434,-1.38821 2.11085,-2.4756 2.17002,-2.41642 0.0592,0.0592 -0.0645,0.75236 -0.27486,1.54041 l -0.38244,1.43285 0.53742,0.61244 c 0.29558,0.3368 0.78638,1.1041 1.09065,1.705 0.30429,0.6009 0.55223,1.5994 0.55099,2.219 -10e-4,0.6195 -0.27007,1.5213 -0.59742,2.0039 -0.32733,0.4827 -1.44008,1.6703 -2.47275,2.6391 -1.03268,0.9689 -2.07813,1.7645 -2.32322,1.7682 z m -74.390141,-0.6905 c -0.857299,-0.011 -2.09642,-0.4705 -3.68185,-1.3694 -1.314317,-0.7452 -3.080963,-1.5728 -3.925881,-1.8393 l -1.536214,-0.4846 1.928666,-0.024 1.928654,-0.024 1.817341,-1.3655 c 1.060455,-0.7968 2.196206,-1.3655 2.727019,-1.3655 0.500328,0 1.73343,0.5619 2.740242,1.2487 1.006801,0.6868 2.174949,1.5144 2.595884,1.8392 l 0.76533,0.5905 -1.106711,0.8192 c -0.608694,0.4505 -1.523765,1.0823 -2.033504,1.4039 -0.509727,0.3215 -1.508266,0.5782 -2.218976,0.5703 z m 87.254141,-1.355 c -0.74999,0 -1.83712,-0.4499 -3.1112,-1.2802 -1.07711,-0.702 -1.96043,-1.3876 -1.96294,-1.5235 -0.002,-0.136 1.09489,-1.0192 2.43866,-1.9629 1.34376,-0.9437 2.81326,-1.7158 3.26556,-1.7158 0.45229,0 1.1579,0.1761 1.56801,0.3914 0.41012,0.2153 1.25029,0.8298 1.86704,1.3655 l 1.12137,0.9742 1.95106,0.023 1.95106,0.023 -1.40373,0.4392 c -0.77205,0.2417 -2.55761,1.0763 -3.9679,1.8548 -1.59579,0.8809 -2.99956,1.414 -3.71699,1.4115 z m -81.375232,-2.3858 c -0.234927,0 -1.406853,-0.7818 -2.604281,-1.7372 -1.197428,-0.9555 -2.277762,-1.9924 -2.40075,-2.3044 -0.122977,-0.3119 -0.13959,-0.9511 -0.03687,-1.4205 0.102642,-0.4694 0.488619,-1.45574 0.857629,-2.19183 l 0.670938,-1.33833 -0.401657,-1.34061 c -0.220908,-0.73732 -0.344294,-1.39795 -0.274186,-1.46806 0.0701,-0.0701 1.266227,1.01894 2.658049,2.42011 l 2.530577,2.54757 0.135528,2.39865 c 0.08136,1.4395 -0.033,2.8056 -0.286134,3.4166 -0.231911,0.5598 -0.613883,1.018 -0.84881,1.018 z m -12.121116,-1.0604 c -0.09388,-0.018 -0.708365,-0.1627 -1.365524,-0.322 -0.657158,-0.1593 -2.116561,-0.6751 -3.243118,-1.1461 -1.243492,-0.52 -1.750954,-0.8622 -1.291558,-0.8709 0.4162,-0.01 1.304189,-0.5619 1.973318,-1.231 0.669118,-0.6692 1.767193,-1.44669 2.440157,-1.72787 l 1.223577,-0.51124 1.784307,0.87301 c 0.981368,0.4801 2.065321,1.1835 2.408784,1.563 l 0.624477,0.69 -0.977624,1.0205 c -0.537698,0.5612 -1.524038,1.1722 -2.19187,1.3577 -0.667833,0.1855 -1.291046,0.3227 -1.384926,0.3049 z m 87.725778,-0.3051 c -0.13676,0 -0.43514,-0.2248 -0.66306,-0.4994 -0.22792,-0.2746 -0.49646,-1.4044 -0.59677,-2.5106 -0.10127,-1.1168 -0.0102,-2.5317 0.20389,-3.18161 0.22194,-0.6725 1.41215,-2.18221 2.79787,-3.54893 l 2.41162,-2.37855 -0.25009,1.36553 c -0.13756,0.75103 -0.24037,1.51914 -0.22848,1.7069 0.0118,0.18776 0.36592,1.12735 0.78671,2.08798 0.50389,1.15034 0.68873,2.05079 0.54143,2.63768 -0.13958,0.5561 -1.0751,1.5356 -2.48904,2.606 -1.24597,0.9432 -2.3773,1.715 -2.51408,1.715 z m -39.18526,-1.0547 c -0.31707,-0.017 -1.26779,-0.2217 -2.11271,-0.4553 -0.84492,-0.2335 -2.11994,-0.7018 -2.83337,-1.0405 -0.71345,-0.3388 -1.96331,-1.2633 -2.77748,-2.0546 -1.0638,-1.03389 -1.63039,-1.9572 -2.01372,-3.2815 -0.29338,-1.01356 -0.75497,-3.60947 -1.02574,-5.7687 -0.27078,-2.15924 -0.61648,-4.23312 -0.76822,-4.60864 -0.16729,-0.41402 0.48881,-0.002 1.66679,1.04626 1.2401,1.10372 2.59187,1.93828 3.73772,2.30762 0.98728,0.31821 2.56315,0.99955 3.50195,1.51409 l 1.7069,0.9355 0.7926,1.59721 c 0.51514,1.03813 0.85978,2.48566 0.98454,4.13532 0.1056,1.39596 0.0851,3.25034 -0.0454,4.12094 -0.17751,1.1837 -0.38273,1.5751 -0.81386,1.5523 z m 3.43444,-0.1527 -1.10976,0.2376 -0.25164,-0.6246 c -0.1384,-0.3436 -0.25349,-2.084 -0.25575,-3.86776 l -0.005,-3.24312 0.94129,-1.9167 0.94127,-1.9167 1.96046,-1.03911 c 1.07824,-0.57149 2.61002,-1.21181 3.40392,-1.42292 0.95391,-0.25365 2.14068,-1.02932 3.49916,-2.28703 1.13063,-1.04676 2.05568,-1.79974 2.05568,-1.67329 0,0.12645 -0.16186,0.53235 -0.3597,0.90201 -0.19783,0.36965 -0.58552,2.5012 -0.8615,4.73678 -0.27599,2.23557 -0.72538,4.69836 -0.99863,5.47286 -0.27326,0.7745 -0.81753,1.85855 -1.20947,2.40898 -0.39195,0.55043 -1.35531,1.4429 -2.14082,1.9833 -0.7855,0.5404 -2.11948,1.2142 -2.9644,1.4974 -0.84492,0.2831 -2.03561,0.6217 -2.64599,0.7523 z m 47.6239,-0.1523 -1.62057,-0.01 -1.40218,-1.2668 -1.40219,-1.2668 0.97447,-0.80023 c 0.53597,-0.44012 1.57674,-1.1155 2.31282,-1.50086 l 1.33835,-0.70065 1.2317,0.36904 c 0.67744,0.20296 1.75675,0.91073 2.39848,1.57282 0.67022,0.69148 1.50146,1.20378 1.95324,1.20378 0.43257,0 0.78649,0.1181 0.78649,0.2625 0,0.1444 -1.11376,0.6847 -2.47501,1.2007 -1.45499,0.5516 -3.1429,0.9358 -4.0956,0.9324 z m -105.573024,-2.0663 c -0.375519,-0.01 -1.066815,-0.2963 -1.536214,-0.6469 -0.469399,-0.3505 -1.621559,-0.87262 -2.560357,-1.1602 -0.938797,-0.28759 -1.443415,-0.53358 -1.121368,-0.54667 0.322047,-0.0131 1.119775,-0.49284 1.772746,-1.06615 0.652959,-0.57331 1.646468,-1.17409 2.20779,-1.33508 0.597962,-0.1715 1.560554,-0.15564 2.324553,0.0382 0.717173,0.18203 1.67766,0.61286 2.134405,0.95739 l 0.830432,0.6264 -0.593673,0.90606 c -0.32652,0.49833 -1.084601,1.20535 -1.684613,1.57125 -0.600011,0.3659 -1.398182,0.6609 -1.773701,0.6556 z m 11.171463,0.01 c -0.323766,-10e-4 -1.356762,-0.5824 -2.295559,-1.29213 -1.243071,-0.93979 -1.790452,-1.62529 -2.014364,-2.52267 l -0.307447,-1.2322 1.112719,-1.80842 1.112731,-1.80841 -0.364833,-1.18874 -0.364834,-1.18875 0.458122,0.48617 c 0.251973,0.26739 1.321155,1.86039 2.375954,3.54001 1.16824,1.86022 1.917832,3.43465 1.917832,4.02817 0,0.53589 -0.23438,1.42757 -0.520833,1.98157 -0.286464,0.5539 -0.785734,1.0064 -1.109488,1.0054 z m 89.342231,-1.36377 c -0.40166,0 -0.80191,-0.52004 -1.19748,-1.55584 l -0.59418,-1.55583 0.57952,-1.21528 c 0.31875,-0.6684 1.35632,-2.42622 2.30572,-3.90625 0.94941,-1.48005 1.76934,-2.69099 1.82209,-2.69099 0.0527,0 0.0259,0.65289 -0.0594,1.45087 l -0.15532,1.45086 0.88002,1.17581 c 0.50124,0.66973 0.88001,1.62884 0.88001,2.22837 0,0.5789 -0.24675,1.40482 -0.54832,1.83538 -0.30158,0.43057 -1.16954,1.23286 -1.92882,1.78287 -0.75927,0.55002 -1.65197,1.00003 -1.98379,1.00003 z m 11.06517,-0.002 c -0.34654,-10e-4 -1.04125,-0.27343 -1.54382,-0.60487 -0.50256,-0.33145 -1.25788,-1.04014 -1.67851,-1.57488 l -0.76477,-0.97225 0.82507,-0.62263 c 0.45379,-0.34244 1.48512,-0.78892 2.29186,-0.99215 l 1.4668,-0.36953 1.52431,0.67427 c 0.83838,0.37085 1.61043,0.89868 1.71568,1.17295 0.10526,0.27426 0.60271,0.60674 1.10546,0.73882 l 0.91409,0.24013 -1.70141,0.50705 c -0.93578,0.27888 -2.11165,0.79916 -2.61305,1.1562 -0.50141,0.35702 -1.19518,0.64813 -1.54171,0.64689 z M 76.671023,997.51001 c -0.276427,0 -0.971752,-0.59237 -1.545181,-1.31638 -0.573429,-0.72402 -1.200819,-1.73255 -1.394211,-2.2412 -0.193381,-0.50865 -0.351611,-1.34495 -0.351611,-1.85846 0,-0.5135 0.181296,-1.11494 0.402875,-1.33652 0.221579,-0.22158 0.492283,-1.05881 0.60157,-1.86052 l 0.198684,-1.45765 1.73739,2.90173 c 0.955559,1.59596 1.837778,3.18512 1.960471,3.53146 0.124103,0.35032 -0.07203,1.29701 -0.442157,2.13364 -0.365892,0.82715 -0.891414,1.5039 -1.16783,1.5039 z m -7.794784,-1.37302 c -0.43319,-0.005 -1.437737,-0.30261 -2.232313,-0.6633 -0.794587,-0.36071 -2.215585,-1.37689 -3.157773,-2.2582 -0.9422,-0.88131 -1.713084,-1.79081 -1.713084,-2.02109 0,-0.23713 0.912807,-0.61243 2.10475,-0.86537 l 2.10475,-0.44666 1.906476,0.39877 c 1.048563,0.21931 2.290529,0.68174 2.759928,1.02764 0.469399,0.34588 1.190577,1.29664 1.602624,2.11276 0.412047,0.81614 0.683501,1.59016 0.60322,1.72005 -0.08022,0.12989 -0.83108,0.40868 -1.668454,0.61953 -0.837373,0.21086 -1.876923,0.38 -2.310124,0.37587 z m 109.984921,0.008 c -0.15745,0 -0.60465,-0.40478 -0.99381,-0.8995 -0.38914,-0.49471 -0.70753,-1.38836 -0.70753,-1.98589 0,-0.70113 0.63558,-2.1528 1.79225,-4.09352 l 1.79225,-3.00713 0.19939,1.21993 c 0.1097,0.67097 0.35631,1.42002 0.54811,1.66456 0.1918,0.24455 0.44135,0.82091 0.55457,1.28083 0.1203,0.48873 -0.0495,1.4108 -0.40878,2.21898 -0.33803,0.76051 -1.03663,1.88203 -1.55241,2.49225 -0.51578,0.61022 -1.06661,1.10949 -1.22404,1.10949 z m 7.51594,-1.39616 c -0.46939,-0.0121 -1.46672,-0.20664 -2.21626,-0.43251 -0.74954,-0.22586 -1.40202,-0.63651 -1.44994,-0.91255 -0.0479,-0.27604 0.25945,-1.11639 0.68306,-1.86743 0.47783,-0.84718 1.28738,-1.6247 2.1327,-2.04828 0.97355,-0.48785 1.99599,-0.67398 3.58149,-0.65197 1.22044,0.0169 2.871,0.0938 3.66791,0.17069 0.79692,0.0769 1.44981,0.26642 1.45087,0.42107 10e-4,0.15466 -0.85754,1.07639 -1.908,2.04829 -1.05047,0.97191 -2.62509,2.11078 -3.49915,2.53082 -0.87408,0.42005 -1.97328,0.75389 -2.44268,0.74187 z m -60.42442,-4.14067 c -0.81179,0.0652 -1.9609,-0.27687 -3.5845,-1.06704 -1.31431,-0.63966 -2.80398,-1.60456 -3.31035,-2.14425 -0.50638,-0.53968 -1.14136,-1.51891 -1.41107,-2.17607 -0.26971,-0.65716 -0.66569,-2.57743 -0.87996,-4.26726 -0.21427,-1.68984 -0.44954,-3.5333 -0.52283,-4.09658 -0.0733,-0.56327 -0.24773,-1.33138 -0.38764,-1.7069 l -0.25441,-0.68276 0.93356,0.85345 c 0.51346,0.4694 2.72407,1.77518 4.91244,2.90174 l 3.97888,2.04828 0.86036,1.69732 0.86036,1.69732 0,3.42339 0,3.4234 -1.19484,0.0959 z m 3.37042,0.0748 -0.94981,0 -0.23175,-1.23531 c -0.12746,-0.67942 -0.13982,-2.21967 -0.0274,-3.42278 0.11232,-1.20311 0.49606,-2.83633 0.85267,-3.62937 0.35663,-0.79305 1.01761,-1.78078 1.46887,-2.19496 0.45126,-0.41419 2.16854,-1.3848 3.8162,-2.15692 1.64765,-0.77211 3.55289,-1.89264 4.23388,-2.49005 l 1.23814,-1.08621 -0.26426,1.02414 c -0.14535,0.56328 -0.45609,2.66627 -0.69053,4.6733 -0.30814,2.6379 -0.68253,4.17293 -1.35098,5.53921 -0.50859,1.03952 -1.33782,2.1842 -1.84272,2.54373 -0.50491,0.35952 -1.90451,1.05452 -3.11021,1.54445 -1.20571,0.48992 -2.61961,0.89077 -3.14201,0.89077 z m -3.06536,-12.30807 c -0.63718,-0.0102 -2.06052,-0.30651 -3.16296,-0.65866 -1.10245,-0.35217 -2.44043,-1.05801 -2.9733,-1.56853 -0.53288,-0.51053 -1.28956,-1.61047 -1.68151,-2.44434 -0.39196,-0.83385 -0.86696,-2.84653 -1.05554,-4.47262 -0.18859,-1.62609 -0.56539,-3.63678 -0.83734,-4.4682 -0.27195,-0.83143 -0.49445,-1.66023 -0.49445,-1.84177 0,-0.18155 0.8103,0.43626 1.80065,1.37291 1.33487,1.26245 2.3898,1.89903 4.07811,2.46086 1.25259,0.41684 2.68842,1.08117 3.19074,1.47628 0.5023,0.39512 1.14342,1.26868 1.4247,1.94125 0.28129,0.67258 0.59197,2.79748 0.69042,4.72202 l 0.179,3.49915 -1.15852,-0.0183 z m 3.85617,-0.0964 -1.77156,0.20982 0,-3.47232 c 0,-2.35251 0.16935,-3.87763 0.52509,-4.72905 0.28879,-0.6912 0.76416,-1.52088 1.05633,-1.84373 0.29219,-0.32286 1.70733,-1.00523 3.14476,-1.51638 1.91831,-0.68215 3.04275,-1.34112 4.2272,-2.47732 0.88753,-0.85138 1.7045,-1.45717 1.81548,-1.34619 0.11095,0.11095 -0.0392,1.01293 -0.33352,2.00432 -0.29442,0.9914 -0.53529,2.28776 -0.53529,2.8808 0,0.59305 -0.3033,2.26416 -0.674,3.71357 -0.3707,1.44941 -0.98889,3.07752 -1.37376,3.61803 -0.38488,0.5405 -1.51188,1.38006 -2.50447,1.86568 -0.99257,0.48563 -2.6019,0.97738 -3.57626,1.09277 z M 126.5501,966.1669 c -0.42246,0.0786 -1.22897,0.0454 -1.79225,-0.0737 -0.56328,-0.11923 -1.52098,-0.4756 -2.12822,-0.79193 -0.60724,-0.31634 -1.63788,-1.10895 -2.29032,-1.76139 -0.71763,-0.71763 -1.40424,-1.89529 -1.73806,-2.98111 -0.30351,-0.98718 -0.64098,-3.10066 -0.74994,-4.69661 l -0.19809,-2.90174 0.61244,0.51207 c 0.33684,0.28164 2.16511,1.28018 4.0628,2.21897 2.53054,1.25187 3.65555,2.01614 4.22006,2.86688 l 0.76969,1.15997 0,3.15284 0,3.15283 -0.76811,0.14301 z m 3.83148,-0.0618 c -0.71948,0.13156 -1.50519,0.11742 -1.74605,-0.0314 -0.31368,-0.19387 -0.42295,-1.20512 -0.38514,-3.56428 0.0388,-2.4171 0.20281,-3.52256 0.61647,-4.15389 0.3369,-0.51418 1.75248,-1.4074 3.51872,-2.2203 1.6253,-0.74802 3.44409,-1.72998 4.04178,-2.18213 0.59769,-0.45216 1.14061,-0.8221 1.2065,-0.8221 0.0659,0 0.002,1.45668 -0.14081,3.23707 -0.14331,1.78038 -0.49008,3.78637 -0.77061,4.45775 -0.28052,0.67138 -0.83143,1.67205 -1.22426,2.22372 -0.39281,0.55166 -1.41042,1.41103 -2.26135,1.90971 -0.85093,0.49866 -2.13579,1.01432 -2.85525,1.14589 z m -4.59959,-10.66217 c -0.88402,0.0602 -1.72666,-0.13444 -2.38966,-0.552 -0.56328,-0.35474 -1.36247,-1.01317 -1.77596,-1.46317 -0.4135,-0.45001 -0.98958,-1.38723 -1.28018,-2.08274 -0.2906,-0.69551 -0.52836,-1.84659 -0.52836,-2.55794 0,-0.71137 -0.151,-1.81989 -0.33555,-2.46337 -0.18455,-0.64348 -0.27823,-1.22728 -0.20818,-1.29733 0.07,-0.0701 0.79711,0.34407 1.61572,0.92025 0.8186,0.57618 2.24128,1.31647 3.16149,1.64508 0.95342,0.34046 1.98137,1.00995 2.38967,1.55637 l 0.71654,0.95889 0,2.62149 0,2.62148 -1.36553,0.093 z m 3.84586,0.0777 -1.2855,0 0,-2.75349 c 0,-1.51442 0.16171,-3.05567 0.35937,-3.42499 0.19765,-0.36931 1.63578,-1.26119 3.19584,-1.98194 1.56006,-0.72075 2.94311,-1.483 3.07345,-1.6939 0.13034,-0.21089 0.5473,-0.54952 0.92658,-0.75249 l 0.68959,-0.36907 -0.33286,0.62326 c -0.18307,0.34279 -0.48852,1.91295 -0.67878,3.48925 l -0.34593,2.86599 -0.96862,1.36595 c -0.53274,0.75127 -1.50389,1.65068 -2.15813,1.99869 -0.65423,0.348 -1.76798,0.63274 -2.47501,0.63274 z m -1.96588,-6.82762 c -0.12362,0 -0.54989,-0.34611 -0.94729,-0.76911 -0.3974,-0.42302 -1.14799,-1.69039 -1.66797,-2.81639 -0.64139,-1.38891 -0.98909,-2.7815 -1.08119,-4.33036 l -0.13577,-2.28307 1.57354,-3.52553 c 1.16137,-2.60207 1.57354,-3.95421 1.57354,-5.16211 0,-1.00413 0.13193,-1.55505 0.34138,-1.4256 0.18776,0.11605 0.34138,0.64347 0.34138,1.17207 0,0.52858 0.2272,1.60502 0.50489,2.39206 0.27768,0.78706 0.81823,1.87107 1.20121,2.40891 0.38299,0.53786 1.07752,1.99062 1.5434,3.22836 0.46589,1.23775 0.84557,2.82303 0.84373,3.52284 -0.001,0.69981 -0.37905,2.07939 -0.83827,3.06576 -0.4592,0.98635 -1.32833,2.40735 -1.93138,3.15777 -0.60306,0.75041 -1.1976,1.3644 -1.3212,1.3644 z"
       id="path4146"
       inkscape:connector-curvature="0"
       sodipodi:nodetypes="ccccscccsscccccsscsssccsscccccsccssscccsssssssssccccsscssssscscsssscscsssssccscsssssssssscscssccsssssccssccssscscscccscsscssccssscccsssscscssssccscccscscscccsccsscccsssccscccscsscscccssccssccscssscccsscsscssccscsccscscscscsssscccscsccccccccccccccccsssscsccscccccccsscssssscccscssscscsccccssccccccssccssccsscccsssssccscsscscscsccsscssccsscscsssscscscccscssccsccsscscsscscssccscsscccsscccccccccsccssscsssccsccsscsssssssscccscsscssccsscssccsssscsssccccccccsssscssscccsscsscscscccccscscssccssccsssssscsssscsscscs" />
  </g>
</svg>
