<?xml version="1.0" encoding="UTF-8" standalone="no"?>
<!-- Created with Inkscape (http://www.inkscape.org/) -->

<svg
   xmlns:dc="http://purl.org/dc/elements/1.1/"
   xmlns:cc="http://creativecommons.org/ns#"
   xmlns:rdf="http://www.w3.org/1999/02/22-rdf-syntax-ns#"
   xmlns:svg="http://www.w3.org/2000/svg"
   xmlns="http://www.w3.org/2000/svg"
   xmlns:sodipodi="http://sodipodi.sourceforge.net/DTD/sodipodi-0.dtd"
   xmlns:inkscape="http://www.inkscape.org/namespaces/inkscape"
   width="256"
   height="128"
   viewBox="0 0 256 128"
   id="svg2"
   version="1.1"
   inkscape:version="0.91 r13725"
   sodipodi:docname="House_Tarth.svg"
   inkscape:export-filename="C:\Users\Greene\Documents\Firaxis ModBuddy\XCOM\Game of Thrones\imageSource\UIHouse_Tarth.png"
   inkscape:export-xdpi="45"
   inkscape:export-ydpi="45">
  <defs
     id="defs4" />
  <sodipodi:namedview
     id="base"
     pagecolor="#ffffff"
     bordercolor="#666666"
     borderopacity="1.0"
     inkscape:pageopacity="0.0"
     inkscape:pageshadow="2"
     inkscape:zoom="2.8"
     inkscape:cx="70.358871"
     inkscape:cy="101.95063"
     inkscape:document-units="px"
     inkscape:current-layer="layer1"
     showgrid="false"
     units="px"
     showborder="true"
     inkscape:window-width="1920"
     inkscape:window-height="1138"
     inkscape:window-x="-8"
     inkscape:window-y="-8"
     inkscape:window-maximized="1"
     inkscape:snap-nodes="false" />
  <metadata
     id="metadata7">
    <rdf:RDF>
      <cc:Work
         rdf:about="">
        <dc:format>image/svg+xml</dc:format>
        <dc:type
           rdf:resource="http://purl.org/dc/dcmitype/StillImage" />
        <dc:title />
      </cc:Work>
    </rdf:RDF>
  </metadata>
  <g
     inkscape:label="Layer 1"
     inkscape:groupmode="layer"
     id="layer1"
     transform="translate(0,-924.36216)">
    <rect
       style="fill:#c32325;fill-opacity:1;stroke:none;stroke-width:4;stroke-linecap:round;stroke-linejoin:round;stroke-miterlimit:4;stroke-dasharray:none;stroke-opacity:1"
       id="rect4182"
       width="128"
       height="64"
       x="4.4527587e-007"
       y="988.36218"
       ry="0" />
    <rect
       style="fill:#34449c;fill-opacity:1;stroke:none;stroke-width:4;stroke-linecap:round;stroke-linejoin:round;stroke-miterlimit:4;stroke-dasharray:none;stroke-opacity:1"
       id="rect4182-3"
       width="128"
       height="64"
       x="4.4527587e-007"
       y="924.36218"
       ry="0" />
    <rect
       style="fill:#c32325;fill-opacity:1;stroke:none;stroke-width:4;stroke-linecap:round;stroke-linejoin:round;stroke-miterlimit:4;stroke-dasharray:none;stroke-opacity:1"
       id="rect4182-4"
       width="128"
       height="64"
       x="128"
       y="924.36218"
       ry="0" />
    <rect
       style="fill:#34449c;fill-opacity:1;stroke:none;stroke-width:4;stroke-linecap:round;stroke-linejoin:round;stroke-miterlimit:4;stroke-dasharray:none;stroke-opacity:1"
       id="rect4182-0"
       width="128"
       height="64"
       x="128"
       y="988.36218"
       ry="0" />
    <path
       style="fill:#ffffff;fill-opacity:1;stroke:none;stroke-width:0.25;stroke-linecap:round;stroke-linejoin:round;stroke-miterlimit:4;stroke-dasharray:none;stroke-opacity:0.6168831"
       d="m 192.0114,1004.4683 c -0.0578,0.058 0.46707,0.9593 1.16503,2.0006 0.69795,1.0415 1.52642,2.6036 1.84066,3.4736 0.31423,0.8702 0.66136,2.8206 0.77112,4.3332 0.1386,1.9101 0.0185,3.4532 -0.39153,5.0516 -0.32468,1.2659 -1.14588,3.1626 -1.82394,4.2161 -0.67807,1.0535 -2.05562,2.6828 -3.06299,3.6192 -1.00736,0.9364 -2.31404,1.9516 -2.90303,2.2561 -0.58901,0.3046 -1.993,0.823 -3.12028,1.1507 -1.12728,0.3277 -2.98159,0.6194 -4.1206,0.6494 -1.139,0.029 -2.07222,0.178 -2.07222,0.3271 0,0.149 0.6188,0.7561 1.37512,1.3488 0.75631,0.5928 1.78278,1.2907 2.27992,1.5518 0.49714,0.2612 1.73475,0.773 2.75024,1.1388 1.1548,0.416 2.89727,0.6697 4.65059,0.6779 1.8062,0.012 3.65206,-0.2482 5.19012,-0.7232 1.3588,-0.4198 3.31109,-1.4166 4.53122,-2.3159 1.17895,-0.8689 2.60568,-2.191 3.1728,-2.9364 0.56714,-0.7452 1.4397,-2.2455 1.93855,-3.3351 0.49884,-1.0897 1.08803,-3.004 1.30827,-4.2543 0.2943,-1.6708 0.28837,-2.9512 -0.0215,-4.8272 -0.23185,-1.404 -0.84917,-3.4043 -1.37273,-4.4477 -0.52356,-1.0433 -1.5274,-2.6058 -2.22979,-3.4712 -0.7024,-0.8655 -2.12713,-2.148 -3.16565,-2.8506 -1.0385,-0.7026 -2.94395,-1.6065 -4.23517,-2.0078 -1.29124,-0.4012 -2.39636,-0.6833 -2.45421,-0.6255 z"
       id="rect4178"
       inkscape:connector-curvature="0" />
    <path
       inkscape:connector-curvature="0"
       id="path4184"
       d="m 63.988592,940.4683 c 0.05782,0.0575 -0.467064,0.95929 -1.165026,2.0006 -0.69795,1.04142 -1.526421,2.60356 -1.840657,3.47361 -0.314237,0.87018 -0.661366,2.82043 -0.771119,4.33306 -0.1386,1.91014 -0.01846,3.45323 0.391524,5.05167 0.324688,1.26584 1.145885,3.16254 1.823948,4.21607 0.678063,1.05353 2.055616,2.68282 3.062987,3.61924 1.007358,0.93643 2.31404,1.95159 2.903032,2.25607 0.589004,0.30459 1.992996,0.823 3.120277,1.1507 1.127281,0.32771 2.981592,0.61942 4.120595,0.64936 1.139003,0.0293 2.072227,0.17795 2.072227,0.32708 0,0.149 -0.618804,0.75614 -1.37512,1.34886 -0.756317,0.59283 -1.78278,1.29069 -2.279926,1.55178 -0.497134,0.26122 -1.734742,0.77293 -2.750241,1.13878 -1.154796,0.41595 -2.897263,0.66981 -4.650585,0.678 -1.806199,0.0122 -3.652064,-0.24837 -5.190121,-0.72337 -1.358802,-0.41974 -3.311095,-1.41647 -4.531224,-2.31574 -1.178949,-0.86895 -2.605676,-2.19108 -3.172801,-2.93646 -0.567136,-0.74525 -1.439696,-2.24555 -1.938541,-3.33514 -0.498845,-1.0897 -1.088032,-3.00396 -1.308271,-4.25428 -0.2943,-1.6708 -0.288372,-2.95121 0.02151,-4.82725 0.231851,-1.40396 0.849176,-3.40427 1.372737,-4.44765 0.52356,-1.04326 1.527398,-2.60582 2.229786,-3.47123 0.702399,-0.86553 2.127134,-2.14792 3.165649,-2.85051 1.038504,-0.7026 2.943957,-1.60648 4.235176,-2.00777 1.291233,-0.40117 2.396353,-0.6833 2.454206,-0.62548 z"
       style="fill:#ffffff;fill-opacity:1;stroke:none;stroke-width:0.25;stroke-linecap:round;stroke-linejoin:round;stroke-miterlimit:4;stroke-dasharray:none;stroke-opacity:0.6168831" />
    <path
       sodipodi:nodetypes="csssccsscsccssccsccsccccscccsscscssccccssscsssscscssscsscssssssccccsccscccsssccssssccsssssssssccscssccsccscsccsccsccsssssssccsscscscsccssscscscssssscccscsscsssccccsscccsscccsssssccccscccsssssscccscscscsccccccccscsscscssccssssscsccssccsssccsscsscssscscssscsccsscccscssssscssssssssccsscccsssscssccscssscssscsscscccccsscssccc"
       style="fill:#fecf03;fill-opacity:1"
       d="m 120.43705,1021.1584 c 0.37671,-0.6178 1.62469,-1.9261 2.77327,-2.9074 1.14859,-0.9812 2.3249,-2.2416 2.614,-2.8006 0.28911,-0.5591 0.52566,-1.7566 0.52566,-2.661 0,-0.9045 -0.17176,-2.0961 -0.38167,-2.6484 -0.20992,-0.552 -0.2794,-1.2641 -0.1544,-1.5823 0.16234,-0.4131 0.35995,-0.1968 0.69167,0.7575 0.25541,0.7347 1.06746,2.0718 1.80453,2.9713 0.85788,1.047 1.34009,2.0177 1.33997,2.6978 -1e-4,0.5843 -0.33013,1.9305 -0.7334,2.9915 -0.40327,1.0609 -0.7282,2.4636 -0.72206,3.1169 l 0.011,1.1879 0.39392,-0.7334 c 0.21666,-0.4034 1.16046,-1.8686 2.09737,-3.256 l 1.70345,-2.5224 -0.0181,-1.8989 c -0.0122,-1.2921 -0.27595,-2.3161 -0.82507,-3.2047 -0.44387,-0.7181 -0.80641,-1.6162 -0.80565,-1.9959 0.001,-0.5173 0.17606,-0.4036 0.69923,0.4543 0.38381,0.6295 1.46052,1.6922 2.39267,2.3617 0.93216,0.6694 1.79474,1.6152 1.91684,2.1017 0.12211,0.4865 0.12484,1.9815 0.006,3.3223 -0.11881,1.3406 -0.0753,3.0152 0.0967,3.7211 0.22782,0.9353 0.32276,1.0518 0.35012,0.4292 0.0207,-0.4698 0.43512,-1.8724 0.92106,-3.117 0.48595,-1.2444 0.99728,-2.6502 1.13631,-3.124 0.13902,-0.4737 0.14597,-1.5734 0.0155,-2.4437 -0.16654,-1.1105 -0.66951,-2.0735 -1.68637,-3.2286 -0.79699,-0.9055 -1.44907,-1.8273 -1.44907,-2.0484 0,-0.2211 0.14737,-0.402 0.32746,-0.402 0.18011,0 0.42023,0.2416 0.5336,0.537 0.11343,0.2955 1.3622,1.1193 2.77519,1.831 1.413,0.7115 2.75545,1.642 2.98326,2.0677 0.22782,0.4256 0.54641,1.7056 0.70798,2.8444 0.16156,1.1389 0.55503,2.6482 0.87434,3.3541 l 0.5806,1.2835 -0.0643,-1.2835 c -0.0355,-0.7059 0.0687,-2.5418 0.23134,-4.0799 l 0.29568,-2.7963 -0.6527,-1.3755 c -0.36607,-0.7714 -1.42981,-1.9337 -2.42235,-2.6468 -0.97332,-0.6993 -1.76966,-1.4248 -1.76966,-1.6121 0,-0.1874 0.37343,-0.097 0.82985,0.203 0.4564,0.299 1.73527,0.7353 2.84191,0.9698 1.10664,0.2343 2.44052,0.6446 2.96416,0.9117 0.65707,0.3353 1.19299,1.1464 1.72942,2.6176 0.42752,1.1725 1.21754,2.7077 1.75558,3.4117 0.53806,0.7039 0.85707,0.9498 0.70892,0.5465 -0.14814,-0.4034 -0.43226,-1.8885 -0.63134,-3.3003 -0.19911,-1.4118 -0.42997,-2.9255 -0.51305,-3.3637 -0.0831,-0.4384 -0.59008,-1.3186 -1.12664,-1.9563 -0.53658,-0.6376 -1.88952,-1.5993 -3.0065,-2.1367 -1.11699,-0.5376 -2.09975,-1.1997 -2.18389,-1.4714 l -0.15298,-0.494 0.75172,0.4023 c 0.41344,0.2213 2.09538,0.4023 3.73762,0.4023 l 2.98591,0 0.98021,1.0356 c 0.53912,0.5696 1.69068,1.8897 2.55903,2.9336 0.86834,1.0439 1.74591,1.898 1.95014,1.898 0.20421,0 0.0534,-0.4538 -0.33515,-1.0084 -0.38857,-0.5547 -1.05953,-1.9625 -1.49103,-3.1288 -0.43149,-1.1661 -1.0569,-2.5359 -1.38978,-3.0439 -0.33289,-0.50811 -1.03671,-1.14691 -1.56405,-1.41961 -0.52735,-0.2727 -1.7817,-0.6148 -2.78747,-0.7603 -1.00577,-0.1454 -2.07619,-0.4039 -2.37871,-0.5743 -0.36469,-0.2055 0.006,-0.3151 1.10009,-0.3251 0.90758,-0.01 2.46676,-0.2628 3.46483,-0.5656 l 1.81469,-0.5504 1.15666,0.3817 c 0.63616,0.2099 1.54939,0.7998 2.0294,1.3107 0.48,0.511 1.37059,1.2299 1.97909,1.5977 0.60849,0.3678 1.51889,0.78261 2.0231,0.92171 l 0.91675,0.253 -1.03448,-0.71231 c -0.56896,-0.3918 -1.76629,-1.8032 -2.66072,-3.1365 -0.92503,-1.3789 -2.1392,-2.6919 -2.81586,-3.045 -0.84187,-0.4394 -1.96022,-0.6023 -3.8258,-0.5572 -1.4499,0.035 -2.73851,-0.1018 -2.86355,-0.3042 -0.12763,-0.2065 0.15355,-0.3679 0.6409,-0.3679 0.47757,0 1.82741,-0.5775 2.99966,-1.2834 1.17226,-0.7059 2.59161,-1.28344 3.15412,-1.28344 0.56252,0 2.06891,0.49494 3.34754,1.09984 1.27864,0.6049 2.73733,1.0933 3.24154,1.0854 l 0.91675,-0.014 -1.1001,-0.5854 c -0.60505,-0.3219 -1.87936,-1.3077 -2.83179,-2.19072 -0.95244,-0.88297 -2.15954,-1.76807 -2.68244,-1.96687 -0.52292,-0.1988 -1.42893,-0.36146 -2.01339,-0.36146 -0.58445,0 -1.89994,0.33003 -2.9233,0.7334 -1.02336,0.40337 -1.93703,0.7334 -2.03042,0.7334 -0.0934,0 -0.16977,-0.16502 -0.16977,-0.3667 0,-0.20169 0.24895,-0.3667 0.55324,-0.3667 0.30427,0 1.55766,-0.92341 2.78531,-2.05201 l 2.23208,-2.05202 1.52339,0.21507 c 0.83787,0.11832 2.84352,0.30013 4.45699,0.40406 l 2.93359,0.189 -1.65014,-0.48467 c -0.90758,-0.26656 -2.64023,-1.02388 -3.85034,-1.68292 l -2.20019,-1.19827 -1.85264,0.14643 c -1.33212,0.10524 -2.3423,0.48331 -3.59548,1.34551 -1.13174,0.77866 -1.96079,1.1109 -2.3644,0.94755 l -0.62155,-0.25158 0.73339,-0.28668 c 0.40337,-0.15768 0.99426,-0.59495 1.31308,-0.97169 0.31882,-0.37676 1.02531,-1.4658 1.56997,-2.42008 0.54467,-0.9543 1.2739,-1.88117 1.62052,-2.05971 0.34662,-0.17856 1.9765,-0.41248 3.62198,-0.51982 1.64546,-0.10732 3.29561,-0.37182 3.66699,-0.58771 l 0.67522,-0.39252 -1.31684,-0.011 c -0.72426,-0.006 -2.12689,-0.25689 -3.11694,-0.55723 -0.99005,-0.30034 -2.60902,-0.54786 -3.59772,-0.55005 l -1.79761,-0.004 -2.01685,2.01685 c -1.10926,1.10926 -2.07804,2.01684 -2.15285,2.01684 -0.0748,0 0.1138,-0.38124 0.41911,-0.84721 0.30532,-0.46596 0.79042,-1.62906 1.07801,-2.58464 0.28759,-0.95558 0.7832,-2.1347 1.10134,-2.62026 0.39119,-0.59702 1.38052,-1.12867 3.05582,-1.64217 1.36254,-0.41764 3.0549,-1.09509 3.7608,-1.50546 0.70589,-0.41037 0.95342,-0.62908 0.55005,-0.48604 -0.40337,0.14307 -2.35525,0.31057 -4.3375,0.37227 -2.6801,0.0834 -3.90226,0.28523 -4.76709,0.78722 -0.63964,0.37129 -1.60414,1.48575 -2.14335,2.47657 -0.53921,0.99083 -1.26972,2.01307 -1.62338,2.27168 -0.35365,0.25859 -0.70948,0.40369 -0.79075,0.32243 -0.0813,-0.0813 0.0938,-0.53335 0.38902,-1.00463 0.29523,-0.4713 0.64283,-1.96866 0.77245,-3.3275 0.12962,-1.35884 0.3332,-2.72477 0.4524,-3.0354 0.11918,-0.31063 1.31117,-1.27945 2.64883,-2.15294 1.33764,-0.87349 2.84096,-2.03342 3.34068,-2.57763 l 0.90861,-0.98948 -1.642,0.90095 c -0.9031,0.49552 -2.52849,1.08504 -3.61198,1.31005 -1.08349,0.22502 -2.4293,0.68044 -2.99069,1.01206 -0.56141,0.33163 -1.35224,1.19538 -1.75741,1.91944 -0.40518,0.72406 -0.86284,1.97653 -1.01703,2.78327 l -0.28034,1.46679 -0.44951,-3.09297 c -0.25105,-1.72741 -0.31789,-3.42736 -0.15138,-3.85034 0.16396,-0.41655 1.06911,-1.49993 2.01142,-2.40751 0.94232,-0.90758 1.9476,-2.09574 2.23395,-2.64035 0.28635,-0.54462 0.52064,-1.09801 0.52064,-1.22976 0,-0.13176 -0.58364,0.27289 -1.29699,0.89922 -0.71334,0.62632 -2.09447,1.54288 -3.06916,2.0368 -0.97471,0.49392 -2.19225,1.39725 -2.70565,2.00737 -0.51339,0.61014 -1.05536,1.6496 -1.20435,2.3099 l -0.27092,1.20056 -0.47701,-1.1001 c -0.26236,-0.60505 -0.48446,-1.52702 -0.49356,-2.04882 -0.01,-0.5306 0.60214,-1.82351 1.38724,-2.93359 0.77207,-1.09167 1.67965,-2.68951 2.01684,-3.55076 0.33719,-0.86124 0.61151,-1.68631 0.6096,-1.83349 -0.001,-0.14718 -0.40994,0.41049 -0.90676,1.23927 -0.49681,0.82879 -1.81295,2.19368 -2.92475,3.03309 -1.1118,0.83942 -2.29323,2.05176 -2.62539,2.6941 l -0.60395,1.1679 0.19798,2.94964 c 0.10904,1.62412 0.07,2.52388 -0.0868,2.0022 -0.15664,-0.52111 -0.88395,-1.81849 -1.61625,-2.88307 -0.74417,-1.08181 -1.33147,-2.38345 -1.33147,-2.9509 0,-0.55841 0.41253,-2.1113 0.91675,-3.45086 0.50421,-1.33956 0.90951,-2.9681 0.90064,-3.61897 l -0.0161,-1.1834 -0.49099,1.37586 c -0.27004,0.75672 -0.96412,1.96661 -1.54238,2.68862 -0.57826,0.72201 -1.43014,1.91803 -1.89307,2.65782 l -0.8417,1.34507 0.18036,1.72211 c 0.0992,0.94715 0.43671,2.21783 0.75003,2.8237 0.31331,0.60588 0.56966,1.52234 0.56966,2.03656 0,0.51423 -0.14438,0.93496 -0.32086,0.93496 -0.17647,0 -0.41535,-0.47244 -0.53084,-1.04986 -0.13282,-0.6641 -0.90264,-1.62979 -2.09503,-2.62813 -1.0368,-0.86805 -2.0354,-1.97367 -2.21914,-2.45694 -0.20399,-0.53652 -0.19396,-1.83351 0.0258,-3.33073 0.21486,-1.46418 0.22987,-2.96912 0.0373,-3.7355 l -0.32258,-1.28345 -0.0375,1.03864 c -0.0207,0.57125 -0.55071,2.20786 -1.17793,3.63692 l -1.1404,2.59828 0.1602,1.93171 0.16018,1.9317 1.34692,1.64372 c 0.7408,0.90404 1.3469,1.75438 1.3469,1.88963 0,0.13525 -0.51856,-0.19044 -1.15237,-0.72376 -0.63381,-0.53331 -1.92113,-1.35921 -2.86072,-1.83534 -0.96706,-0.49004 -1.89908,-1.28431 -2.14791,-1.83043 -0.24177,-0.53062 -0.43958,-1.54398 -0.43958,-2.25191 0,-0.70794 -0.1853,-2.02309 -0.4118,-2.92257 -0.22649,-0.89946 -0.52291,-1.70408 -0.65873,-1.78801 -0.13581,-0.084 -0.25405,0.45516 -0.26274,1.198 -0.009,0.74284 -0.14661,2.67795 -0.30652,4.30026 l -0.29074,2.94965 0.57527,1.11244 c 0.3164,0.61185 1.32832,1.72951 2.24871,2.48371 0.9204,0.75419 1.67344,1.68276 1.67344,2.06344 l 0,0.69218 -0.88517,-0.88517 c -0.48684,-0.48684 -1.35317,-0.99093 -1.92517,-1.12019 -0.572,-0.12928 -1.67716,-0.39481 -2.45591,-0.59007 -0.77875,-0.19528 -1.77593,-0.74352 -2.21597,-1.21832 -0.44002,-0.4748 -1.09045,-1.78457 -1.4454,-2.91059 -0.35495,-1.12601 -1.04037,-2.50014 -1.52316,-3.05362 l -0.8778,-1.00631 0.5144,1.4668 c 0.28294,0.80673 0.52166,2.38065 0.53052,3.49761 0.011,1.35068 0.29242,2.57878 0.84116,3.66698 l 0.82507,1.63618 2.5031,1.225 c 1.37671,0.67375 2.42218,1.30593 2.32328,1.40483 -0.0989,0.0989 -0.51315,0.001 -0.92052,-0.21657 -0.40741,-0.21803 -1.97207,-0.39643 -3.47708,-0.39643 l -2.73637,0 -1.0464,-1.24554 c -0.57552,-0.68507 -1.51081,-1.92255 -2.07841,-2.74996 -0.5676,-0.82742 -1.34829,-1.67368 -1.73486,-1.88058 l -0.70288,-0.37616 0.71169,1.20622 c 0.39144,0.66343 1.05021,2.30225 1.46397,3.64181 0.54813,1.77463 1.09655,2.73785 2.02095,3.54949 0.87432,0.76766 1.95395,1.24873 3.47319,1.54762 1.21247,0.23854 2.39753,0.6663 2.63345,0.95057 l 0.42895,0.51686 -1.47644,-0.23609 c -0.95059,-0.15201 -2.23065,-0.0169 -3.59404,0.37951 -1.16467,0.33857 -2.49718,0.52032 -2.96113,0.40388 -0.46395,-0.11649 -1.77156,-1.02381 -2.90581,-2.01636 -1.134235,-0.99255 -2.586535,-1.98418 -3.227335,-2.2036 l -1.16507,-0.39895 0.98066,0.83075 c 0.53935,0.45694 1.55093,1.73835 2.24794,2.84762 0.696985,1.10926 1.575805,2.28441 1.952925,2.61144 0.37711,0.32704 1.08406,0.80115 1.57099,1.05359 0.48696,0.25243 2.05459,0.44833 3.48364,0.43531 l 2.5983,-0.0237 -1.28345,0.48686 c -0.70589,0.26776 -2.02601,0.91616 -2.93359,1.44088 -0.90758,0.52472 -1.99655,0.95603 -2.41995,0.95845 -0.4234,0.002 -1.83136,-0.55891 -3.128795,-1.24743 -1.29744,-0.68852 -3.01372,-1.35588 -3.81393,-1.48303 l -1.45494,-0.23118 1.1001,0.51861 c 0.60505,0.28524 2.04453,1.43971 3.19883,2.56549 1.31714,1.28458 2.651245,2.21239 3.582365,2.49136 l 1.48367,0.44452 1.73474,-0.45119 c 0.95411,-0.24816 2.18854,-0.54148 2.74318,-0.65184 0.61647,-0.12264 1.00842,-0.0419 1.00842,0.20769 0,0.22458 -0.32042,0.40832 -0.71206,0.40832 -0.39163,0 -1.6602,0.82975 -2.81904,1.84375 -1.15885,1.0141 -2.49582,1.9414 -2.97106,2.0607 -0.47523,0.1193 -1.81647,-0.05 -2.980515,-0.377 -1.16404,-0.3266 -2.84819,-0.5828 -3.74254,-0.5693 l -1.62609,0.025 1.4668,0.4693 c 0.80674,0.2581 2.45688,1.0717 3.66699,1.808 l 2.200185,1.3387 1.66714,0 1.66713,0 1.99986,-1.2741 c 1.09991,-0.7007 2.16039,-1.2783 2.3566,-1.2834 0.19621,0 -0.13382,0.4513 -0.7334,1.0145 -0.59958,0.5631 -1.62573,1.8045 -2.28033,2.7587 -0.65461,0.9542 -1.61418,1.896 -2.13239,2.0931 -0.51822,0.197 -2.12782,0.3698 -3.5769,0.384 -1.449085,0.014 -2.964725,0.1675 -3.368085,0.34091 l -0.7334,0.3151 1.31772,0.026 c 0.72474,0.014 2.27695,0.3558 3.449355,0.7592 1.17241,0.4034 2.69157,0.7334 3.37591,0.7334 0.68434,0 1.68984,-0.2339 2.23446,-0.5198 0.54462,-0.2859 1.64251,-1.1935 2.43976,-2.01691 0.79724,-0.8233 1.69444,-1.497 1.99377,-1.497 0.37635,0 0.24034,0.3172 -0.44091,1.0283 -0.54182,0.5655 -1.33306,2.05851 -1.75831,3.31771 -0.44482,1.3172 -1.10677,2.5055 -1.55869,2.7982 -0.43202,0.2798 -1.61058,0.7088 -2.619,0.9534 -1.00842,0.2446 -2.4523,0.7538 -3.20861,1.1315 -0.75632,0.3777 -1.375115,0.7483 -1.375115,0.8236 0,0.076 0.623765,0 1.386175,-0.1746 0.76238,-0.1712 2.61879,-0.2827 4.12536,-0.2476 1.98157,0.046 3.06206,-0.11 3.90649,-0.5631 0.66729,-0.3583 1.74989,-1.5707 2.52735,-2.8303 0.74802,-1.2118 1.43673,-2.2034 1.53048,-2.2034 0.0937,0 0.0544,0.2888 -0.0875,0.6417 -0.14191,0.3529 -0.40598,1.7829 -0.58684,3.1776 -0.18085,1.3947 -0.56013,2.8888 -0.84287,3.3203 -0.28271,0.4316 -1.48017,1.3001 -2.661,1.9302 -1.18084,0.63 -2.64201,1.668 -3.24707,2.3065 l -1.10009,1.161 1.31645,-0.7697 c 0.72405,-0.4234 2.29168,-0.9483 3.48364,-1.1662 1.19195,-0.2181 2.70913,-0.6514 3.37147,-0.963 0.6831,-0.3212 1.59562,-1.2342 2.10852,-2.1093 0.49734,-0.8487 0.90423,-1.8814 0.90423,-2.2952 0,-0.4138 0.34384,-1.1418 0.7641,-1.618 l 0.76409,-0.8657 -0.27948,0.7334 c -0.15372,0.4034 -0.27951,1.146 -0.27951,1.6502 0,0.5042 0.13266,1.9426 0.29481,3.1966 l 0.29481,2.2799 -2.38102,2.4872 c -1.30957,1.3679 -2.59028,2.8997 -2.84603,3.4039 l -0.46499,0.9168 0.99477,-0.9155 c 0.54711,-0.5036 2.2609,-1.5762 3.80842,-2.3836 l 2.81368,-1.4684 0.64116,-1.2834 c 0.38462,-0.7698 0.64137,-2.1184 0.64172,-3.3702 3.1e-4,-1.1479 0.16558,-2.189 0.36726,-2.3136 0.2061,-0.1274 0.3667,0.1644 0.3667,0.6661 0,0.491 0.42609,1.8563 0.94687,3.0339 0.62745,1.4187 0.87678,2.4914 0.73911,3.1798 -0.1143,0.5714 -0.71458,1.7755 -1.33398,2.6757 -0.61941,0.9004 -1.36454,2.2073 -1.65585,2.9045 -0.29131,0.6972 -0.52904,1.4793 -0.52828,1.7378 7.4e-4,0.2587 0.30959,-0.035 0.6863,-0.653 z"
       id="path4182"
       inkscape:connector-curvature="0" />
    <path
       inkscape:connector-curvature="0"
       id="path4152"
       d="m 189.97169,969.01336 c 1.06887,-1.04372 1.46901,-1.73541 1.47495,-2.54963 l 0.009,-1.11735 0.72795,0.91674 c 0.44456,0.55988 0.64398,1.20225 0.51229,1.65015 -0.11857,0.40337 -0.3038,1.14593 -0.41152,1.65014 l -0.19587,0.91675 0.95887,-1.26301 c 0.52738,-0.69466 0.95887,-1.65435 0.95887,-2.13263 0,-0.47829 -0.18641,-1.23005 -0.41422,-1.67057 l -0.41424,-0.80097 1.14763,1.07703 1.14763,1.07702 0.0143,1.67322 0.0143,1.67321 0.5357,-1.23387 c 0.29465,-0.67863 0.53572,-1.68977 0.53572,-2.24697 0,-0.5572 -0.25151,-1.22183 -0.55891,-1.47695 -0.30741,-0.25511 -0.48775,-0.53501 -0.40078,-0.62198 0.087,-0.087 0.66712,0.10512 1.28923,0.42677 l 1.13109,0.58491 0.23459,1.4671 c 0.12903,0.80691 0.352,1.53965 0.49547,1.62833 0.14348,0.0886 0.29078,-0.68394 0.32734,-1.71693 l 0.0665,-1.87816 -0.76748,-0.81695 -0.76747,-0.81694 1.21703,0.2475 1.21704,0.24749 0.64461,1.36151 c 0.35453,0.74882 0.72777,1.3615 0.82941,1.3615 0.1017,0 0.0784,-0.70131 -0.0517,-1.55847 -0.13004,-0.85716 -0.4876,-1.84724 -0.79456,-2.20019 -0.30696,-0.35295 -0.77032,-0.64172 -1.02969,-0.64172 -0.25937,0 -0.54819,-0.12376 -0.64182,-0.27503 -0.0936,-0.15126 0.50683,-0.2495 1.33438,-0.21832 l 1.50464,0.0567 1.01765,1.22674 c 0.5597,0.67471 1.02209,1.10118 1.02751,0.94772 0.005,-0.15346 -0.33123,-1.00468 -0.74812,-1.89159 -0.5262,-1.11943 -1.05887,-1.69393 -1.74182,-1.87864 l -0.98383,-0.26607 1.19978,-0.33012 1.19976,-0.33011 1.28543,0.98044 c 0.70698,0.53924 1.35691,0.90896 1.44428,0.82159 0.0874,-0.0874 -0.47561,-0.85294 -1.25107,-1.70127 l -1.40991,-1.54244 -1.41748,-0.0175 -1.41749,-0.0175 1.64407,-0.57526 1.64407,-0.57525 1.13221,0.4094 c 0.62271,0.22519 1.26694,0.40942 1.43161,0.40942 0.16468,0 -0.33968,-0.5079 -1.12082,-1.12866 l -1.42023,-1.12866 -1.10541,0.20578 -1.1054,0.20576 0.98905,-0.87635 0.98906,-0.87636 1.38419,0.31219 c 0.76131,0.1717 1.45003,0.24634 1.5305,0.16588 0.0804,-0.0804 -0.60942,-0.51348 -1.53308,-0.96223 l -1.67939,-0.81591 -1.02351,0.51234 c -0.56294,0.2818 -1.17802,0.5829 -1.36686,0.66912 -0.18884,0.0862 0.0941,-0.40217 0.62876,-1.08534 0.71713,-0.91632 1.43237,-1.34657 2.72687,-1.64038 l 1.75479,-0.39826 -2.12267,-0.29046 -2.12268,-0.29048 -0.71924,0.6509 c -0.39558,0.358 -0.71924,0.53464 -0.71924,0.39252 0,-0.14212 0.24465,-0.7315 0.54368,-1.30975 0.34459,-0.66635 0.94731,-1.14 1.64594,-1.29345 0.60624,-0.13314 1.18367,-0.37381 1.28315,-0.53479 0.0995,-0.16098 -0.59993,-0.21632 -1.55426,-0.12297 l -1.73516,0.16972 -0.92424,1.04492 -0.92424,1.04493 0.13975,-1.46544 0.13975,-1.46544 1.43367,-0.94876 c 0.78851,-0.52181 1.38551,-0.99691 1.32665,-1.05576 -0.0589,-0.0588 -0.89329,0.15185 -1.85431,0.46823 -1.13613,0.37402 -1.91646,0.89807 -2.23091,1.4982 l -0.48359,0.92297 -0.18767,-0.98178 c -0.13671,-0.71513 0.0978,-1.34104 0.86366,-2.3047 0.57823,-0.72761 1.05134,-1.37718 1.05134,-1.44348 0,-0.0664 -0.58106,0.22226 -1.29125,0.64129 -0.71018,0.41902 -1.53147,1.1048 -1.82506,1.52398 -0.2936,0.41916 -0.65868,0.63726 -0.81128,0.48465 -0.15261,-0.15262 0.10426,-0.9408 0.57089,-1.75154 0.4666,-0.81073 0.77582,-1.5466 0.68715,-1.63527 -0.0886,-0.0886 -0.77579,0.51909 -1.52697,1.35056 l -1.36577,1.51175 0.2249,0.97316 0.22492,0.97315 -0.77998,-1.19163 -0.77998,-1.19163 0.40262,-1.15495 c 0.22145,-0.63523 0.40262,-1.32741 0.40262,-1.53818 0,-0.21078 -0.41253,0.17594 -0.91674,0.85936 -0.53448,0.72444 -0.91675,1.73903 -0.91675,2.43314 0,0.65482 0.16501,1.29254 0.3667,1.4172 0.20168,0.12465 0.3667,0.40499 0.3667,0.62298 0,0.21799 -0.58816,-0.22729 -1.30704,-0.98951 l -1.30704,-1.38587 0.24701,-1.46207 c 0.1479,-0.87541 0.10977,-1.37726 -0.095,-1.25072 -0.18811,0.11625 -0.5626,0.87981 -0.83223,1.69677 l -0.49022,1.4854 0.42824,0.9399 0.42824,0.93988 -0.46114,-0.26248 c -0.25365,-0.14437 -0.74994,-0.51048 -1.10289,-0.8136 -0.37343,-0.3207 -0.64172,-1.06392 -0.64172,-1.77772 0,-0.67462 -0.16502,-1.2266 -0.3667,-1.2266 -0.20168,0 -0.3667,0.85569 -0.3667,1.90153 l 0,1.90154 0.78798,0.83876 0.78797,0.83876 -1.19021,-0.34135 c -0.65461,-0.18775 -1.42175,-0.53351 -1.70473,-0.76835 -0.28297,-0.23486 -0.5145,-0.62278 -0.5145,-0.86206 0,-0.23929 -0.23611,-0.75538 -0.52468,-1.14688 l -0.52467,-0.71181 0.19361,1.65015 c 0.13088,1.1156 0.48564,1.91742 1.09517,2.47521 l 0.90156,0.82508 -1.08497,0 c -0.80958,0 -1.37014,-0.34905 -2.20835,-1.37512 -0.61785,-0.75632 -1.1221,-1.21011 -1.12055,-1.00843 0.001,0.20169 0.3673,1.10927 0.81278,2.01685 l 0.80995,1.65014 1.28345,0.43768 c 0.70589,0.24071 1.0153,0.44698 0.68756,0.45837 -0.32773,0.011 -1.08152,0.11784 -1.67507,0.23654 l -1.07919,0.21584 -1.1281,-0.94924 c -0.62046,-0.52208 -1.22308,-0.94924 -1.33915,-0.94924 -0.116,0 0.20645,0.6152 0.71671,1.36711 0.51026,0.7519 1.12409,1.49195 1.36407,1.64453 0.23997,0.15258 0.84886,0.2905 1.35307,0.30649 l 0.91675,0.0291 -1.20356,0.59871 -1.20354,0.59869 -1.05322,-0.62215 c -0.57927,-0.34218 -1.24965,-0.62215 -1.48971,-0.62215 -0.24007,0 0.25924,0.58126 1.10957,1.29169 l 1.54606,1.29171 1.33056,-0.23239 1.33054,-0.23237 -1.26301,0.95752 c -0.69466,0.52664 -1.35581,0.95752 -1.46922,0.95752 -0.11343,0 -0.77174,-0.16219 -1.46294,-0.36042 -0.6912,-0.19824 -1.32491,-0.29226 -1.40824,-0.20894 -0.0834,0.0834 0.51798,0.49304 1.33623,0.91048 0.81824,0.41744 1.78761,0.75898 2.15414,0.75898 0.36652,0 1.0665,-0.28024 1.55552,-0.62275 l 0.88911,-0.62277 -1.0344,1.35617 -1.03438,1.35615 -1.51495,0.0298 -1.51495,0.0298 1.1001,0.50373 c 0.60505,0.27704 1.45871,0.51117 1.89703,0.52026 0.43831,0.009 1.30673,-0.41243 1.92983,-0.93672 l 1.13288,-0.95325 -0.8345,1.59497 c -0.58846,1.12474 -1.17919,1.70686 -2.0037,1.97446 -0.64308,0.20871 -1.28724,0.49748 -1.43147,0.64172 -0.14424,0.14423 0.5157,0.26225 1.46651,0.26225 l 1.72878,0 0.89924,-0.9703 0.89923,-0.97028 0,0.81105 c 0,0.44608 -0.15871,1.10759 -0.35268,1.47005 -0.19398,0.36244 -0.85404,0.86665 -1.46679,1.12047 -0.61277,0.25382 -1.11412,0.58906 -1.11412,0.74501 0,0.15593 0.70131,0.0786 1.55847,-0.17187 1.05661,-0.30875 1.82417,-0.84515 2.38354,-1.66569 l 0.82508,-1.21029 0,1.52461 c 0,1.09359 -0.21515,1.70502 -0.76101,2.16275 -0.41856,0.35097 -0.91896,0.92609 -1.11202,1.27803 l -0.35102,0.63989 1.65593,-1.00022 c 1.01022,-0.61019 1.81925,-1.43168 2.07477,-2.10668 l 0.41883,-1.10648 0.36642,1.1662 0.36642,1.1662 -0.77912,1.26062 c -0.42851,0.69335 -0.77911,1.3984 -0.77911,1.56679 0,0.1684 0.66006,-0.33837 1.4668,-1.12612 z"
       style="fill:#fecf03;fill-opacity:1"
       sodipodi:nodetypes="cccscscsscccccccscsccscccccccsscsssccsccscccsssccccccsccccccsssccccccccsssccscccccsccscscsccccsscccccssssssscscsccccsssscccscsscsscsscscccccssscccccssscccssssssccccccccscsssscccscsssscssccsscccsscc" />
    <path
       sodipodi:nodetypes="cccscscsscccccccscsccscccccccsscsssccsccscccsssccccccsccccccsssccccccccsssccscccccsccscscsccccsscccccssssssscscsccccsssscccscsscsscsscscccccssscccccssscccssssssccccccccscsssscccscsssscssccsscccsscc"
       style="fill:#fecf03;fill-opacity:1"
       d="m 61.972082,1033.0133 c 1.068866,-1.0438 1.469008,-1.7354 1.474948,-2.5497 l 0.0086,-1.1173 0.727946,0.9167 c 0.444561,0.56 0.643984,1.2023 0.51229,1.6502 -0.118566,0.4034 -0.303798,1.1459 -0.411521,1.6501 l -0.195867,0.9168 0.958869,-1.2631 c 0.527374,-0.6946 0.958869,-1.6543 0.958869,-2.1326 0,-0.4782 -0.186406,-1.23 -0.414223,-1.6705 l -0.414236,-0.801 1.147633,1.077 1.147621,1.0771 0.0143,1.6731 0.0143,1.6733 0.535699,-1.2338 c 0.294654,-0.6787 0.535722,-1.6898 0.535722,-2.247 0,-0.5572 -0.251506,-1.2219 -0.55891,-1.477 -0.307404,-0.2551 -0.487746,-0.535 -0.400777,-0.622 0.08703,-0.087 0.667123,0.1051 1.289227,0.4268 l 1.131095,0.5849 0.234589,1.4672 c 0.12903,0.8068 0.351995,1.5396 0.495472,1.6282 0.143477,0.088 0.29078,-0.6839 0.327339,-1.7169 l 0.06649,-1.8782 -0.767476,-0.8169 -0.767476,-0.817 1.217037,0.2475 1.217036,0.2476 0.644608,1.3615 c 0.354537,0.7488 0.727775,1.3614 0.829412,1.3614 0.101697,0 0.07835,-0.7012 -0.0517,-1.5584 -0.130044,-0.8571 -0.487599,-1.8472 -0.794563,-2.2002 -0.306964,-0.3529 -0.770324,-0.6417 -1.02969,-0.6417 -0.259366,0 -0.548191,-0.1237 -0.641821,-0.2751 -0.09363,-0.1512 0.506827,-0.2494 1.33438,-0.2183 l 1.504639,0.056 1.01765,1.2267 c 0.559705,0.6747 1.022088,1.1012 1.027515,0.9478 0.0049,-0.1536 -0.331239,-1.0048 -0.748127,-1.8917 -0.5262,-1.1194 -1.058867,-1.6939 -1.741819,-1.8786 l -0.983829,-0.2661 1.199778,-0.3302 1.199765,-0.33 1.285426,0.9804 c 0.706983,0.5392 1.356908,0.909 1.44428,0.8216 0.0874,-0.088 -0.475608,-0.853 -1.251066,-1.7013 l -1.409908,-1.5424 -1.417487,-0.017 -1.417487,-0.017 1.64407,-0.5753 1.64407,-0.5752 1.132207,0.4094 c 0.622716,0.2251 1.266945,0.4094 1.431617,0.4094 0.164672,0 -0.339686,-0.508 -1.120827,-1.1287 l -1.420225,-1.1287 -1.105414,0.2059 -1.105401,0.2057 0.989048,-0.8763 0.98906,-0.8764 1.38419,0.3122 c 0.761316,0.1717 1.450037,0.2463 1.530503,0.1659 0.08043,-0.081 -0.609416,-0.5135 -1.533082,-0.9623 l -1.679383,-0.8159 -1.023517,0.5124 c -0.562932,0.2818 -1.17802,0.5828 -1.366858,0.6691 -0.188838,0.087 0.09412,-0.4022 0.628766,-1.0854 0.717129,-0.9163 1.432363,-1.3465 2.726871,-1.6404 l 1.754788,-0.3982 -2.122673,-0.2904 -2.122685,-0.2906 -0.719231,0.6509 c -0.395582,0.358 -0.719243,0.5347 -0.719243,0.3926 0,-0.1421 0.244649,-0.7315 0.54368,-1.3098 0.344587,-0.6663 0.947305,-1.14 1.64594,-1.2934 0.606239,-0.1332 1.183667,-0.3739 1.283152,-0.5349 0.0995,-0.1609 -0.599931,-0.2162 -1.554265,-0.1229 l -1.735158,0.1698 -0.92424,1.0449 -0.92424,1.0449 0.139749,-1.4655 0.139749,-1.4654 1.433671,-0.9488 c 0.788512,-0.5218 1.38551,-0.9968 1.326655,-1.0557 -0.05892,-0.059 -0.893291,0.1518 -1.854311,0.4683 -1.13613,0.374 -1.916466,0.898 -2.23091,1.4982 l -0.48359,0.9229 -0.187676,-0.9817 c -0.136706,-0.7152 0.09779,-1.3412 0.863661,-2.3047 0.578235,-0.7277 1.051338,-1.3772 1.051338,-1.4436 0,-0.066 -0.581059,0.2223 -1.291245,0.6414 -0.710185,0.419 -1.531469,1.1047 -1.82506,1.524 -0.293603,0.4191 -0.658677,0.6372 -0.811284,0.4846 -0.152608,-0.1527 0.104264,-0.9408 0.570889,-1.7516 0.466599,-0.8108 0.775824,-1.5466 0.687157,-1.6352 -0.08862,-0.088 -0.775789,0.5191 -1.526971,1.3505 l -1.36577,1.5118 0.224896,0.9731 0.224921,0.9732 -0.77998,-1.1916 -0.779981,-1.1917 0.402623,-1.155 c 0.22145,-0.6352 0.402623,-1.3274 0.402623,-1.5381 0,-0.2108 -0.412536,0.176 -0.916747,0.8594 -0.534476,0.7243 -0.916747,1.739 -0.916747,2.433 0,0.655 0.165015,1.2926 0.366699,1.4173 0.201684,0.1246 0.366699,0.405 0.366699,0.6229 0,0.2181 -0.588161,-0.2272 -1.307037,-0.9895 l -1.307037,-1.3858 0.247008,-1.4621 c 0.147902,-0.8754 0.109765,-1.3773 -0.09497,-1.2506 -0.188104,0.1161 -0.562601,0.8797 -0.832223,1.6967 l -0.490227,1.4853 0.428243,0.94 0.428243,0.9399 -0.461148,-0.2626 c -0.253646,-0.1444 -0.749936,-0.5104 -1.102884,-0.8136 -0.373433,-0.3206 -0.641723,-1.0639 -0.641723,-1.7776 0,-0.6747 -0.165014,-1.2266 -0.366698,-1.2266 -0.201685,0 -0.366699,0.8556 -0.366699,1.9014 l 0,1.9016 0.787974,0.8388 0.787975,0.8387 -1.190207,-0.3414 c -0.654618,-0.1877 -1.421752,-0.5334 -1.704734,-0.7683 -0.282969,-0.2348 -0.514502,-0.6228 -0.514502,-0.862 0,-0.2393 -0.236106,-0.7554 -0.524673,-1.1469 l -0.524673,-0.7118 0.193605,1.6502 c 0.130887,1.1156 0.485644,1.9173 1.09517,2.4752 l 0.901566,0.8251 -1.084976,0 c -0.809573,0 -1.370134,-0.3491 -2.208346,-1.3752 -0.617851,-0.7563 -1.122099,-1.2101 -1.120546,-1.0084 0.0012,0.2017 0.367298,1.1093 0.812776,2.0169 l 0.809952,1.6501 1.283446,0.4376 c 0.705895,0.2408 1.015303,0.447 0.68756,0.4584 -0.327731,0.012 -1.081517,0.1173 -1.675068,0.2365 l -1.079195,0.2159 -1.1281,-0.9493 c -0.620454,-0.5221 -1.223075,-0.9491 -1.339147,-0.9491 -0.115999,0 0.206451,0.6152 0.716713,1.367 0.510261,0.7519 1.12409,1.492 1.36407,1.6445 0.239968,0.1526 0.848859,0.2906 1.35307,0.3066 l 0.916747,0.029 -1.203554,0.5987 -1.203542,0.5987 -1.053221,-0.6221 c -0.579274,-0.3423 -1.249648,-0.6222 -1.489714,-0.6222 -0.240065,0 0.259244,0.5812 1.10957,1.2916 l 1.546063,1.2918 1.330555,-0.2324 1.330542,-0.2323 -1.263008,0.9574 c -0.694663,0.5267 -1.355808,0.9576 -1.469216,0.9576 -0.113432,0 -0.771742,-0.1622 -1.462945,-0.3605 -0.691203,-0.1982 -1.324907,-0.2922 -1.408234,-0.2089 -0.08336,0.083 0.517975,0.493 1.336227,0.9105 0.818239,0.4175 1.787607,0.759 2.154135,0.759 0.366528,0 1.066507,-0.2803 1.555524,-0.6228 l 0.889111,-0.6228 -1.034397,1.3562 -1.034384,1.3562 -1.514955,0.029 -1.514943,0.029 1.100097,0.5038 c 0.605053,0.2769 1.458715,0.5111 1.897031,0.5202 0.438315,0.012 1.306731,-0.4124 1.929826,-0.9367 l 1.132879,-0.9533 -0.834497,1.595 c -0.588453,1.1247 -1.179193,1.7069 -2.003703,1.9745 -0.64308,0.2087 -1.287235,0.4975 -1.43147,0.6417 -0.144235,0.1442 0.515701,0.2623 1.466514,0.2623 l 1.728777,0 0.899244,-0.9704 0.899231,-0.9703 0,0.8111 c 0,0.4461 -0.158708,1.1076 -0.352679,1.47 -0.193984,0.3626 -0.854042,0.8668 -1.466795,1.1205 -0.612766,0.2539 -1.114117,0.5891 -1.114117,0.745 0,0.156 0.701312,0.078 1.55847,-0.1718 1.056606,-0.3088 1.824168,-0.8451 2.383543,-1.6657 l 0.825072,-1.2103 0,1.5246 c 0,1.0936 -0.215142,1.705 -0.76101,2.1628 -0.41855,0.3509 -0.91896,0.926 -1.112014,1.278 l -0.351017,0.6399 1.655927,-1.0002 c 1.010218,-0.6102 1.819254,-1.4317 2.074769,-2.1067 l 0.418832,-1.1064 0.366417,1.1661 0.366418,1.1662 -0.779113,1.2606 c -0.428512,0.6934 -0.779113,1.3984 -0.779113,1.5667 0,0.1685 0.660058,-0.3383 1.466796,-1.126 z"
       id="path4219"
       inkscape:connector-curvature="0" />
  </g>
</svg>
