<?xml version="1.0" encoding="UTF-8" standalone="no"?>
<!-- Created with Inkscape (http://www.inkscape.org/) -->

<svg
   xmlns:dc="http://purl.org/dc/elements/1.1/"
   xmlns:cc="http://creativecommons.org/ns#"
   xmlns:rdf="http://www.w3.org/1999/02/22-rdf-syntax-ns#"
   xmlns:svg="http://www.w3.org/2000/svg"
   xmlns="http://www.w3.org/2000/svg"
   xmlns:sodipodi="http://sodipodi.sourceforge.net/DTD/sodipodi-0.dtd"
   xmlns:inkscape="http://www.inkscape.org/namespaces/inkscape"
   width="32"
   height="32"
   viewBox="0 0 32 32"
   id="svg2"
   version="1.1"
   inkscape:version="0.91 r13725"
   sodipodi:docname="Icon_Stark.svg"
   inkscape:export-filename=".\GOT_Icon.png"
   inkscape:export-xdpi="90"
   inkscape:export-ydpi="90">
  <defs
     id="defs4" />
  <sodipodi:namedview
     id="base"
     pagecolor="#ffffff"
     bordercolor="#666666"
     borderopacity="1.0"
     inkscape:pageopacity="0.0"
     inkscape:pageshadow="2"
     inkscape:zoom="14.692108"
     inkscape:cx="-2.351062"
     inkscape:cy="14.890525"
     inkscape:document-units="px"
     inkscape:current-layer="layer1"
     showgrid="false"
     units="px"
     showborder="true"
     inkscape:window-width="1920"
     inkscape:window-height="1138"
     inkscape:window-x="-8"
     inkscape:window-y="-8"
     inkscape:window-maximized="1"
     inkscape:snap-nodes="false" />
  <metadata
     id="metadata7">
    <rdf:RDF>
      <cc:Work
         rdf:about="">
        <dc:format>image/svg+xml</dc:format>
        <dc:type
           rdf:resource="http://purl.org/dc/dcmitype/StillImage" />
        <dc:title></dc:title>
      </cc:Work>
    </rdf:RDF>
  </metadata>
  <g
     inkscape:groupmode="layer"
     id="layer2"
     inkscape:label="Background"
     style="display:none"
     transform="translate(0,-4)">
    <rect
       style="display:inline;fill:#1b0000;fill-opacity:1;stroke:none;stroke-width:0.5;stroke-linecap:round;stroke-linejoin:round;stroke-miterlimit:4;stroke-dasharray:none;stroke-opacity:1"
       id="rect4135"
       width="36"
       height="36"
       x="0"
       y="-9.5367432e-007" />
  </g>
  <g
     inkscape:label="Layer 1"
     inkscape:groupmode="layer"
     id="layer1"
     transform="translate(0,-1020.3622)">
    <path
       style="fill:#7c7c7c;fill-opacity:1"
       d="m 12.41818,1046.0321 -0.126021,0.7927 -0.461055,-0.9816 c -0.25358,-0.5398 -0.50509,-1.4127 -0.558911,-1.9397 l -0.09786,-0.9581 -1.042726,0.068 -1.0427292,0.067 0.045829,-0.3478 c 0.0252,-0.1912 0.080329,-0.674 0.1224989,-1.073 l 0.076676,-0.7253 -0.7021481,0.094 c -0.3861813,0.052 -0.9487155,0.1316 -1.2500747,0.1777 l -0.5479272,0.084 0.1676454,-0.4456 c 0.092205,-0.2451 0.1676448,-0.7479 0.1676448,-1.1176 0,-0.4293 -0.076341,-0.6684 -0.211268,-0.662 -0.116196,0.01 -0.571174,0.07 -1.0110611,0.1434 l -0.7997935,0.133 0.061121,-1.168 0.061122,-1.168 -0.5601856,0 c -0.3081023,0 -0.756356,0.075 -0.9961217,0.1675 l -0.4359373,0.1675 0.077168,-0.381 c 0.042442,-0.2095 0.1239673,-0.6743 0.1811671,-1.0327 l 0.1039977,-0.6518 -0.3900359,0.2029 -0.3900344,0.2031 0.2112674,-0.2259 c 0.116198,-0.1243 0.2112675,-0.275 0.2112675,-0.3351 0,-0.06 -0.2957016,-0.208 -0.6571144,-0.3285 -0.3614129,-0.1206 -0.8747939,-0.3991 -1.1408447,-0.619 L 1,1033.7721 l 0.6649474,-0.01 c 0.3657223,-0.01 0.9931865,-0.1666 1.3943676,-0.363 0.4011798,-0.1962 0.7294173,-0.4125 0.7294173,-0.4807 0,-0.068 -0.2852104,-0.2674 -0.6338023,-0.4429 l -0.6338029,-0.3191 1.0385207,-0.1407 c 0.5711856,-0.078 1.3227386,-0.2607 1.6701149,-0.4076 l 0.6315948,-0.2665 -0.6560302,-0.458 -0.6560314,-0.458 1.4366195,-0.093 c 0.7901411,-0.051 1.6221084,-0.1959 1.8488154,-0.3223 l 0.4121958,-0.2295 -0.7924776,-0.4069 c -0.4358629,-0.224 -0.7923786,-0.4248 -0.7922583,-0.4465 1.216e-4,-0.021 0.55153,-0.042 1.2253522,-0.046 0.8559269,-0.01 1.4002227,-0.1006 1.8061306,-0.3198 l 0.5809975,-0.3138 -0.5441169,-0.4487 -0.544117,-0.4487 1.3997389,0.056 c 0.773562,0.031 1.61983,-0.028 1.891719,-0.1343 l 0.491978,-0.191 -0.576484,-0.6173 c -0.412083,-0.4412 -0.480087,-0.5794 -0.238458,-0.4846 0.185916,0.073 0.714943,0.2062 1.175617,0.2961 0.460676,0.09 1.165706,0.1135 1.566735,0.053 l 0.729142,-0.1105 -0.510396,-0.6257 c -0.280718,-0.3441 -0.510395,-0.6797 -0.510395,-0.7456 0,-0.066 0.343769,0.074 0.763931,0.3115 0.472222,0.2669 1.149398,0.4669 1.773396,0.5241 0.555205,0.051 1.447996,0 1.98398,-0.1165 l 0.974516,-0.2089 1.435188,0.3711 c 0.789352,0.2042 1.891525,0.4832 2.44927,0.6199 0.708756,0.1739 1.192191,0.4215 1.605634,0.8223 l 0.59155,0.5733 0.929577,0.1229 c 0.511267,0.067 1.29366,0.2672 1.738651,0.4438 0.444991,0.1765 0.99018,0.3208 1.211529,0.3208 0.221351,0 0.52276,0.047 0.669798,0.1037 0.147041,0.056 0.267346,0.2447 0.267346,0.4169 0,0.1723 -0.07721,0.3615 -0.171576,0.4204 -0.09436,0.058 -0.277258,0.3517 -0.406424,0.6506 -0.129169,0.2989 -0.621543,0.9661 -1.094164,1.4828 -0.472622,0.5166 -1.009547,1.1122 -1.19317,1.3236 -0.18362,0.2113 -0.46571,0.3384 -0.611499,0.3844 -0.348666,0.1097 -0.287935,0.04 -0.191266,-0.2136 0.0451,-0.1184 0.143232,-0.357 0.212724,-0.5323 l 0.126348,-0.3187 -0.352546,0.1907 c -0.193898,0.1049 -0.512437,0.1577 -0.701683,0.1907 -0.396903,0.069 -0.32306,0.1665 -0.329125,-0.1282 0.01101,-0.07 0.01101,-0.2242 0,-0.3415 -0.01102,-0.1175 -0.109096,-0.2135 -0.217973,-0.2135 -0.108877,0 -0.33016,0.1208 -0.491734,0.2686 l -0.293778,0.2687 -0.111203,-0.354 c -0.06116,-0.1947 -0.195159,-0.3542 -0.297773,-0.3542 -0.102615,0 -0.320203,0.1222 -0.483532,0.2716 l -0.296963,0.2716 -0.379951,-0.4416 -0.379955,-0.4415 -0.321158,0.2937 -0.321162,0.2936 -0.301901,-0.4043 c -0.168632,-0.226 -0.386748,-0.3516 -0.494107,-0.2845 -0.10571,0.066 -0.192204,0.2665 -0.192204,0.4456 0,0.179 0.13626,0.3992 0.302799,0.4892 0.166539,0.09 0.452309,0.1559 0.633803,0.1342 0.318042,-0.038 0.355626,-0.1766 0.279542,0.2771 l -0.05147,0.3067 0.474,-0.051 0.508143,-0.085 0.01987,0.4189 c 0.01158,0.2443 0.170973,0.3842 0.370306,0.3842 0.173963,0 0.364073,-0.079 0.422459,-0.1736 0.408331,-0.4334 0.315137,-0.2164 0.420833,0.3544 0,0.1823 0.06971,0.3315 0.154928,0.3315 0.08521,0 0.181007,-0.099 0.228828,-0.2134 0.123379,-0.2959 -0.05853,-0.3323 0.436619,0.1119 l 0.362723,0.3253 0.236649,-0.1606 c 0.212278,-0.1442 0.262188,-0.1774 0.361315,-0.223 0.531411,-0.244 0.464411,-0.2413 0.416119,0.1468 -0.02231,0.1792 -0.179733,0.5457 -0.399408,0.8113 -0.219675,0.2655 -0.457152,0.6749 -0.527729,0.9097 -0.07058,0.2349 -0.20607,0.5251 -0.301101,0.6451 -0.09503,0.1199 -0.504032,0.4439 -0.908891,0.72 l -0.73611,0.5021 0,-0.526 0,-0.526 -0.486192,0.072 -0.486192,0.072 0.02141,-0.4985 c 0.01525,-0.3552 -0.107919,-0.5976 -0.428197,-0.8432 l -0.449598,-0.3446 -0.58785,0.1114 c -0.323321,0.062 -0.843536,0.2825 -1.156035,0.4917 -0.327508,0.2192 -0.765065,0.7731 -1.032972,1.3075 -0.255635,0.5099 -0.464791,1.1148 -0.464791,1.3443 l 0,0.4173 -0.25352,-0.2125 c -0.139437,-0.117 -0.253522,-0.3279 -0.253522,-0.4689 l 0,-0.2562 -0.237952,0.1995 c -0.130873,0.1098 -0.367855,0.4763 -0.526626,0.8144 -0.158771,0.3381 -0.284631,0.911 -0.279684,1.2731 0.0049,0.362 -0.02815,0.6583 -0.07355,0.6583 -0.0454,0 -0.193761,-0.2689 -0.329702,-0.5978 -0.13594,-0.3287 -0.316606,-0.5977 -0.40148,-0.5977 -0.08487,0 -0.359761,0.4244 -0.610861,0.9429 l -0.456544,0.943 0.08576,0.7689 0.08576,0.7688 -0.216611,-0.1817 c -0.119133,-0.1 -0.264902,-0.3761 -0.323928,-0.6137 -0.05903,-0.2377 -0.198892,-0.4014 -0.310809,-0.3636 -0.111918,0.038 -0.347995,0.3186 -0.524617,0.6242 -0.176623,0.3055 -0.371939,0.9911 -0.434037,1.5234 l -0.112901,0.9678 -0.310147,-0.6257 c -0.180814,-0.3648 -0.400281,-0.5907 -0.526291,-0.5418 -0.118881,0.046 -0.343589,0.3552 -0.499353,0.6869 -0.155767,0.3317 -0.33992,0.9599 -0.409231,1.3959 z m 5.314218,-15.4349 c 0.557747,-0.055 1.090141,-0.108 1.183098,-0.1183 0.09296,-0.011 0.359156,0.039 0.591551,0.1094 l 0.422535,0.1281 -0.388157,-0.2873 c -0.274153,-0.2029 -0.671262,-0.2768 -1.352111,-0.2517 -0.530178,0.02 -1.132211,0.026 -1.33785,0.015 -0.205643,-0.01 -0.839086,-0.4398 -1.407653,-0.9525 -0.568564,-0.5126 -1.179891,-0.9789 -1.3585,-1.0363 -0.17861,-0.057 -0.324744,-0.1757 -0.324744,-0.2633 0,-0.087 0.268489,-0.1593 0.596642,-0.1593 0.328154,0 1.048397,-0.1922 1.600542,-0.427 0.552142,-0.2349 1.238135,-0.4271 1.524425,-0.4271 0.28629,0 0.737026,0.1133 1.001634,0.2515 0.264608,0.1382 0.638704,0.4649 0.831323,0.7259 0.231562,0.3137 0.352032,0.3846 0.355573,0.2094 0.0029,-0.1458 -0.347748,-0.6321 -0.779317,-1.0808 -0.491081,-0.3527 -0.697294,-0.3867 -1.346981,-0.4612 -0.175482,-0.024 -0.699334,0.023 -1.164122,0.1043 -0.54028,0.3247 -1.1344,0.5452 -1.376607,0.6638 -0.141171,0.055 -0.519038,0.1 -0.839705,0.1 -0.389978,0 -0.619091,0.095 -0.691932,0.2867 -0.07626,0.2009 0.06429,0.4185 0.468833,0.7259 0.317755,0.2415 0.920555,0.7542 1.339558,1.1391 0.419004,0.385 0.913937,0.7913 1.099853,0.9027 0.216704,0.1299 0.701997,0.167 1.352112,0.1032 z m 6.549296,-1.9689 c 0.06971,0.01 0.110428,-0.246 0.12676,-0.3841 0.02208,-0.1866 -0.114443,-0.1745 -0.415283,-0.2202 -0.232871,-0.036 -0.513617,-0.071 -0.633802,-0.031 -0.130006,0.044 -0.01313,0.1863 0.288522,0.3514 0.278874,0.1527 0.564085,0.2806 0.633803,0.2844 z"
       id="path4180"
       inkscape:connector-curvature="0"
       sodipodi:nodetypes="ccssccccsccccsssccccsscssccccsssccssscsscccsscscsscccsscsssscssssccssscssscsssssssscsscssscssscccccsssssscccssccssscsssccsscccccsccscssccscccsscssccccsscscscsccscscssssssssssscccccsssssscsscsc" />
  </g>
</svg>
